%TF.GenerationSoftware,KiCad,Pcbnew,7.0.8*%
%TF.CreationDate,2023-11-11T20:00:54-08:00*%
%TF.ProjectId,Nemesis-MixSigPCB,4e656d65-7369-4732-9d4d-697853696750,rev?*%
%TF.SameCoordinates,Original*%
%TF.FileFunction,Soldermask,Top*%
%TF.FilePolarity,Negative*%
%FSLAX46Y46*%
G04 Gerber Fmt 4.6, Leading zero omitted, Abs format (unit mm)*
G04 Created by KiCad (PCBNEW 7.0.8) date 2023-11-11 20:00:54*
%MOMM*%
%LPD*%
G01*
G04 APERTURE LIST*
G04 Aperture macros list*
%AMRoundRect*
0 Rectangle with rounded corners*
0 $1 Rounding radius*
0 $2 $3 $4 $5 $6 $7 $8 $9 X,Y pos of 4 corners*
0 Add a 4 corners polygon primitive as box body*
4,1,4,$2,$3,$4,$5,$6,$7,$8,$9,$2,$3,0*
0 Add four circle primitives for the rounded corners*
1,1,$1+$1,$2,$3*
1,1,$1+$1,$4,$5*
1,1,$1+$1,$6,$7*
1,1,$1+$1,$8,$9*
0 Add four rect primitives between the rounded corners*
20,1,$1+$1,$2,$3,$4,$5,0*
20,1,$1+$1,$4,$5,$6,$7,0*
20,1,$1+$1,$6,$7,$8,$9,0*
20,1,$1+$1,$8,$9,$2,$3,0*%
%AMFreePoly0*
4,1,9,3.862500,-0.866500,0.737500,-0.866500,0.737500,-0.450000,-0.737500,-0.450000,-0.737500,0.450000,0.737500,0.450000,0.737500,0.866500,3.862500,0.866500,3.862500,-0.866500,3.862500,-0.866500,$1*%
G04 Aperture macros list end*
%ADD10RoundRect,0.140000X0.170000X-0.140000X0.170000X0.140000X-0.170000X0.140000X-0.170000X-0.140000X0*%
%ADD11RoundRect,0.135000X-0.135000X-0.185000X0.135000X-0.185000X0.135000X0.185000X-0.135000X0.185000X0*%
%ADD12RoundRect,0.140000X0.140000X0.170000X-0.140000X0.170000X-0.140000X-0.170000X0.140000X-0.170000X0*%
%ADD13RoundRect,0.135000X0.135000X0.185000X-0.135000X0.185000X-0.135000X-0.185000X0.135000X-0.185000X0*%
%ADD14RoundRect,0.112500X-0.187500X-0.112500X0.187500X-0.112500X0.187500X0.112500X-0.187500X0.112500X0*%
%ADD15R,1.400000X1.200000*%
%ADD16RoundRect,0.225000X-0.250000X0.225000X-0.250000X-0.225000X0.250000X-0.225000X0.250000X0.225000X0*%
%ADD17RoundRect,0.112500X-0.112500X0.187500X-0.112500X-0.187500X0.112500X-0.187500X0.112500X0.187500X0*%
%ADD18RoundRect,0.147500X0.147500X0.172500X-0.147500X0.172500X-0.147500X-0.172500X0.147500X-0.172500X0*%
%ADD19RoundRect,0.250000X-0.475000X0.250000X-0.475000X-0.250000X0.475000X-0.250000X0.475000X0.250000X0*%
%ADD20C,3.200000*%
%ADD21RoundRect,0.135000X-0.185000X0.135000X-0.185000X-0.135000X0.185000X-0.135000X0.185000X0.135000X0*%
%ADD22C,2.000000*%
%ADD23RoundRect,0.250000X0.450000X-0.262500X0.450000X0.262500X-0.450000X0.262500X-0.450000X-0.262500X0*%
%ADD24RoundRect,0.225000X0.250000X-0.225000X0.250000X0.225000X-0.250000X0.225000X-0.250000X-0.225000X0*%
%ADD25RoundRect,0.135000X0.185000X-0.135000X0.185000X0.135000X-0.185000X0.135000X-0.185000X-0.135000X0*%
%ADD26RoundRect,0.250000X0.250000X0.475000X-0.250000X0.475000X-0.250000X-0.475000X0.250000X-0.475000X0*%
%ADD27RoundRect,0.225000X0.225000X0.250000X-0.225000X0.250000X-0.225000X-0.250000X0.225000X-0.250000X0*%
%ADD28RoundRect,0.140000X-0.170000X0.140000X-0.170000X-0.140000X0.170000X-0.140000X0.170000X0.140000X0*%
%ADD29C,0.650000*%
%ADD30R,1.450000X0.600000*%
%ADD31R,1.450000X0.300000*%
%ADD32O,2.100000X1.000000*%
%ADD33O,1.600000X1.000000*%
%ADD34RoundRect,0.140000X-0.140000X-0.170000X0.140000X-0.170000X0.140000X0.170000X-0.140000X0.170000X0*%
%ADD35C,1.500000*%
%ADD36C,2.500000*%
%ADD37RoundRect,0.150000X0.512500X0.150000X-0.512500X0.150000X-0.512500X-0.150000X0.512500X-0.150000X0*%
%ADD38RoundRect,0.218750X0.218750X0.256250X-0.218750X0.256250X-0.218750X-0.256250X0.218750X-0.256250X0*%
%ADD39RoundRect,0.250000X0.475000X-0.250000X0.475000X0.250000X-0.475000X0.250000X-0.475000X-0.250000X0*%
%ADD40RoundRect,0.150000X0.150000X-0.512500X0.150000X0.512500X-0.150000X0.512500X-0.150000X-0.512500X0*%
%ADD41RoundRect,0.120000X-0.430000X-0.180000X0.430000X-0.180000X0.430000X0.180000X-0.430000X0.180000X0*%
%ADD42RoundRect,0.113200X0.128800X-0.723800X0.128800X0.723800X-0.128800X0.723800X-0.128800X-0.723800X0*%
%ADD43R,1.100000X1.500000*%
%ADD44RoundRect,0.112500X0.187500X0.112500X-0.187500X0.112500X-0.187500X-0.112500X0.187500X-0.112500X0*%
%ADD45R,0.740000X2.400000*%
%ADD46RoundRect,0.150000X0.587500X0.150000X-0.587500X0.150000X-0.587500X-0.150000X0.587500X-0.150000X0*%
%ADD47R,1.300000X0.900000*%
%ADD48FreePoly0,0.000000*%
%ADD49RoundRect,0.150000X-0.512500X-0.150000X0.512500X-0.150000X0.512500X0.150000X-0.512500X0.150000X0*%
%ADD50RoundRect,0.075000X-0.662500X-0.075000X0.662500X-0.075000X0.662500X0.075000X-0.662500X0.075000X0*%
%ADD51RoundRect,0.075000X-0.075000X-0.662500X0.075000X-0.662500X0.075000X0.662500X-0.075000X0.662500X0*%
%ADD52R,1.500000X3.600000*%
G04 APERTURE END LIST*
D10*
%TO.C,C300*%
X82400000Y-152070000D03*
X82400000Y-151110000D03*
%TD*%
D11*
%TO.C,R101*%
X98190000Y-111600000D03*
X99210000Y-111600000D03*
%TD*%
D12*
%TO.C,C405*%
X102072500Y-147050000D03*
X101112500Y-147050000D03*
%TD*%
D11*
%TO.C,R210*%
X78490000Y-114010000D03*
X79510000Y-114010000D03*
%TD*%
D13*
%TO.C,R212*%
X82010000Y-114010000D03*
X80990000Y-114010000D03*
%TD*%
D14*
%TO.C,D205*%
X84450000Y-112260000D03*
X86550000Y-112260000D03*
%TD*%
D11*
%TO.C,R303*%
X78740000Y-150450000D03*
X79760000Y-150450000D03*
%TD*%
D12*
%TO.C,C301*%
X84380000Y-152090000D03*
X83420000Y-152090000D03*
%TD*%
D15*
%TO.C,Y200*%
X77250000Y-120712500D03*
X75050000Y-120712500D03*
X75050000Y-122412500D03*
X77250000Y-122412500D03*
%TD*%
D16*
%TO.C,C101*%
X100705000Y-127225000D03*
X100705000Y-128775000D03*
%TD*%
D17*
%TO.C,D201*%
X87000000Y-104950000D03*
X87000000Y-107050000D03*
%TD*%
D18*
%TO.C,L100*%
X102190000Y-125750000D03*
X101220000Y-125750000D03*
%TD*%
D19*
%TO.C,C105*%
X102150000Y-108150000D03*
X102150000Y-110050000D03*
%TD*%
D20*
%TO.C,H1*%
X70000000Y-105000000D03*
%TD*%
D21*
%TO.C,R309*%
X79500000Y-133390000D03*
X79500000Y-134410000D03*
%TD*%
D20*
%TO.C,H4*%
X110000000Y-150000000D03*
%TD*%
D11*
%TO.C,R305*%
X75740000Y-148450000D03*
X76760000Y-148450000D03*
%TD*%
D22*
%TO.C,FID2*%
X110000000Y-111000000D03*
%TD*%
D23*
%TO.C,R100*%
X92750000Y-138162500D03*
X92750000Y-136337500D03*
%TD*%
D24*
%TO.C,C207*%
X77750000Y-126937500D03*
X77750000Y-125387500D03*
%TD*%
D13*
%TO.C,R404*%
X105122500Y-147050000D03*
X104102500Y-147050000D03*
%TD*%
D25*
%TO.C,R211*%
X75000000Y-106510000D03*
X75000000Y-105490000D03*
%TD*%
D26*
%TO.C,C107*%
X92550000Y-153700000D03*
X90650000Y-153700000D03*
%TD*%
D27*
%TO.C,C400*%
X101500000Y-133350000D03*
X99950000Y-133350000D03*
%TD*%
%TO.C,C309*%
X72525000Y-145000000D03*
X70975000Y-145000000D03*
%TD*%
D14*
%TO.C,D300*%
X75950000Y-154000000D03*
X78050000Y-154000000D03*
%TD*%
D28*
%TO.C,C108*%
X95740000Y-148790000D03*
X95740000Y-149750000D03*
%TD*%
D22*
%TO.C,FID3*%
X110000000Y-144000000D03*
%TD*%
D28*
%TO.C,C404*%
X105100000Y-148220000D03*
X105100000Y-149180000D03*
%TD*%
D29*
%TO.C,J200*%
X109400000Y-126140000D03*
X109400000Y-120360000D03*
D30*
X107955000Y-126500000D03*
X107955000Y-125700000D03*
D31*
X107955000Y-124500000D03*
X107955000Y-123500000D03*
X107955000Y-123000000D03*
X107955000Y-122000000D03*
D30*
X107955000Y-120800000D03*
X107955000Y-120000000D03*
X107955000Y-120000000D03*
X107955000Y-120800000D03*
D31*
X107955000Y-121500000D03*
X107955000Y-122500000D03*
X107955000Y-124000000D03*
X107955000Y-125000000D03*
D30*
X107955000Y-125700000D03*
X107955000Y-126500000D03*
D32*
X108870000Y-127570000D03*
D33*
X113050000Y-127570000D03*
D32*
X108870000Y-118930000D03*
D33*
X113050000Y-118930000D03*
%TD*%
D16*
%TO.C,C312*%
X74500000Y-135625000D03*
X74500000Y-137175000D03*
%TD*%
D24*
%TO.C,C310*%
X74500000Y-140675000D03*
X74500000Y-139125000D03*
%TD*%
D34*
%TO.C,C403*%
X103132500Y-145050000D03*
X104092500Y-145050000D03*
%TD*%
D21*
%TO.C,R400*%
X104800000Y-131590000D03*
X104800000Y-132610000D03*
%TD*%
D18*
%TO.C,L200*%
X79000000Y-128412500D03*
X78030000Y-128412500D03*
%TD*%
D34*
%TO.C,C204*%
X84000000Y-119162500D03*
X84960000Y-119162500D03*
%TD*%
D25*
%TO.C,R202*%
X93000000Y-128922500D03*
X93000000Y-127902500D03*
%TD*%
D27*
%TO.C,C315*%
X78025000Y-132900000D03*
X76475000Y-132900000D03*
%TD*%
D28*
%TO.C,C201*%
X81200000Y-121220000D03*
X81200000Y-122180000D03*
%TD*%
D20*
%TO.C,H3*%
X70000000Y-150000000D03*
%TD*%
D21*
%TO.C,R304*%
X77750000Y-148440000D03*
X77750000Y-149460000D03*
%TD*%
D35*
%TO.C,J400*%
X103000000Y-158560000D03*
D36*
X108080000Y-163640000D03*
D35*
X105600000Y-158560000D03*
D36*
X97920000Y-163640000D03*
%TD*%
D12*
%TO.C,C106*%
X99130000Y-112850000D03*
X98170000Y-112850000D03*
%TD*%
D13*
%TO.C,R206*%
X111440000Y-117260000D03*
X110420000Y-117260000D03*
%TD*%
D12*
%TO.C,C303*%
X77750000Y-150450000D03*
X76790000Y-150450000D03*
%TD*%
D37*
%TO.C,U201*%
X104637500Y-123650000D03*
X104637500Y-122700000D03*
X104637500Y-121750000D03*
X102362500Y-121750000D03*
X102362500Y-122700000D03*
X102362500Y-123650000D03*
%TD*%
D35*
%TO.C,J300*%
X78000000Y-158560000D03*
D36*
X83080000Y-163640000D03*
D35*
X80600000Y-158560000D03*
D36*
X72920000Y-163640000D03*
%TD*%
D34*
%TO.C,C305*%
X78770000Y-148450000D03*
X79730000Y-148450000D03*
%TD*%
D38*
%TO.C,D100*%
X105987500Y-114200000D03*
X104412500Y-114200000D03*
%TD*%
D13*
%TO.C,R201*%
X75510000Y-125162500D03*
X74490000Y-125162500D03*
%TD*%
D11*
%TO.C,R103*%
X104690000Y-115800000D03*
X105710000Y-115800000D03*
%TD*%
D16*
%TO.C,C200*%
X79700000Y-120225000D03*
X79700000Y-121775000D03*
%TD*%
D17*
%TO.C,D203*%
X77000000Y-104950000D03*
X77000000Y-107050000D03*
%TD*%
D13*
%TO.C,R300*%
X76910000Y-152400000D03*
X75890000Y-152400000D03*
%TD*%
D37*
%TO.C,U101*%
X100037500Y-110050000D03*
X100037500Y-109100000D03*
X100037500Y-108150000D03*
X97762500Y-108150000D03*
X97762500Y-110050000D03*
%TD*%
D28*
%TO.C,C306*%
X81250000Y-144970000D03*
X81250000Y-145930000D03*
%TD*%
D13*
%TO.C,R208*%
X71360000Y-117350000D03*
X70340000Y-117350000D03*
%TD*%
D26*
%TO.C,C102*%
X92950000Y-140000000D03*
X91050000Y-140000000D03*
%TD*%
D34*
%TO.C,C212*%
X86750000Y-114010000D03*
X87710000Y-114010000D03*
%TD*%
D13*
%TO.C,R213*%
X85520000Y-114010000D03*
X84500000Y-114010000D03*
%TD*%
D34*
%TO.C,C307*%
X78020000Y-142450000D03*
X78980000Y-142450000D03*
%TD*%
D24*
%TO.C,C206*%
X79500000Y-126912500D03*
X79500000Y-125362500D03*
%TD*%
D21*
%TO.C,R306*%
X77000000Y-142450000D03*
X77000000Y-143470000D03*
%TD*%
D12*
%TO.C,C401*%
X101480000Y-134850000D03*
X100520000Y-134850000D03*
%TD*%
D11*
%TO.C,R401*%
X101730000Y-143350000D03*
X102750000Y-143350000D03*
%TD*%
D10*
%TO.C,C406*%
X99612500Y-150760000D03*
X99612500Y-149800000D03*
%TD*%
%TO.C,C210*%
X103590000Y-120340000D03*
X103590000Y-119380000D03*
%TD*%
D39*
%TO.C,C103*%
X88750000Y-145450000D03*
X88750000Y-143550000D03*
%TD*%
D25*
%TO.C,R403*%
X103112500Y-147060000D03*
X103112500Y-146040000D03*
%TD*%
D19*
%TO.C,C104*%
X95650000Y-108150000D03*
X95650000Y-110050000D03*
%TD*%
D37*
%TO.C,U401*%
X103500000Y-150750000D03*
X103500000Y-149800000D03*
X103500000Y-148850000D03*
X101225000Y-148850000D03*
X101225000Y-150750000D03*
%TD*%
D40*
%TO.C,U300*%
X83800000Y-149337500D03*
X84750000Y-149337500D03*
X85700000Y-149337500D03*
X85700000Y-147062500D03*
X83800000Y-147062500D03*
%TD*%
D41*
%TO.C,L201*%
X100100000Y-123200000D03*
X100100000Y-122200000D03*
X97400000Y-122200000D03*
X97400000Y-123200000D03*
%TD*%
D42*
%TO.C,U400*%
X101000000Y-141000000D03*
X101500000Y-141000000D03*
X102000000Y-141000000D03*
X102500000Y-141000000D03*
X103000000Y-141000000D03*
X103000000Y-136700000D03*
X102500000Y-136700000D03*
X102000000Y-136700000D03*
X101500000Y-136700000D03*
X101000000Y-136700000D03*
%TD*%
D43*
%TO.C,D200*%
X68600000Y-115600000D03*
X68600000Y-118600000D03*
X67100000Y-118600000D03*
X67100000Y-115600000D03*
%TD*%
D11*
%TO.C,R104*%
X93480000Y-152000000D03*
X94500000Y-152000000D03*
%TD*%
D28*
%TO.C,C302*%
X82250000Y-145970000D03*
X82250000Y-146930000D03*
%TD*%
D20*
%TO.C,H2*%
X110000000Y-105000000D03*
%TD*%
D12*
%TO.C,C202*%
X89960000Y-130912500D03*
X89000000Y-130912500D03*
%TD*%
D13*
%TO.C,R207*%
X71360000Y-115600000D03*
X70340000Y-115600000D03*
%TD*%
D25*
%TO.C,R405*%
X105250000Y-151860000D03*
X105250000Y-150840000D03*
%TD*%
D16*
%TO.C,C100*%
X102705000Y-127225000D03*
X102705000Y-128775000D03*
%TD*%
D44*
%TO.C,D202*%
X79550000Y-112260000D03*
X77450000Y-112260000D03*
%TD*%
D12*
%TO.C,C208*%
X77500000Y-123912500D03*
X76540000Y-123912500D03*
%TD*%
D11*
%TO.C,R203*%
X83540000Y-130912500D03*
X84560000Y-130912500D03*
%TD*%
D34*
%TO.C,C211*%
X67120000Y-113600000D03*
X68080000Y-113600000D03*
%TD*%
D13*
%TO.C,R402*%
X102122500Y-145050000D03*
X101102500Y-145050000D03*
%TD*%
D45*
%TO.C,J201*%
X84540000Y-104810000D03*
X84540000Y-108710000D03*
X83270000Y-104810000D03*
X83270000Y-108710000D03*
X82000000Y-104810000D03*
X82000000Y-108710000D03*
X80730000Y-104810000D03*
X80730000Y-108710000D03*
X79460000Y-104810000D03*
X79460000Y-108710000D03*
%TD*%
D21*
%TO.C,R301*%
X81400000Y-151080000D03*
X81400000Y-152100000D03*
%TD*%
D27*
%TO.C,C402*%
X99375000Y-136700000D03*
X97825000Y-136700000D03*
%TD*%
D46*
%TO.C,U302*%
X72437500Y-143200000D03*
X72437500Y-141300000D03*
X70562500Y-142250000D03*
%TD*%
D11*
%TO.C,R102*%
X95990000Y-111600000D03*
X97010000Y-111600000D03*
%TD*%
D28*
%TO.C,C313*%
X76250000Y-135940000D03*
X76250000Y-136900000D03*
%TD*%
D21*
%TO.C,R204*%
X95840000Y-121310000D03*
X95840000Y-122330000D03*
%TD*%
D13*
%TO.C,R209*%
X71370000Y-119100000D03*
X70350000Y-119100000D03*
%TD*%
D12*
%TO.C,C314*%
X78230000Y-134400000D03*
X77270000Y-134400000D03*
%TD*%
D34*
%TO.C,C209*%
X74520000Y-123912500D03*
X75480000Y-123912500D03*
%TD*%
D42*
%TO.C,U303*%
X77750000Y-140300000D03*
X78250000Y-140300000D03*
X78750000Y-140300000D03*
X79250000Y-140300000D03*
X79750000Y-140300000D03*
X79750000Y-136000000D03*
X79250000Y-136000000D03*
X78750000Y-136000000D03*
X78250000Y-136000000D03*
X77750000Y-136000000D03*
%TD*%
D10*
%TO.C,C304*%
X75750000Y-146930000D03*
X75750000Y-145970000D03*
%TD*%
D25*
%TO.C,R308*%
X71250000Y-134760000D03*
X71250000Y-133740000D03*
%TD*%
D13*
%TO.C,R205*%
X111610000Y-129280000D03*
X110590000Y-129280000D03*
%TD*%
D21*
%TO.C,R307*%
X80000000Y-142440000D03*
X80000000Y-143460000D03*
%TD*%
D47*
%TO.C,U100*%
X90800000Y-142250000D03*
D48*
X90887500Y-143750000D03*
D47*
X90800000Y-145250000D03*
%TD*%
D49*
%TO.C,U102*%
X91775000Y-148700000D03*
X91775000Y-149650000D03*
X91775000Y-150600000D03*
X94050000Y-150600000D03*
X94050000Y-148700000D03*
%TD*%
D11*
%TO.C,R302*%
X85290000Y-151000000D03*
X86310000Y-151000000D03*
%TD*%
D49*
%TO.C,U301*%
X77362500Y-145000000D03*
X77362500Y-145950000D03*
X77362500Y-146900000D03*
X79637500Y-146900000D03*
X79637500Y-145000000D03*
%TD*%
D25*
%TO.C,R200*%
X81400000Y-116510000D03*
X81400000Y-115490000D03*
%TD*%
D28*
%TO.C,C203*%
X92800000Y-121520000D03*
X92800000Y-122480000D03*
%TD*%
D10*
%TO.C,C205*%
X81000000Y-126392500D03*
X81000000Y-125432500D03*
%TD*%
D14*
%TO.C,D400*%
X102950000Y-154000000D03*
X105050000Y-154000000D03*
%TD*%
D50*
%TO.C,U200*%
X82837500Y-122250000D03*
X82837500Y-122750000D03*
X82837500Y-123250000D03*
X82837500Y-123750000D03*
X82837500Y-124250000D03*
X82837500Y-124750000D03*
X82837500Y-125250000D03*
X82837500Y-125750000D03*
X82837500Y-126250000D03*
X82837500Y-126750000D03*
X82837500Y-127250000D03*
X82837500Y-127750000D03*
D51*
X84250000Y-129162500D03*
X84750000Y-129162500D03*
X85250000Y-129162500D03*
X85750000Y-129162500D03*
X86250000Y-129162500D03*
X86750000Y-129162500D03*
X87250000Y-129162500D03*
X87750000Y-129162500D03*
X88250000Y-129162500D03*
X88750000Y-129162500D03*
X89250000Y-129162500D03*
X89750000Y-129162500D03*
D50*
X91162500Y-127750000D03*
X91162500Y-127250000D03*
X91162500Y-126750000D03*
X91162500Y-126250000D03*
X91162500Y-125750000D03*
X91162500Y-125250000D03*
X91162500Y-124750000D03*
X91162500Y-124250000D03*
X91162500Y-123750000D03*
X91162500Y-123250000D03*
X91162500Y-122750000D03*
X91162500Y-122250000D03*
D51*
X89750000Y-120837500D03*
X89250000Y-120837500D03*
X88750000Y-120837500D03*
X88250000Y-120837500D03*
X87750000Y-120837500D03*
X87250000Y-120837500D03*
X86750000Y-120837500D03*
X86250000Y-120837500D03*
X85750000Y-120837500D03*
X85250000Y-120837500D03*
X84750000Y-120837500D03*
X84250000Y-120837500D03*
%TD*%
D14*
%TO.C,D204*%
X80950000Y-112260000D03*
X83050000Y-112260000D03*
%TD*%
D27*
%TO.C,C308*%
X71275000Y-132500000D03*
X69725000Y-132500000D03*
%TD*%
D52*
%TO.C,L101*%
X97375000Y-104600000D03*
X100425000Y-104600000D03*
%TD*%
D22*
%TO.C,FID1*%
X70000000Y-111000000D03*
%TD*%
D10*
%TO.C,C311*%
X76250000Y-140400000D03*
X76250000Y-139440000D03*
%TD*%
D11*
%TO.C,R105*%
X91230000Y-152000000D03*
X92250000Y-152000000D03*
%TD*%
M02*
