%TF.GenerationSoftware,KiCad,Pcbnew,7.0.8*%
%TF.CreationDate,2023-11-11T20:00:54-08:00*%
%TF.ProjectId,Nemesis-MixSigPCB,4e656d65-7369-4732-9d4d-697853696750,rev?*%
%TF.SameCoordinates,Original*%
%TF.FileFunction,Legend,Top*%
%TF.FilePolarity,Positive*%
%FSLAX46Y46*%
G04 Gerber Fmt 4.6, Leading zero omitted, Abs format (unit mm)*
G04 Created by KiCad (PCBNEW 7.0.8) date 2023-11-11 20:00:54*
%MOMM*%
%LPD*%
G01*
G04 APERTURE LIST*
%ADD10C,0.150000*%
%ADD11C,0.250000*%
%ADD12C,0.120000*%
%ADD13C,0.100000*%
%ADD14C,0.127000*%
%ADD15C,0.200000*%
G04 APERTURE END LIST*
D10*
X66000000Y-138400000D02*
X113400000Y-138400000D01*
X86459160Y-102574104D02*
X86697255Y-102812200D01*
X86697255Y-102812200D02*
X86459160Y-103050295D01*
X86459160Y-103050295D02*
X86221064Y-102812200D01*
X86221064Y-102812200D02*
X86459160Y-102574104D01*
X86459160Y-102574104D02*
X86459160Y-103050295D01*
X106327255Y-153469819D02*
X106517731Y-153469819D01*
X106517731Y-153469819D02*
X106612969Y-153517438D01*
X106612969Y-153517438D02*
X106708207Y-153612676D01*
X106708207Y-153612676D02*
X106755826Y-153803152D01*
X106755826Y-153803152D02*
X106755826Y-154136485D01*
X106755826Y-154136485D02*
X106708207Y-154326961D01*
X106708207Y-154326961D02*
X106612969Y-154422200D01*
X106612969Y-154422200D02*
X106517731Y-154469819D01*
X106517731Y-154469819D02*
X106327255Y-154469819D01*
X106327255Y-154469819D02*
X106232017Y-154422200D01*
X106232017Y-154422200D02*
X106136779Y-154326961D01*
X106136779Y-154326961D02*
X106089160Y-154136485D01*
X106089160Y-154136485D02*
X106089160Y-153803152D01*
X106089160Y-153803152D02*
X106136779Y-153612676D01*
X106136779Y-153612676D02*
X106232017Y-153517438D01*
X106232017Y-153517438D02*
X106327255Y-153469819D01*
X107184398Y-153469819D02*
X107184398Y-154279342D01*
X107184398Y-154279342D02*
X107232017Y-154374580D01*
X107232017Y-154374580D02*
X107279636Y-154422200D01*
X107279636Y-154422200D02*
X107374874Y-154469819D01*
X107374874Y-154469819D02*
X107565350Y-154469819D01*
X107565350Y-154469819D02*
X107660588Y-154422200D01*
X107660588Y-154422200D02*
X107708207Y-154374580D01*
X107708207Y-154374580D02*
X107755826Y-154279342D01*
X107755826Y-154279342D02*
X107755826Y-153469819D01*
X108089160Y-153469819D02*
X108660588Y-153469819D01*
X108374874Y-154469819D02*
X108374874Y-153469819D01*
X82889160Y-154765057D02*
X82936779Y-154717438D01*
X82936779Y-154717438D02*
X83032017Y-154669819D01*
X83032017Y-154669819D02*
X83270112Y-154669819D01*
X83270112Y-154669819D02*
X83365350Y-154717438D01*
X83365350Y-154717438D02*
X83412969Y-154765057D01*
X83412969Y-154765057D02*
X83460588Y-154860295D01*
X83460588Y-154860295D02*
X83460588Y-154955533D01*
X83460588Y-154955533D02*
X83412969Y-155098390D01*
X83412969Y-155098390D02*
X82841541Y-155669819D01*
X82841541Y-155669819D02*
X83460588Y-155669819D01*
X84079636Y-154669819D02*
X84174874Y-154669819D01*
X84174874Y-154669819D02*
X84270112Y-154717438D01*
X84270112Y-154717438D02*
X84317731Y-154765057D01*
X84317731Y-154765057D02*
X84365350Y-154860295D01*
X84365350Y-154860295D02*
X84412969Y-155050771D01*
X84412969Y-155050771D02*
X84412969Y-155288866D01*
X84412969Y-155288866D02*
X84365350Y-155479342D01*
X84365350Y-155479342D02*
X84317731Y-155574580D01*
X84317731Y-155574580D02*
X84270112Y-155622200D01*
X84270112Y-155622200D02*
X84174874Y-155669819D01*
X84174874Y-155669819D02*
X84079636Y-155669819D01*
X84079636Y-155669819D02*
X83984398Y-155622200D01*
X83984398Y-155622200D02*
X83936779Y-155574580D01*
X83936779Y-155574580D02*
X83889160Y-155479342D01*
X83889160Y-155479342D02*
X83841541Y-155288866D01*
X83841541Y-155288866D02*
X83841541Y-155050771D01*
X83841541Y-155050771D02*
X83889160Y-154860295D01*
X83889160Y-154860295D02*
X83936779Y-154765057D01*
X83936779Y-154765057D02*
X83984398Y-154717438D01*
X83984398Y-154717438D02*
X84079636Y-154669819D01*
X85603446Y-155669819D02*
X85603446Y-154669819D01*
X85603446Y-155146009D02*
X86174874Y-155146009D01*
X86174874Y-155669819D02*
X86174874Y-154669819D01*
X86555827Y-155003152D02*
X87079636Y-155003152D01*
X87079636Y-155003152D02*
X86555827Y-155669819D01*
X86555827Y-155669819D02*
X87079636Y-155669819D01*
X88984399Y-155003152D02*
X88222494Y-155288866D01*
X88222494Y-155288866D02*
X88984399Y-155574580D01*
X90555827Y-155146009D02*
X90698684Y-155193628D01*
X90698684Y-155193628D02*
X90746303Y-155241247D01*
X90746303Y-155241247D02*
X90793922Y-155336485D01*
X90793922Y-155336485D02*
X90793922Y-155479342D01*
X90793922Y-155479342D02*
X90746303Y-155574580D01*
X90746303Y-155574580D02*
X90698684Y-155622200D01*
X90698684Y-155622200D02*
X90603446Y-155669819D01*
X90603446Y-155669819D02*
X90222494Y-155669819D01*
X90222494Y-155669819D02*
X90222494Y-154669819D01*
X90222494Y-154669819D02*
X90555827Y-154669819D01*
X90555827Y-154669819D02*
X90651065Y-154717438D01*
X90651065Y-154717438D02*
X90698684Y-154765057D01*
X90698684Y-154765057D02*
X90746303Y-154860295D01*
X90746303Y-154860295D02*
X90746303Y-154955533D01*
X90746303Y-154955533D02*
X90698684Y-155050771D01*
X90698684Y-155050771D02*
X90651065Y-155098390D01*
X90651065Y-155098390D02*
X90555827Y-155146009D01*
X90555827Y-155146009D02*
X90222494Y-155146009D01*
X91127256Y-154669819D02*
X91365351Y-155669819D01*
X91365351Y-155669819D02*
X91555827Y-154955533D01*
X91555827Y-154955533D02*
X91746303Y-155669819D01*
X91746303Y-155669819D02*
X91984399Y-154669819D01*
X93889161Y-155003152D02*
X93127256Y-155288866D01*
X93127256Y-155288866D02*
X93889161Y-155574580D01*
X95079637Y-154765057D02*
X95127256Y-154717438D01*
X95127256Y-154717438D02*
X95222494Y-154669819D01*
X95222494Y-154669819D02*
X95460589Y-154669819D01*
X95460589Y-154669819D02*
X95555827Y-154717438D01*
X95555827Y-154717438D02*
X95603446Y-154765057D01*
X95603446Y-154765057D02*
X95651065Y-154860295D01*
X95651065Y-154860295D02*
X95651065Y-154955533D01*
X95651065Y-154955533D02*
X95603446Y-155098390D01*
X95603446Y-155098390D02*
X95032018Y-155669819D01*
X95032018Y-155669819D02*
X95651065Y-155669819D01*
X96270113Y-154669819D02*
X96365351Y-154669819D01*
X96365351Y-154669819D02*
X96460589Y-154717438D01*
X96460589Y-154717438D02*
X96508208Y-154765057D01*
X96508208Y-154765057D02*
X96555827Y-154860295D01*
X96555827Y-154860295D02*
X96603446Y-155050771D01*
X96603446Y-155050771D02*
X96603446Y-155288866D01*
X96603446Y-155288866D02*
X96555827Y-155479342D01*
X96555827Y-155479342D02*
X96508208Y-155574580D01*
X96508208Y-155574580D02*
X96460589Y-155622200D01*
X96460589Y-155622200D02*
X96365351Y-155669819D01*
X96365351Y-155669819D02*
X96270113Y-155669819D01*
X96270113Y-155669819D02*
X96174875Y-155622200D01*
X96174875Y-155622200D02*
X96127256Y-155574580D01*
X96127256Y-155574580D02*
X96079637Y-155479342D01*
X96079637Y-155479342D02*
X96032018Y-155288866D01*
X96032018Y-155288866D02*
X96032018Y-155050771D01*
X96032018Y-155050771D02*
X96079637Y-154860295D01*
X96079637Y-154860295D02*
X96127256Y-154765057D01*
X96127256Y-154765057D02*
X96174875Y-154717438D01*
X96174875Y-154717438D02*
X96270113Y-154669819D01*
X97032018Y-155669819D02*
X97032018Y-154669819D01*
X97127256Y-155288866D02*
X97412970Y-155669819D01*
X97412970Y-155003152D02*
X97032018Y-155384104D01*
X97841542Y-155669819D02*
X97841542Y-154669819D01*
X97841542Y-155146009D02*
X98412970Y-155146009D01*
X98412970Y-155669819D02*
X98412970Y-154669819D01*
X98793923Y-155003152D02*
X99317732Y-155003152D01*
X99317732Y-155003152D02*
X98793923Y-155669819D01*
X98793923Y-155669819D02*
X99317732Y-155669819D01*
X107612969Y-114469819D02*
X107136779Y-114469819D01*
X107136779Y-114469819D02*
X107136779Y-113469819D01*
X107946303Y-113946009D02*
X108279636Y-113946009D01*
X108422493Y-114469819D02*
X107946303Y-114469819D01*
X107946303Y-114469819D02*
X107946303Y-113469819D01*
X107946303Y-113469819D02*
X108422493Y-113469819D01*
X108851065Y-114469819D02*
X108851065Y-113469819D01*
X108851065Y-113469819D02*
X109089160Y-113469819D01*
X109089160Y-113469819D02*
X109232017Y-113517438D01*
X109232017Y-113517438D02*
X109327255Y-113612676D01*
X109327255Y-113612676D02*
X109374874Y-113707914D01*
X109374874Y-113707914D02*
X109422493Y-113898390D01*
X109422493Y-113898390D02*
X109422493Y-114041247D01*
X109422493Y-114041247D02*
X109374874Y-114231723D01*
X109374874Y-114231723D02*
X109327255Y-114326961D01*
X109327255Y-114326961D02*
X109232017Y-114422200D01*
X109232017Y-114422200D02*
X109089160Y-114469819D01*
X109089160Y-114469819D02*
X108851065Y-114469819D01*
X109612970Y-114565057D02*
X110374874Y-114565057D01*
X110803446Y-113469819D02*
X110993922Y-113469819D01*
X110993922Y-113469819D02*
X111089160Y-113517438D01*
X111089160Y-113517438D02*
X111184398Y-113612676D01*
X111184398Y-113612676D02*
X111232017Y-113803152D01*
X111232017Y-113803152D02*
X111232017Y-114136485D01*
X111232017Y-114136485D02*
X111184398Y-114326961D01*
X111184398Y-114326961D02*
X111089160Y-114422200D01*
X111089160Y-114422200D02*
X110993922Y-114469819D01*
X110993922Y-114469819D02*
X110803446Y-114469819D01*
X110803446Y-114469819D02*
X110708208Y-114422200D01*
X110708208Y-114422200D02*
X110612970Y-114326961D01*
X110612970Y-114326961D02*
X110565351Y-114136485D01*
X110565351Y-114136485D02*
X110565351Y-113803152D01*
X110565351Y-113803152D02*
X110612970Y-113612676D01*
X110612970Y-113612676D02*
X110708208Y-113517438D01*
X110708208Y-113517438D02*
X110803446Y-113469819D01*
X111660589Y-114469819D02*
X111660589Y-113469819D01*
X111660589Y-113469819D02*
X112232017Y-114469819D01*
X112232017Y-114469819D02*
X112232017Y-113469819D01*
D11*
X85589949Y-109817000D02*
X85732806Y-109864619D01*
X85732806Y-109864619D02*
X85970901Y-109864619D01*
X85970901Y-109864619D02*
X86066139Y-109817000D01*
X86066139Y-109817000D02*
X86113758Y-109769380D01*
X86113758Y-109769380D02*
X86161377Y-109674142D01*
X86161377Y-109674142D02*
X86161377Y-109578904D01*
X86161377Y-109578904D02*
X86113758Y-109483666D01*
X86113758Y-109483666D02*
X86066139Y-109436047D01*
X86066139Y-109436047D02*
X85970901Y-109388428D01*
X85970901Y-109388428D02*
X85780425Y-109340809D01*
X85780425Y-109340809D02*
X85685187Y-109293190D01*
X85685187Y-109293190D02*
X85637568Y-109245571D01*
X85637568Y-109245571D02*
X85589949Y-109150333D01*
X85589949Y-109150333D02*
X85589949Y-109055095D01*
X85589949Y-109055095D02*
X85637568Y-108959857D01*
X85637568Y-108959857D02*
X85685187Y-108912238D01*
X85685187Y-108912238D02*
X85780425Y-108864619D01*
X85780425Y-108864619D02*
X86018520Y-108864619D01*
X86018520Y-108864619D02*
X86161377Y-108912238D01*
X86494711Y-108864619D02*
X86732806Y-109864619D01*
X86732806Y-109864619D02*
X86923282Y-109150333D01*
X86923282Y-109150333D02*
X87113758Y-109864619D01*
X87113758Y-109864619D02*
X87351854Y-108864619D01*
X87732806Y-109864619D02*
X87732806Y-108864619D01*
X87732806Y-108864619D02*
X87970901Y-108864619D01*
X87970901Y-108864619D02*
X88113758Y-108912238D01*
X88113758Y-108912238D02*
X88208996Y-109007476D01*
X88208996Y-109007476D02*
X88256615Y-109102714D01*
X88256615Y-109102714D02*
X88304234Y-109293190D01*
X88304234Y-109293190D02*
X88304234Y-109436047D01*
X88304234Y-109436047D02*
X88256615Y-109626523D01*
X88256615Y-109626523D02*
X88208996Y-109721761D01*
X88208996Y-109721761D02*
X88113758Y-109817000D01*
X88113758Y-109817000D02*
X87970901Y-109864619D01*
X87970901Y-109864619D02*
X87732806Y-109864619D01*
D10*
X83393922Y-137059819D02*
X83727255Y-138059819D01*
X83727255Y-138059819D02*
X84060588Y-137059819D01*
X84917731Y-138059819D02*
X84346303Y-138059819D01*
X84632017Y-138059819D02*
X84632017Y-137059819D01*
X84632017Y-137059819D02*
X84536779Y-137202676D01*
X84536779Y-137202676D02*
X84441541Y-137297914D01*
X84441541Y-137297914D02*
X84346303Y-137345533D01*
X85346303Y-137964580D02*
X85393922Y-138012200D01*
X85393922Y-138012200D02*
X85346303Y-138059819D01*
X85346303Y-138059819D02*
X85298684Y-138012200D01*
X85298684Y-138012200D02*
X85346303Y-137964580D01*
X85346303Y-137964580D02*
X85346303Y-138059819D01*
X86012969Y-137059819D02*
X86108207Y-137059819D01*
X86108207Y-137059819D02*
X86203445Y-137107438D01*
X86203445Y-137107438D02*
X86251064Y-137155057D01*
X86251064Y-137155057D02*
X86298683Y-137250295D01*
X86298683Y-137250295D02*
X86346302Y-137440771D01*
X86346302Y-137440771D02*
X86346302Y-137678866D01*
X86346302Y-137678866D02*
X86298683Y-137869342D01*
X86298683Y-137869342D02*
X86251064Y-137964580D01*
X86251064Y-137964580D02*
X86203445Y-138012200D01*
X86203445Y-138012200D02*
X86108207Y-138059819D01*
X86108207Y-138059819D02*
X86012969Y-138059819D01*
X86012969Y-138059819D02*
X85917731Y-138012200D01*
X85917731Y-138012200D02*
X85870112Y-137964580D01*
X85870112Y-137964580D02*
X85822493Y-137869342D01*
X85822493Y-137869342D02*
X85774874Y-137678866D01*
X85774874Y-137678866D02*
X85774874Y-137440771D01*
X85774874Y-137440771D02*
X85822493Y-137250295D01*
X85822493Y-137250295D02*
X85870112Y-137155057D01*
X85870112Y-137155057D02*
X85917731Y-137107438D01*
X85917731Y-137107438D02*
X86012969Y-137059819D01*
X84060588Y-139669819D02*
X83489160Y-139669819D01*
X83774874Y-139669819D02*
X83774874Y-138669819D01*
X83774874Y-138669819D02*
X83679636Y-138812676D01*
X83679636Y-138812676D02*
X83584398Y-138907914D01*
X83584398Y-138907914D02*
X83489160Y-138955533D01*
X85012969Y-139669819D02*
X84441541Y-139669819D01*
X84727255Y-139669819D02*
X84727255Y-138669819D01*
X84727255Y-138669819D02*
X84632017Y-138812676D01*
X84632017Y-138812676D02*
X84536779Y-138907914D01*
X84536779Y-138907914D02*
X84441541Y-138955533D01*
X85441541Y-139574580D02*
X85489160Y-139622200D01*
X85489160Y-139622200D02*
X85441541Y-139669819D01*
X85441541Y-139669819D02*
X85393922Y-139622200D01*
X85393922Y-139622200D02*
X85441541Y-139574580D01*
X85441541Y-139574580D02*
X85441541Y-139669819D01*
X85870112Y-138765057D02*
X85917731Y-138717438D01*
X85917731Y-138717438D02*
X86012969Y-138669819D01*
X86012969Y-138669819D02*
X86251064Y-138669819D01*
X86251064Y-138669819D02*
X86346302Y-138717438D01*
X86346302Y-138717438D02*
X86393921Y-138765057D01*
X86393921Y-138765057D02*
X86441540Y-138860295D01*
X86441540Y-138860295D02*
X86441540Y-138955533D01*
X86441540Y-138955533D02*
X86393921Y-139098390D01*
X86393921Y-139098390D02*
X85822493Y-139669819D01*
X85822493Y-139669819D02*
X86441540Y-139669819D01*
X86774874Y-138669819D02*
X87393921Y-138669819D01*
X87393921Y-138669819D02*
X87060588Y-139050771D01*
X87060588Y-139050771D02*
X87203445Y-139050771D01*
X87203445Y-139050771D02*
X87298683Y-139098390D01*
X87298683Y-139098390D02*
X87346302Y-139146009D01*
X87346302Y-139146009D02*
X87393921Y-139241247D01*
X87393921Y-139241247D02*
X87393921Y-139479342D01*
X87393921Y-139479342D02*
X87346302Y-139574580D01*
X87346302Y-139574580D02*
X87298683Y-139622200D01*
X87298683Y-139622200D02*
X87203445Y-139669819D01*
X87203445Y-139669819D02*
X86917731Y-139669819D01*
X86917731Y-139669819D02*
X86822493Y-139622200D01*
X86822493Y-139622200D02*
X86774874Y-139574580D01*
X87822493Y-139574580D02*
X87870112Y-139622200D01*
X87870112Y-139622200D02*
X87822493Y-139669819D01*
X87822493Y-139669819D02*
X87774874Y-139622200D01*
X87774874Y-139622200D02*
X87822493Y-139574580D01*
X87822493Y-139574580D02*
X87822493Y-139669819D01*
X88251064Y-138765057D02*
X88298683Y-138717438D01*
X88298683Y-138717438D02*
X88393921Y-138669819D01*
X88393921Y-138669819D02*
X88632016Y-138669819D01*
X88632016Y-138669819D02*
X88727254Y-138717438D01*
X88727254Y-138717438D02*
X88774873Y-138765057D01*
X88774873Y-138765057D02*
X88822492Y-138860295D01*
X88822492Y-138860295D02*
X88822492Y-138955533D01*
X88822492Y-138955533D02*
X88774873Y-139098390D01*
X88774873Y-139098390D02*
X88203445Y-139669819D01*
X88203445Y-139669819D02*
X88822492Y-139669819D01*
X89155826Y-138669819D02*
X89774873Y-138669819D01*
X89774873Y-138669819D02*
X89441540Y-139050771D01*
X89441540Y-139050771D02*
X89584397Y-139050771D01*
X89584397Y-139050771D02*
X89679635Y-139098390D01*
X89679635Y-139098390D02*
X89727254Y-139146009D01*
X89727254Y-139146009D02*
X89774873Y-139241247D01*
X89774873Y-139241247D02*
X89774873Y-139479342D01*
X89774873Y-139479342D02*
X89727254Y-139574580D01*
X89727254Y-139574580D02*
X89679635Y-139622200D01*
X89679635Y-139622200D02*
X89584397Y-139669819D01*
X89584397Y-139669819D02*
X89298683Y-139669819D01*
X89298683Y-139669819D02*
X89203445Y-139622200D01*
X89203445Y-139622200D02*
X89155826Y-139574580D01*
X107536779Y-130669819D02*
X107536779Y-131479342D01*
X107536779Y-131479342D02*
X107584398Y-131574580D01*
X107584398Y-131574580D02*
X107632017Y-131622200D01*
X107632017Y-131622200D02*
X107727255Y-131669819D01*
X107727255Y-131669819D02*
X107917731Y-131669819D01*
X107917731Y-131669819D02*
X108012969Y-131622200D01*
X108012969Y-131622200D02*
X108060588Y-131574580D01*
X108060588Y-131574580D02*
X108108207Y-131479342D01*
X108108207Y-131479342D02*
X108108207Y-130669819D01*
X108536779Y-131622200D02*
X108679636Y-131669819D01*
X108679636Y-131669819D02*
X108917731Y-131669819D01*
X108917731Y-131669819D02*
X109012969Y-131622200D01*
X109012969Y-131622200D02*
X109060588Y-131574580D01*
X109060588Y-131574580D02*
X109108207Y-131479342D01*
X109108207Y-131479342D02*
X109108207Y-131384104D01*
X109108207Y-131384104D02*
X109060588Y-131288866D01*
X109060588Y-131288866D02*
X109012969Y-131241247D01*
X109012969Y-131241247D02*
X108917731Y-131193628D01*
X108917731Y-131193628D02*
X108727255Y-131146009D01*
X108727255Y-131146009D02*
X108632017Y-131098390D01*
X108632017Y-131098390D02*
X108584398Y-131050771D01*
X108584398Y-131050771D02*
X108536779Y-130955533D01*
X108536779Y-130955533D02*
X108536779Y-130860295D01*
X108536779Y-130860295D02*
X108584398Y-130765057D01*
X108584398Y-130765057D02*
X108632017Y-130717438D01*
X108632017Y-130717438D02*
X108727255Y-130669819D01*
X108727255Y-130669819D02*
X108965350Y-130669819D01*
X108965350Y-130669819D02*
X109108207Y-130717438D01*
X109870112Y-131146009D02*
X110012969Y-131193628D01*
X110012969Y-131193628D02*
X110060588Y-131241247D01*
X110060588Y-131241247D02*
X110108207Y-131336485D01*
X110108207Y-131336485D02*
X110108207Y-131479342D01*
X110108207Y-131479342D02*
X110060588Y-131574580D01*
X110060588Y-131574580D02*
X110012969Y-131622200D01*
X110012969Y-131622200D02*
X109917731Y-131669819D01*
X109917731Y-131669819D02*
X109536779Y-131669819D01*
X109536779Y-131669819D02*
X109536779Y-130669819D01*
X109536779Y-130669819D02*
X109870112Y-130669819D01*
X109870112Y-130669819D02*
X109965350Y-130717438D01*
X109965350Y-130717438D02*
X110012969Y-130765057D01*
X110012969Y-130765057D02*
X110060588Y-130860295D01*
X110060588Y-130860295D02*
X110060588Y-130955533D01*
X110060588Y-130955533D02*
X110012969Y-131050771D01*
X110012969Y-131050771D02*
X109965350Y-131098390D01*
X109965350Y-131098390D02*
X109870112Y-131146009D01*
X109870112Y-131146009D02*
X109536779Y-131146009D01*
X110536779Y-131288866D02*
X111298684Y-131288866D01*
X112346302Y-131574580D02*
X112298683Y-131622200D01*
X112298683Y-131622200D02*
X112155826Y-131669819D01*
X112155826Y-131669819D02*
X112060588Y-131669819D01*
X112060588Y-131669819D02*
X111917731Y-131622200D01*
X111917731Y-131622200D02*
X111822493Y-131526961D01*
X111822493Y-131526961D02*
X111774874Y-131431723D01*
X111774874Y-131431723D02*
X111727255Y-131241247D01*
X111727255Y-131241247D02*
X111727255Y-131098390D01*
X111727255Y-131098390D02*
X111774874Y-130907914D01*
X111774874Y-130907914D02*
X111822493Y-130812676D01*
X111822493Y-130812676D02*
X111917731Y-130717438D01*
X111917731Y-130717438D02*
X112060588Y-130669819D01*
X112060588Y-130669819D02*
X112155826Y-130669819D01*
X112155826Y-130669819D02*
X112298683Y-130717438D01*
X112298683Y-130717438D02*
X112346302Y-130765057D01*
X72136779Y-154269819D02*
X72136779Y-153269819D01*
X72612969Y-154269819D02*
X72612969Y-153269819D01*
X72612969Y-153269819D02*
X73184397Y-154269819D01*
X73184397Y-154269819D02*
X73184397Y-153269819D01*
D12*
%TO.C,C300*%
X82040000Y-151697836D02*
X82040000Y-151482164D01*
X82760000Y-151697836D02*
X82760000Y-151482164D01*
%TO.C,R101*%
X98546359Y-111220000D02*
X98853641Y-111220000D01*
X98546359Y-111980000D02*
X98853641Y-111980000D01*
%TO.C,C405*%
X101700336Y-147410000D02*
X101484664Y-147410000D01*
X101700336Y-146690000D02*
X101484664Y-146690000D01*
%TO.C,R210*%
X78846359Y-113630000D02*
X79153641Y-113630000D01*
X78846359Y-114390000D02*
X79153641Y-114390000D01*
%TO.C,R212*%
X81653641Y-114390000D02*
X81346359Y-114390000D01*
X81653641Y-113630000D02*
X81346359Y-113630000D01*
%TO.C,D205*%
X83890000Y-111410000D02*
X83890000Y-113110000D01*
X83890000Y-111410000D02*
X86550000Y-111410000D01*
X83890000Y-113110000D02*
X86550000Y-113110000D01*
%TO.C,R303*%
X79096359Y-150070000D02*
X79403641Y-150070000D01*
X79096359Y-150830000D02*
X79403641Y-150830000D01*
%TO.C,C301*%
X84007836Y-152450000D02*
X83792164Y-152450000D01*
X84007836Y-151730000D02*
X83792164Y-151730000D01*
%TO.C,Y200*%
X78150000Y-123212500D02*
X78150000Y-119912500D01*
X78150000Y-119912500D02*
X74150000Y-119912500D01*
%TO.C,C101*%
X101215000Y-127859420D02*
X101215000Y-128140580D01*
X100195000Y-127859420D02*
X100195000Y-128140580D01*
%TO.C,D201*%
X87850000Y-104390000D02*
X86150000Y-104390000D01*
X87850000Y-104390000D02*
X87850000Y-107050000D01*
X86150000Y-104390000D02*
X86150000Y-107050000D01*
%TO.C,C105*%
X102885000Y-108838748D02*
X102885000Y-109361252D01*
X101415000Y-108838748D02*
X101415000Y-109361252D01*
%TO.C,R309*%
X79880000Y-133746359D02*
X79880000Y-134053641D01*
X79120000Y-133746359D02*
X79120000Y-134053641D01*
%TO.C,R305*%
X76096359Y-148070000D02*
X76403641Y-148070000D01*
X76096359Y-148830000D02*
X76403641Y-148830000D01*
%TO.C,R100*%
X92015000Y-137477064D02*
X92015000Y-137022936D01*
X93485000Y-137477064D02*
X93485000Y-137022936D01*
%TO.C,C207*%
X77240000Y-126303080D02*
X77240000Y-126021920D01*
X78260000Y-126303080D02*
X78260000Y-126021920D01*
%TO.C,R404*%
X104766141Y-147430000D02*
X104458859Y-147430000D01*
X104766141Y-146670000D02*
X104458859Y-146670000D01*
%TO.C,R211*%
X74620000Y-106153641D02*
X74620000Y-105846359D01*
X75380000Y-106153641D02*
X75380000Y-105846359D01*
%TO.C,C107*%
X91861252Y-154435000D02*
X91338748Y-154435000D01*
X91861252Y-152965000D02*
X91338748Y-152965000D01*
%TO.C,C400*%
X100865580Y-133860000D02*
X100584420Y-133860000D01*
X100865580Y-132840000D02*
X100584420Y-132840000D01*
%TO.C,C309*%
X71890580Y-145510000D02*
X71609420Y-145510000D01*
X71890580Y-144490000D02*
X71609420Y-144490000D01*
%TO.C,D300*%
X75390000Y-153150000D02*
X75390000Y-154850000D01*
X75390000Y-153150000D02*
X78050000Y-153150000D01*
X75390000Y-154850000D02*
X78050000Y-154850000D01*
%TO.C,C108*%
X96100000Y-149162164D02*
X96100000Y-149377836D01*
X95380000Y-149162164D02*
X95380000Y-149377836D01*
%TO.C,C404*%
X105460000Y-148592164D02*
X105460000Y-148807836D01*
X104740000Y-148592164D02*
X104740000Y-148807836D01*
%TO.C,J200*%
X110100000Y-127950000D02*
X112100000Y-127950000D01*
X110100000Y-118550000D02*
X112100000Y-118550000D01*
%TO.C,C312*%
X75010000Y-136259420D02*
X75010000Y-136540580D01*
X73990000Y-136259420D02*
X73990000Y-136540580D01*
%TO.C,C310*%
X73990000Y-140040580D02*
X73990000Y-139759420D01*
X75010000Y-140040580D02*
X75010000Y-139759420D01*
%TO.C,C403*%
X103504664Y-144690000D02*
X103720336Y-144690000D01*
X103504664Y-145410000D02*
X103720336Y-145410000D01*
%TO.C,R400*%
X105180000Y-131946359D02*
X105180000Y-132253641D01*
X104420000Y-131946359D02*
X104420000Y-132253641D01*
%TO.C,G\u002A\u002A\u002A*%
G36*
X92248428Y-158954067D02*
G01*
X92469618Y-158958866D01*
X92661996Y-158967511D01*
X92810227Y-158980017D01*
X92850970Y-158985652D01*
X93200385Y-159062813D01*
X93501639Y-159172041D01*
X93752399Y-159311399D01*
X93950329Y-159478951D01*
X94093095Y-159672757D01*
X94178362Y-159890882D01*
X94204017Y-160108433D01*
X94174502Y-160349953D01*
X94084488Y-160589861D01*
X93933038Y-160829396D01*
X93719215Y-161069800D01*
X93442083Y-161312312D01*
X93117995Y-161546662D01*
X92948816Y-161652136D01*
X92743431Y-161768589D01*
X92520210Y-161886601D01*
X92297526Y-161996758D01*
X92093749Y-162089643D01*
X91934511Y-162153271D01*
X91857298Y-162185337D01*
X91814885Y-162211771D01*
X91812082Y-162217049D01*
X91840578Y-162236621D01*
X91914629Y-162267157D01*
X91999807Y-162296098D01*
X92244627Y-162387945D01*
X92494670Y-162508563D01*
X92737332Y-162649678D01*
X92960008Y-162803017D01*
X93150095Y-162960307D01*
X93294988Y-163113276D01*
X93340555Y-163176121D01*
X93426810Y-163320632D01*
X93483198Y-163450254D01*
X93519361Y-163592604D01*
X93542645Y-163754950D01*
X93554152Y-164048177D01*
X93515489Y-164319723D01*
X93423147Y-164581535D01*
X93273616Y-164845560D01*
X93185935Y-164969345D01*
X92945174Y-165245365D01*
X92645088Y-165511640D01*
X92291435Y-165763725D01*
X91889969Y-165997174D01*
X91786124Y-166050446D01*
X91200808Y-166309947D01*
X90581427Y-166521989D01*
X89940899Y-166683573D01*
X89292144Y-166791702D01*
X88648082Y-166843378D01*
X88351414Y-166847319D01*
X88178735Y-166843735D01*
X88009146Y-166836773D01*
X87865530Y-166827544D01*
X87791178Y-166820135D01*
X87583156Y-166779855D01*
X87384772Y-166716847D01*
X87213555Y-166638057D01*
X87087037Y-166550429D01*
X87070827Y-166534733D01*
X87006422Y-166459578D01*
X86974586Y-166388536D01*
X86964374Y-166292195D01*
X86963882Y-166247386D01*
X86969709Y-166132923D01*
X86992561Y-166057988D01*
X87040495Y-165997431D01*
X87045501Y-165992600D01*
X87187311Y-165896960D01*
X87383284Y-165829711D01*
X87635773Y-165790127D01*
X87723300Y-165783514D01*
X88025649Y-165765428D01*
X88072795Y-165679721D01*
X89385312Y-165679721D01*
X89388285Y-165721248D01*
X89418521Y-165739576D01*
X89475501Y-165741680D01*
X89558708Y-165734533D01*
X89612780Y-165729423D01*
X89748818Y-165711087D01*
X89923693Y-165678481D01*
X90113790Y-165636395D01*
X90277635Y-165594575D01*
X90720769Y-165456170D01*
X91104166Y-165300248D01*
X91431546Y-165124688D01*
X91706626Y-164927368D01*
X91933124Y-164706169D01*
X92016980Y-164602556D01*
X92135644Y-164422066D01*
X92204953Y-164253532D01*
X92231596Y-164075405D01*
X92227685Y-163923600D01*
X92179016Y-163701779D01*
X92068917Y-163494041D01*
X91896658Y-163299575D01*
X91661510Y-163117572D01*
X91362745Y-162947220D01*
X91338689Y-162935348D01*
X91161575Y-162848321D01*
X91033055Y-162789692D01*
X90941704Y-162762142D01*
X90876101Y-162768347D01*
X90824823Y-162810987D01*
X90776446Y-162892739D01*
X90719548Y-163016283D01*
X90687279Y-163088081D01*
X90581760Y-163314941D01*
X90452150Y-163584550D01*
X90305730Y-163882394D01*
X90149785Y-164193961D01*
X89991600Y-164504737D01*
X89838457Y-164800207D01*
X89697641Y-165065859D01*
X89656409Y-165142134D01*
X89545150Y-165346202D01*
X89463226Y-165499172D01*
X89410119Y-165608021D01*
X89385312Y-165679721D01*
X88072795Y-165679721D01*
X88242998Y-165370310D01*
X88307780Y-165250086D01*
X88397021Y-165080859D01*
X88505884Y-164871984D01*
X88629536Y-164632814D01*
X88763140Y-164372703D01*
X88901862Y-164101004D01*
X89040867Y-163827071D01*
X89046366Y-163816195D01*
X89254324Y-163405243D01*
X89435408Y-163048244D01*
X89591962Y-162740757D01*
X89726332Y-162478340D01*
X89840862Y-162256554D01*
X89937897Y-162070958D01*
X90019782Y-161917111D01*
X90088862Y-161790572D01*
X90147481Y-161686900D01*
X90197984Y-161601655D01*
X90242716Y-161530396D01*
X90284021Y-161468683D01*
X90291786Y-161457512D01*
X90433422Y-161280920D01*
X90570281Y-161166713D01*
X90707547Y-161112749D01*
X90850404Y-161116880D01*
X90989025Y-161169007D01*
X91106983Y-161248254D01*
X91167713Y-161341906D01*
X91179278Y-161465168D01*
X91173409Y-161516750D01*
X91164994Y-161614430D01*
X91178525Y-161657705D01*
X91190530Y-161661440D01*
X91233366Y-161648057D01*
X91322390Y-161611511D01*
X91445073Y-161557198D01*
X91588887Y-161490519D01*
X91606185Y-161482316D01*
X91957690Y-161300643D01*
X92267457Y-161110696D01*
X92531442Y-160915997D01*
X92745601Y-160720067D01*
X92905891Y-160526430D01*
X93008267Y-160338607D01*
X93039463Y-160233984D01*
X93029462Y-160127059D01*
X92957263Y-160028449D01*
X92825713Y-159940722D01*
X92637656Y-159866444D01*
X92629059Y-159863807D01*
X92521756Y-159833466D01*
X92426983Y-159814088D01*
X92327059Y-159804284D01*
X92204306Y-159802665D01*
X92041042Y-159807842D01*
X91962212Y-159811420D01*
X91533381Y-159851338D01*
X91122975Y-159931945D01*
X90714974Y-160057577D01*
X90293358Y-160232569D01*
X90147044Y-160302609D01*
X89838118Y-160468292D01*
X89518612Y-160663563D01*
X89206130Y-160876354D01*
X88918276Y-161094595D01*
X88672654Y-161306220D01*
X88645244Y-161332137D01*
X88466893Y-161482485D01*
X88300303Y-161577387D01*
X88134134Y-161622465D01*
X88048373Y-161628075D01*
X87856526Y-161604742D01*
X87709040Y-161536675D01*
X87608960Y-161429700D01*
X87559333Y-161289646D01*
X87563206Y-161122341D01*
X87623624Y-160933614D01*
X87653649Y-160872908D01*
X87740447Y-160741696D01*
X87868263Y-160588155D01*
X88023527Y-160425778D01*
X88192666Y-160268059D01*
X88362108Y-160128490D01*
X88498945Y-160032497D01*
X88617300Y-159957496D01*
X88723962Y-159889032D01*
X88799065Y-159839874D01*
X88808483Y-159833529D01*
X88909679Y-159773434D01*
X89056921Y-159697223D01*
X89235143Y-159611776D01*
X89429278Y-159523974D01*
X89624262Y-159440699D01*
X89805029Y-159368831D01*
X89907448Y-159331603D01*
X90148723Y-159253746D01*
X90417096Y-159176223D01*
X90692231Y-159104261D01*
X90953791Y-159043088D01*
X91181440Y-158997933D01*
X91246999Y-158987235D01*
X91382233Y-158973030D01*
X91565327Y-158962595D01*
X91780948Y-158955947D01*
X92013760Y-158953099D01*
X92248428Y-158954067D01*
G37*
%TO.C,C204*%
X84372164Y-118802500D02*
X84587836Y-118802500D01*
X84372164Y-119522500D02*
X84587836Y-119522500D01*
%TO.C,R202*%
X92620000Y-128566141D02*
X92620000Y-128258859D01*
X93380000Y-128566141D02*
X93380000Y-128258859D01*
%TO.C,C315*%
X77390580Y-133410000D02*
X77109420Y-133410000D01*
X77390580Y-132390000D02*
X77109420Y-132390000D01*
%TO.C,C201*%
X81560000Y-121592164D02*
X81560000Y-121807836D01*
X80840000Y-121592164D02*
X80840000Y-121807836D01*
%TO.C,R304*%
X78130000Y-148796359D02*
X78130000Y-149103641D01*
X77370000Y-148796359D02*
X77370000Y-149103641D01*
D13*
%TO.C,J400*%
X110620000Y-168720000D02*
X95380000Y-168720000D01*
X95380000Y-168720000D02*
X95380000Y-156020000D01*
X95380000Y-156020000D02*
X110620000Y-156020000D01*
X110620000Y-156020000D02*
X110620000Y-168720000D01*
D12*
%TO.C,C106*%
X98757836Y-113210000D02*
X98542164Y-113210000D01*
X98757836Y-112490000D02*
X98542164Y-112490000D01*
%TO.C,R206*%
X111083641Y-117640000D02*
X110776359Y-117640000D01*
X111083641Y-116880000D02*
X110776359Y-116880000D01*
%TO.C,C303*%
X77377836Y-150810000D02*
X77162164Y-150810000D01*
X77377836Y-150090000D02*
X77162164Y-150090000D01*
%TO.C,U201*%
X103500000Y-124260000D02*
X105300000Y-124260000D01*
X103500000Y-124260000D02*
X102700000Y-124260000D01*
X103500000Y-121140000D02*
X104300000Y-121140000D01*
X103500000Y-121140000D02*
X102700000Y-121140000D01*
D13*
%TO.C,J300*%
X85620000Y-168720000D02*
X70380000Y-168720000D01*
X70380000Y-168720000D02*
X70380000Y-156020000D01*
X70380000Y-156020000D02*
X85620000Y-156020000D01*
X85620000Y-156020000D02*
X85620000Y-168720000D01*
D12*
%TO.C,C305*%
X79142164Y-148090000D02*
X79357836Y-148090000D01*
X79142164Y-148810000D02*
X79357836Y-148810000D01*
%TO.C,D100*%
X106685000Y-114935000D02*
X106685000Y-113465000D01*
X106685000Y-113465000D02*
X104400000Y-113465000D01*
X104400000Y-114935000D02*
X106685000Y-114935000D01*
%TO.C,R201*%
X75153641Y-125542500D02*
X74846359Y-125542500D01*
X75153641Y-124782500D02*
X74846359Y-124782500D01*
%TO.C,R103*%
X105046359Y-115420000D02*
X105353641Y-115420000D01*
X105046359Y-116180000D02*
X105353641Y-116180000D01*
%TO.C,C200*%
X80210000Y-120859420D02*
X80210000Y-121140580D01*
X79190000Y-120859420D02*
X79190000Y-121140580D01*
%TO.C,D203*%
X77850000Y-104390000D02*
X76150000Y-104390000D01*
X77850000Y-104390000D02*
X77850000Y-107050000D01*
X76150000Y-104390000D02*
X76150000Y-107050000D01*
%TO.C,R300*%
X76553641Y-152780000D02*
X76246359Y-152780000D01*
X76553641Y-152020000D02*
X76246359Y-152020000D01*
%TO.C,U101*%
X98900000Y-110660000D02*
X100700000Y-110660000D01*
X98900000Y-110660000D02*
X98100000Y-110660000D01*
X98900000Y-107540000D02*
X99700000Y-107540000D01*
X98900000Y-107540000D02*
X98100000Y-107540000D01*
%TO.C,C306*%
X81610000Y-145342164D02*
X81610000Y-145557836D01*
X80890000Y-145342164D02*
X80890000Y-145557836D01*
%TO.C,R208*%
X71003641Y-117730000D02*
X70696359Y-117730000D01*
X71003641Y-116970000D02*
X70696359Y-116970000D01*
%TO.C,C102*%
X92261252Y-140735000D02*
X91738748Y-140735000D01*
X92261252Y-139265000D02*
X91738748Y-139265000D01*
%TO.C,C212*%
X87122164Y-113650000D02*
X87337836Y-113650000D01*
X87122164Y-114370000D02*
X87337836Y-114370000D01*
%TO.C,R213*%
X85163641Y-114390000D02*
X84856359Y-114390000D01*
X85163641Y-113630000D02*
X84856359Y-113630000D01*
%TO.C,C307*%
X78392164Y-142090000D02*
X78607836Y-142090000D01*
X78392164Y-142810000D02*
X78607836Y-142810000D01*
%TO.C,C206*%
X78990000Y-126278080D02*
X78990000Y-125996920D01*
X80010000Y-126278080D02*
X80010000Y-125996920D01*
%TO.C,R306*%
X77380000Y-142806359D02*
X77380000Y-143113641D01*
X76620000Y-142806359D02*
X76620000Y-143113641D01*
%TO.C,C401*%
X101107836Y-135210000D02*
X100892164Y-135210000D01*
X101107836Y-134490000D02*
X100892164Y-134490000D01*
%TO.C,R401*%
X102086359Y-142970000D02*
X102393641Y-142970000D01*
X102086359Y-143730000D02*
X102393641Y-143730000D01*
%TO.C,C406*%
X99252500Y-150387836D02*
X99252500Y-150172164D01*
X99972500Y-150387836D02*
X99972500Y-150172164D01*
%TO.C,C210*%
X103230000Y-119967836D02*
X103230000Y-119752164D01*
X103950000Y-119967836D02*
X103950000Y-119752164D01*
%TO.C,C103*%
X88015000Y-144761252D02*
X88015000Y-144238748D01*
X89485000Y-144761252D02*
X89485000Y-144238748D01*
%TO.C,R403*%
X102732500Y-146703641D02*
X102732500Y-146396359D01*
X103492500Y-146703641D02*
X103492500Y-146396359D01*
%TO.C,C104*%
X96385000Y-108838748D02*
X96385000Y-109361252D01*
X94915000Y-108838748D02*
X94915000Y-109361252D01*
%TO.C,U401*%
X102362500Y-151360000D02*
X104162500Y-151360000D01*
X102362500Y-151360000D02*
X101562500Y-151360000D01*
X102362500Y-148240000D02*
X103162500Y-148240000D01*
X102362500Y-148240000D02*
X101562500Y-148240000D01*
%TO.C,U300*%
X83190000Y-148200000D02*
X83190000Y-150000000D01*
X83190000Y-148200000D02*
X83190000Y-147400000D01*
X86310000Y-148200000D02*
X86310000Y-149000000D01*
X86310000Y-148200000D02*
X86310000Y-147400000D01*
D13*
%TO.C,L201*%
X96700000Y-121650000D02*
X100100000Y-121650000D01*
X97400000Y-123750000D02*
X100100000Y-123750000D01*
D14*
%TO.C,U400*%
X100500000Y-140350000D02*
X100500000Y-137350000D01*
X103500000Y-140350000D02*
X103500000Y-137350000D01*
D15*
X101100000Y-142350000D02*
G75*
G03*
X101100000Y-142350000I-100000J0D01*
G01*
D12*
%TO.C,D200*%
X69350000Y-114599956D02*
X69350000Y-119050000D01*
X68550000Y-114600000D02*
X69350000Y-114600000D01*
X66350000Y-115150000D02*
X66350000Y-119050000D01*
%TO.C,R104*%
X93836359Y-151620000D02*
X94143641Y-151620000D01*
X93836359Y-152380000D02*
X94143641Y-152380000D01*
%TO.C,C302*%
X82610000Y-146342164D02*
X82610000Y-146557836D01*
X81890000Y-146342164D02*
X81890000Y-146557836D01*
%TO.C,C202*%
X89587836Y-131272500D02*
X89372164Y-131272500D01*
X89587836Y-130552500D02*
X89372164Y-130552500D01*
%TO.C,R207*%
X71003641Y-115980000D02*
X70696359Y-115980000D01*
X71003641Y-115220000D02*
X70696359Y-115220000D01*
%TO.C,R405*%
X104870000Y-151503641D02*
X104870000Y-151196359D01*
X105630000Y-151503641D02*
X105630000Y-151196359D01*
%TO.C,C100*%
X103215000Y-127859420D02*
X103215000Y-128140580D01*
X102195000Y-127859420D02*
X102195000Y-128140580D01*
%TO.C,D202*%
X80110000Y-113110000D02*
X80110000Y-111410000D01*
X80110000Y-113110000D02*
X77450000Y-113110000D01*
X80110000Y-111410000D02*
X77450000Y-111410000D01*
%TO.C,C208*%
X77127836Y-124272500D02*
X76912164Y-124272500D01*
X77127836Y-123552500D02*
X76912164Y-123552500D01*
%TO.C,R203*%
X83896359Y-130532500D02*
X84203641Y-130532500D01*
X83896359Y-131292500D02*
X84203641Y-131292500D01*
%TO.C,C211*%
X67492164Y-113240000D02*
X67707836Y-113240000D01*
X67492164Y-113960000D02*
X67707836Y-113960000D01*
%TO.C,R402*%
X101766141Y-145430000D02*
X101458859Y-145430000D01*
X101766141Y-144670000D02*
X101458859Y-144670000D01*
%TO.C,J201*%
X85170000Y-103670000D02*
X85170000Y-104995000D01*
X85235000Y-104995000D02*
X85170000Y-104995000D01*
X85235000Y-104995000D02*
X85235000Y-108525000D01*
X78830000Y-104995000D02*
X78765000Y-104995000D01*
X78765000Y-104995000D02*
X78765000Y-108525000D01*
X85235000Y-108525000D02*
X85170000Y-108525000D01*
X78830000Y-108525000D02*
X78765000Y-108525000D01*
%TO.C,R301*%
X81780000Y-151436359D02*
X81780000Y-151743641D01*
X81020000Y-151436359D02*
X81020000Y-151743641D01*
%TO.C,C402*%
X98740580Y-137210000D02*
X98459420Y-137210000D01*
X98740580Y-136190000D02*
X98459420Y-136190000D01*
%TO.C,U302*%
X71500000Y-143810000D02*
X73175000Y-143810000D01*
X71500000Y-143810000D02*
X70850000Y-143810000D01*
X71500000Y-140690000D02*
X72150000Y-140690000D01*
X71500000Y-140690000D02*
X70850000Y-140690000D01*
%TO.C,R102*%
X96346359Y-111220000D02*
X96653641Y-111220000D01*
X96346359Y-111980000D02*
X96653641Y-111980000D01*
%TO.C,C313*%
X76610000Y-136312164D02*
X76610000Y-136527836D01*
X75890000Y-136312164D02*
X75890000Y-136527836D01*
%TO.C,R204*%
X96220000Y-121666359D02*
X96220000Y-121973641D01*
X95460000Y-121666359D02*
X95460000Y-121973641D01*
%TO.C,R209*%
X71013641Y-119480000D02*
X70706359Y-119480000D01*
X71013641Y-118720000D02*
X70706359Y-118720000D01*
%TO.C,C314*%
X77857836Y-134760000D02*
X77642164Y-134760000D01*
X77857836Y-134040000D02*
X77642164Y-134040000D01*
%TO.C,C209*%
X74892164Y-123552500D02*
X75107836Y-123552500D01*
X74892164Y-124272500D02*
X75107836Y-124272500D01*
D14*
%TO.C,U303*%
X77250000Y-139650000D02*
X77250000Y-136650000D01*
X80250000Y-139650000D02*
X80250000Y-136650000D01*
D15*
X77600000Y-141650000D02*
G75*
G03*
X77600000Y-141650000I-100000J0D01*
G01*
D12*
%TO.C,C304*%
X75390000Y-146557836D02*
X75390000Y-146342164D01*
X76110000Y-146557836D02*
X76110000Y-146342164D01*
%TO.C,R308*%
X70870000Y-134403641D02*
X70870000Y-134096359D01*
X71630000Y-134403641D02*
X71630000Y-134096359D01*
%TO.C,R205*%
X111253641Y-129660000D02*
X110946359Y-129660000D01*
X111253641Y-128900000D02*
X110946359Y-128900000D01*
%TO.C,R307*%
X80380000Y-142796359D02*
X80380000Y-143103641D01*
X79620000Y-142796359D02*
X79620000Y-143103641D01*
%TO.C,U100*%
X90250000Y-141620000D02*
X91390000Y-141620000D01*
X91390000Y-141390000D02*
X91390000Y-141620000D01*
X91390000Y-141390000D02*
X94110000Y-141390000D01*
X91390000Y-146110000D02*
X91390000Y-145880000D01*
X94110000Y-141390000D02*
X94110000Y-142700000D01*
X94110000Y-144800000D02*
X94110000Y-146110000D01*
X94110000Y-146110000D02*
X91390000Y-146110000D01*
%TO.C,U102*%
X92912500Y-148090000D02*
X91112500Y-148090000D01*
X92912500Y-148090000D02*
X93712500Y-148090000D01*
X92912500Y-151210000D02*
X92112500Y-151210000D01*
X92912500Y-151210000D02*
X93712500Y-151210000D01*
%TO.C,R302*%
X85646359Y-150620000D02*
X85953641Y-150620000D01*
X85646359Y-151380000D02*
X85953641Y-151380000D01*
%TO.C,U301*%
X78500000Y-144390000D02*
X76700000Y-144390000D01*
X78500000Y-144390000D02*
X79300000Y-144390000D01*
X78500000Y-147510000D02*
X77700000Y-147510000D01*
X78500000Y-147510000D02*
X79300000Y-147510000D01*
%TO.C,R200*%
X81020000Y-116153641D02*
X81020000Y-115846359D01*
X81780000Y-116153641D02*
X81780000Y-115846359D01*
%TO.C,C203*%
X93160000Y-121892164D02*
X93160000Y-122107836D01*
X92440000Y-121892164D02*
X92440000Y-122107836D01*
%TO.C,C205*%
X80640000Y-126020336D02*
X80640000Y-125804664D01*
X81360000Y-126020336D02*
X81360000Y-125804664D01*
%TO.C,D400*%
X102390000Y-153150000D02*
X102390000Y-154850000D01*
X102390000Y-153150000D02*
X105050000Y-153150000D01*
X102390000Y-154850000D02*
X105050000Y-154850000D01*
%TO.C,U200*%
X83390000Y-121390000D02*
X83390000Y-121840000D01*
X83390000Y-121840000D02*
X82100000Y-121840000D01*
X83390000Y-128610000D02*
X83390000Y-128160000D01*
X83840000Y-121390000D02*
X83390000Y-121390000D01*
X83840000Y-128610000D02*
X83390000Y-128610000D01*
X90160000Y-121390000D02*
X90610000Y-121390000D01*
X90160000Y-128610000D02*
X90610000Y-128610000D01*
X90610000Y-121390000D02*
X90610000Y-121840000D01*
X90610000Y-128610000D02*
X90610000Y-128160000D01*
%TO.C,D204*%
X80390000Y-111410000D02*
X80390000Y-113110000D01*
X80390000Y-111410000D02*
X83050000Y-111410000D01*
X80390000Y-113110000D02*
X83050000Y-113110000D01*
%TO.C,C308*%
X70640580Y-133010000D02*
X70359420Y-133010000D01*
X70640580Y-131990000D02*
X70359420Y-131990000D01*
%TO.C,L101*%
X96515000Y-102490000D02*
X96515000Y-103515000D01*
X96515000Y-102490000D02*
X97540000Y-102490000D01*
X96515000Y-106710000D02*
X96515000Y-105685000D01*
X96515000Y-106710000D02*
X97540000Y-106710000D01*
X101285000Y-102490000D02*
X100260000Y-102490000D01*
X101285000Y-102490000D02*
X101285000Y-103515000D01*
X101285000Y-106710000D02*
X100260000Y-106710000D01*
X101285000Y-106710000D02*
X101285000Y-105685000D01*
%TO.C,C311*%
X75890000Y-140027836D02*
X75890000Y-139812164D01*
X76610000Y-140027836D02*
X76610000Y-139812164D01*
%TO.C,R105*%
X91586359Y-151620000D02*
X91893641Y-151620000D01*
X91586359Y-152380000D02*
X91893641Y-152380000D01*
%TD*%
M02*
