%TF.GenerationSoftware,KiCad,Pcbnew,7.0.8*%
%TF.CreationDate,2023-11-11T20:00:54-08:00*%
%TF.ProjectId,Nemesis-MixSigPCB,4e656d65-7369-4732-9d4d-697853696750,rev?*%
%TF.SameCoordinates,Original*%
%TF.FileFunction,Copper,L1,Top*%
%TF.FilePolarity,Positive*%
%FSLAX46Y46*%
G04 Gerber Fmt 4.6, Leading zero omitted, Abs format (unit mm)*
G04 Created by KiCad (PCBNEW 7.0.8) date 2023-11-11 20:00:54*
%MOMM*%
%LPD*%
G01*
G04 APERTURE LIST*
G04 Aperture macros list*
%AMRoundRect*
0 Rectangle with rounded corners*
0 $1 Rounding radius*
0 $2 $3 $4 $5 $6 $7 $8 $9 X,Y pos of 4 corners*
0 Add a 4 corners polygon primitive as box body*
4,1,4,$2,$3,$4,$5,$6,$7,$8,$9,$2,$3,0*
0 Add four circle primitives for the rounded corners*
1,1,$1+$1,$2,$3*
1,1,$1+$1,$4,$5*
1,1,$1+$1,$6,$7*
1,1,$1+$1,$8,$9*
0 Add four rect primitives between the rounded corners*
20,1,$1+$1,$2,$3,$4,$5,0*
20,1,$1+$1,$4,$5,$6,$7,0*
20,1,$1+$1,$6,$7,$8,$9,0*
20,1,$1+$1,$8,$9,$2,$3,0*%
%AMFreePoly0*
4,1,9,3.862500,-0.866500,0.737500,-0.866500,0.737500,-0.450000,-0.737500,-0.450000,-0.737500,0.450000,0.737500,0.450000,0.737500,0.866500,3.862500,0.866500,3.862500,-0.866500,3.862500,-0.866500,$1*%
G04 Aperture macros list end*
%TA.AperFunction,SMDPad,CuDef*%
%ADD10RoundRect,0.140000X0.170000X-0.140000X0.170000X0.140000X-0.170000X0.140000X-0.170000X-0.140000X0*%
%TD*%
%TA.AperFunction,SMDPad,CuDef*%
%ADD11RoundRect,0.135000X-0.135000X-0.185000X0.135000X-0.185000X0.135000X0.185000X-0.135000X0.185000X0*%
%TD*%
%TA.AperFunction,SMDPad,CuDef*%
%ADD12RoundRect,0.140000X0.140000X0.170000X-0.140000X0.170000X-0.140000X-0.170000X0.140000X-0.170000X0*%
%TD*%
%TA.AperFunction,SMDPad,CuDef*%
%ADD13RoundRect,0.135000X0.135000X0.185000X-0.135000X0.185000X-0.135000X-0.185000X0.135000X-0.185000X0*%
%TD*%
%TA.AperFunction,SMDPad,CuDef*%
%ADD14RoundRect,0.112500X-0.187500X-0.112500X0.187500X-0.112500X0.187500X0.112500X-0.187500X0.112500X0*%
%TD*%
%TA.AperFunction,SMDPad,CuDef*%
%ADD15R,1.400000X1.200000*%
%TD*%
%TA.AperFunction,SMDPad,CuDef*%
%ADD16RoundRect,0.225000X-0.250000X0.225000X-0.250000X-0.225000X0.250000X-0.225000X0.250000X0.225000X0*%
%TD*%
%TA.AperFunction,SMDPad,CuDef*%
%ADD17RoundRect,0.112500X-0.112500X0.187500X-0.112500X-0.187500X0.112500X-0.187500X0.112500X0.187500X0*%
%TD*%
%TA.AperFunction,SMDPad,CuDef*%
%ADD18RoundRect,0.147500X0.147500X0.172500X-0.147500X0.172500X-0.147500X-0.172500X0.147500X-0.172500X0*%
%TD*%
%TA.AperFunction,SMDPad,CuDef*%
%ADD19RoundRect,0.250000X-0.475000X0.250000X-0.475000X-0.250000X0.475000X-0.250000X0.475000X0.250000X0*%
%TD*%
%TA.AperFunction,SMDPad,CuDef*%
%ADD20RoundRect,0.135000X-0.185000X0.135000X-0.185000X-0.135000X0.185000X-0.135000X0.185000X0.135000X0*%
%TD*%
%TA.AperFunction,SMDPad,CuDef*%
%ADD21C,1.000000*%
%TD*%
%TA.AperFunction,SMDPad,CuDef*%
%ADD22RoundRect,0.250000X0.450000X-0.262500X0.450000X0.262500X-0.450000X0.262500X-0.450000X-0.262500X0*%
%TD*%
%TA.AperFunction,SMDPad,CuDef*%
%ADD23RoundRect,0.225000X0.250000X-0.225000X0.250000X0.225000X-0.250000X0.225000X-0.250000X-0.225000X0*%
%TD*%
%TA.AperFunction,SMDPad,CuDef*%
%ADD24RoundRect,0.135000X0.185000X-0.135000X0.185000X0.135000X-0.185000X0.135000X-0.185000X-0.135000X0*%
%TD*%
%TA.AperFunction,SMDPad,CuDef*%
%ADD25RoundRect,0.250000X0.250000X0.475000X-0.250000X0.475000X-0.250000X-0.475000X0.250000X-0.475000X0*%
%TD*%
%TA.AperFunction,SMDPad,CuDef*%
%ADD26RoundRect,0.225000X0.225000X0.250000X-0.225000X0.250000X-0.225000X-0.250000X0.225000X-0.250000X0*%
%TD*%
%TA.AperFunction,SMDPad,CuDef*%
%ADD27RoundRect,0.140000X-0.170000X0.140000X-0.170000X-0.140000X0.170000X-0.140000X0.170000X0.140000X0*%
%TD*%
%TA.AperFunction,SMDPad,CuDef*%
%ADD28R,1.450000X0.600000*%
%TD*%
%TA.AperFunction,SMDPad,CuDef*%
%ADD29R,1.450000X0.300000*%
%TD*%
%TA.AperFunction,ComponentPad*%
%ADD30O,2.100000X1.000000*%
%TD*%
%TA.AperFunction,ComponentPad*%
%ADD31O,1.600000X1.000000*%
%TD*%
%TA.AperFunction,SMDPad,CuDef*%
%ADD32RoundRect,0.140000X-0.140000X-0.170000X0.140000X-0.170000X0.140000X0.170000X-0.140000X0.170000X0*%
%TD*%
%TA.AperFunction,ComponentPad*%
%ADD33C,1.500000*%
%TD*%
%TA.AperFunction,ComponentPad*%
%ADD34C,2.500000*%
%TD*%
%TA.AperFunction,SMDPad,CuDef*%
%ADD35RoundRect,0.150000X0.512500X0.150000X-0.512500X0.150000X-0.512500X-0.150000X0.512500X-0.150000X0*%
%TD*%
%TA.AperFunction,SMDPad,CuDef*%
%ADD36RoundRect,0.218750X0.218750X0.256250X-0.218750X0.256250X-0.218750X-0.256250X0.218750X-0.256250X0*%
%TD*%
%TA.AperFunction,SMDPad,CuDef*%
%ADD37RoundRect,0.250000X0.475000X-0.250000X0.475000X0.250000X-0.475000X0.250000X-0.475000X-0.250000X0*%
%TD*%
%TA.AperFunction,SMDPad,CuDef*%
%ADD38RoundRect,0.150000X0.150000X-0.512500X0.150000X0.512500X-0.150000X0.512500X-0.150000X-0.512500X0*%
%TD*%
%TA.AperFunction,SMDPad,CuDef*%
%ADD39RoundRect,0.120000X-0.430000X-0.180000X0.430000X-0.180000X0.430000X0.180000X-0.430000X0.180000X0*%
%TD*%
%TA.AperFunction,SMDPad,CuDef*%
%ADD40RoundRect,0.011200X0.128800X-0.723800X0.128800X0.723800X-0.128800X0.723800X-0.128800X-0.723800X0*%
%TD*%
%TA.AperFunction,SMDPad,CuDef*%
%ADD41R,1.100000X1.500000*%
%TD*%
%TA.AperFunction,SMDPad,CuDef*%
%ADD42RoundRect,0.112500X0.187500X0.112500X-0.187500X0.112500X-0.187500X-0.112500X0.187500X-0.112500X0*%
%TD*%
%TA.AperFunction,SMDPad,CuDef*%
%ADD43R,0.740000X2.400000*%
%TD*%
%TA.AperFunction,SMDPad,CuDef*%
%ADD44RoundRect,0.150000X0.587500X0.150000X-0.587500X0.150000X-0.587500X-0.150000X0.587500X-0.150000X0*%
%TD*%
%TA.AperFunction,SMDPad,CuDef*%
%ADD45R,1.300000X0.900000*%
%TD*%
%TA.AperFunction,SMDPad,CuDef*%
%ADD46FreePoly0,0.000000*%
%TD*%
%TA.AperFunction,SMDPad,CuDef*%
%ADD47RoundRect,0.150000X-0.512500X-0.150000X0.512500X-0.150000X0.512500X0.150000X-0.512500X0.150000X0*%
%TD*%
%TA.AperFunction,SMDPad,CuDef*%
%ADD48RoundRect,0.075000X-0.662500X-0.075000X0.662500X-0.075000X0.662500X0.075000X-0.662500X0.075000X0*%
%TD*%
%TA.AperFunction,SMDPad,CuDef*%
%ADD49RoundRect,0.075000X-0.075000X-0.662500X0.075000X-0.662500X0.075000X0.662500X-0.075000X0.662500X0*%
%TD*%
%TA.AperFunction,SMDPad,CuDef*%
%ADD50R,1.500000X3.600000*%
%TD*%
%TA.AperFunction,ViaPad*%
%ADD51C,0.800000*%
%TD*%
%TA.AperFunction,ViaPad*%
%ADD52C,0.700000*%
%TD*%
%TA.AperFunction,Conductor*%
%ADD53C,0.293370*%
%TD*%
%TA.AperFunction,Conductor*%
%ADD54C,0.500000*%
%TD*%
%TA.AperFunction,Conductor*%
%ADD55C,0.300000*%
%TD*%
%TA.AperFunction,Conductor*%
%ADD56C,0.261120*%
%TD*%
%TA.AperFunction,Conductor*%
%ADD57C,0.261112*%
%TD*%
G04 APERTURE END LIST*
D10*
%TO.P,C300,1*%
%TO.N,/ADC/IN_RF*%
X82400000Y-152070000D03*
%TO.P,C300,2*%
%TO.N,GND*%
X82400000Y-151110000D03*
%TD*%
D11*
%TO.P,R101,1*%
%TO.N,/Power/BUCK_FB*%
X98190000Y-111600000D03*
%TO.P,R101,2*%
%TO.N,+3V3*%
X99210000Y-111600000D03*
%TD*%
D12*
%TO.P,C405,1*%
%TO.N,Net-(C405-Pad1)*%
X102072500Y-147050000D03*
%TO.P,C405,2*%
%TO.N,/DAC/OUT_AA_BUF_OUT*%
X101112500Y-147050000D03*
%TD*%
D11*
%TO.P,R210,1*%
%TO.N,/MCU/SWDIO*%
X78490000Y-114010000D03*
%TO.P,R210,2*%
%TO.N,/MCU/CONN_SWDIO*%
X79510000Y-114010000D03*
%TD*%
D13*
%TO.P,R212,1*%
%TO.N,/MCU/SWO*%
X82010000Y-114010000D03*
%TO.P,R212,2*%
%TO.N,/MCU/CONN_SWO*%
X80990000Y-114010000D03*
%TD*%
D14*
%TO.P,D205,1,A1*%
%TO.N,/MCU/CONN_NRST*%
X84450000Y-112260000D03*
%TO.P,D205,2,A2*%
%TO.N,GND*%
X86550000Y-112260000D03*
%TD*%
D11*
%TO.P,R303,1*%
%TO.N,Net-(C303-Pad1)*%
X78740000Y-150450000D03*
%TO.P,R303,2*%
%TO.N,/ADC/IN_BUF_OUT*%
X79760000Y-150450000D03*
%TD*%
D12*
%TO.P,C301,1*%
%TO.N,/ADC/IN_BUF*%
X84380000Y-152090000D03*
%TO.P,C301,2*%
%TO.N,/ADC/IN_RF*%
X83420000Y-152090000D03*
%TD*%
D15*
%TO.P,Y200,1,1*%
%TO.N,/MCU/HSE_IN*%
X77250000Y-120712500D03*
%TO.P,Y200,2,2*%
%TO.N,GND*%
X75050000Y-120712500D03*
%TO.P,Y200,3,3*%
%TO.N,/MCU/XTAL_IN*%
X75050000Y-122412500D03*
%TO.P,Y200,4,4*%
%TO.N,GND*%
X77250000Y-122412500D03*
%TD*%
D16*
%TO.P,C101,1*%
%TO.N,+5V*%
X100705000Y-127225000D03*
%TO.P,C101,2*%
%TO.N,GND*%
X100705000Y-128775000D03*
%TD*%
D17*
%TO.P,D201,1,A1*%
%TO.N,+3V3*%
X87000000Y-104950000D03*
%TO.P,D201,2,A2*%
%TO.N,GND*%
X87000000Y-107050000D03*
%TD*%
D18*
%TO.P,L100,1,1*%
%TO.N,VBUS*%
X102190000Y-125750000D03*
%TO.P,L100,2,2*%
%TO.N,+5V*%
X101220000Y-125750000D03*
%TD*%
D19*
%TO.P,C105,1*%
%TO.N,+3V3*%
X102150000Y-108150000D03*
%TO.P,C105,2*%
%TO.N,GND*%
X102150000Y-110050000D03*
%TD*%
D20*
%TO.P,R309,1*%
%TO.N,SPI1_SCK*%
X79500000Y-133390000D03*
%TO.P,R309,2*%
%TO.N,/ADC/ADC_SCLK*%
X79500000Y-134410000D03*
%TD*%
D11*
%TO.P,R305,1*%
%TO.N,/ADC/IN_AA_BUF_IN*%
X75740000Y-148450000D03*
%TO.P,R305,2*%
%TO.N,Net-(C305-Pad1)*%
X76760000Y-148450000D03*
%TD*%
D21*
%TO.P,FID2,*%
%TO.N,*%
X110000000Y-111000000D03*
%TD*%
D22*
%TO.P,R100,1*%
%TO.N,/Power/+5V_FILT*%
X92750000Y-138162500D03*
%TO.P,R100,2*%
%TO.N,+5V*%
X92750000Y-136337500D03*
%TD*%
D23*
%TO.P,C207,1*%
%TO.N,+3V3*%
X77750000Y-126937500D03*
%TO.P,C207,2*%
%TO.N,GND*%
X77750000Y-125387500D03*
%TD*%
D13*
%TO.P,R404,1*%
%TO.N,/DAC/OUT_AA_BUF_IN*%
X105122500Y-147050000D03*
%TO.P,R404,2*%
%TO.N,Net-(C405-Pad1)*%
X104102500Y-147050000D03*
%TD*%
D24*
%TO.P,R211,1*%
%TO.N,/MCU/SWCLK*%
X75000000Y-106510000D03*
%TO.P,R211,2*%
%TO.N,/MCU/CONN_SWCLK*%
X75000000Y-105490000D03*
%TD*%
D25*
%TO.P,C107,1*%
%TO.N,/Power/VREF*%
X92550000Y-153700000D03*
%TO.P,C107,2*%
%TO.N,GND*%
X90650000Y-153700000D03*
%TD*%
D26*
%TO.P,C400,1*%
%TO.N,+3V3*%
X101500000Y-133350000D03*
%TO.P,C400,2*%
%TO.N,GND*%
X99950000Y-133350000D03*
%TD*%
%TO.P,C309,1*%
%TO.N,/ADC/ADC_VREF_VIN*%
X72525000Y-145000000D03*
%TO.P,C309,2*%
%TO.N,GND*%
X70975000Y-145000000D03*
%TD*%
D14*
%TO.P,D300,1,A1*%
%TO.N,/ADC/IN*%
X75950000Y-154000000D03*
%TO.P,D300,2,A2*%
%TO.N,GND*%
X78050000Y-154000000D03*
%TD*%
D27*
%TO.P,C108,1*%
%TO.N,+3.3VA*%
X95740000Y-148790000D03*
%TO.P,C108,2*%
%TO.N,GND*%
X95740000Y-149750000D03*
%TD*%
D21*
%TO.P,FID3,*%
%TO.N,*%
X110000000Y-144000000D03*
%TD*%
D27*
%TO.P,C404,1*%
%TO.N,/DAC/OUT_AA_BUF_IN*%
X105100000Y-148220000D03*
%TO.P,C404,2*%
%TO.N,GND*%
X105100000Y-149180000D03*
%TD*%
D28*
%TO.P,J200,A1,GND*%
%TO.N,GND*%
X107955000Y-126500000D03*
%TO.P,J200,A4,VBUS*%
%TO.N,VBUS*%
X107955000Y-125700000D03*
D29*
%TO.P,J200,A5,CC1*%
%TO.N,/MCU/USB_CONN_CC1*%
X107955000Y-124500000D03*
%TO.P,J200,A6,D+*%
%TO.N,/MCU/USB_CONN_D+*%
X107955000Y-123500000D03*
%TO.P,J200,A7,D-*%
%TO.N,/MCU/USB_CONN_D-*%
X107955000Y-123000000D03*
%TO.P,J200,A8,SBU1*%
%TO.N,unconnected-(J200-SBU1-PadA8)*%
X107955000Y-122000000D03*
D28*
%TO.P,J200,A9,VBUS*%
%TO.N,VBUS*%
X107955000Y-120800000D03*
%TO.P,J200,A12,GND*%
%TO.N,GND*%
X107955000Y-120000000D03*
%TO.P,J200,B1,GND*%
X107955000Y-120000000D03*
%TO.P,J200,B4,VBUS*%
%TO.N,VBUS*%
X107955000Y-120800000D03*
D29*
%TO.P,J200,B5,CC2*%
%TO.N,/MCU/USB_CONN_CC2*%
X107955000Y-121500000D03*
%TO.P,J200,B6,D+*%
%TO.N,/MCU/USB_CONN_D+*%
X107955000Y-122500000D03*
%TO.P,J200,B7,D-*%
%TO.N,/MCU/USB_CONN_D-*%
X107955000Y-124000000D03*
%TO.P,J200,B8,SBU2*%
%TO.N,unconnected-(J200-SBU2-PadB8)*%
X107955000Y-125000000D03*
D28*
%TO.P,J200,B9,VBUS*%
%TO.N,VBUS*%
X107955000Y-125700000D03*
%TO.P,J200,B12,GND*%
%TO.N,GND*%
X107955000Y-126500000D03*
D30*
%TO.P,J200,S1,SHIELD*%
%TO.N,unconnected-(J200-SHIELD-PadS1)*%
X108870000Y-127570000D03*
D31*
X113050000Y-127570000D03*
D30*
X108870000Y-118930000D03*
D31*
X113050000Y-118930000D03*
%TD*%
D16*
%TO.P,C312,1*%
%TO.N,+3.3VA*%
X74500000Y-135625000D03*
%TO.P,C312,2*%
%TO.N,GND*%
X74500000Y-137175000D03*
%TD*%
D23*
%TO.P,C310,1*%
%TO.N,/ADC/ADC_VREF*%
X74500000Y-140675000D03*
%TO.P,C310,2*%
%TO.N,GND*%
X74500000Y-139125000D03*
%TD*%
D32*
%TO.P,C403,1*%
%TO.N,Net-(C403-Pad1)*%
X103132500Y-145050000D03*
%TO.P,C403,2*%
%TO.N,GND*%
X104092500Y-145050000D03*
%TD*%
D20*
%TO.P,R400,1*%
%TO.N,SPI2_SCK*%
X104800000Y-131590000D03*
%TO.P,R400,2*%
%TO.N,/DAC/DAC_SCLK*%
X104800000Y-132610000D03*
%TD*%
D18*
%TO.P,L200,1,1*%
%TO.N,VDDA*%
X79000000Y-128412500D03*
%TO.P,L200,2,2*%
%TO.N,+3V3*%
X78030000Y-128412500D03*
%TD*%
D32*
%TO.P,C204,1*%
%TO.N,+3V3*%
X84000000Y-119162500D03*
%TO.P,C204,2*%
%TO.N,GND*%
X84960000Y-119162500D03*
%TD*%
D24*
%TO.P,R202,1*%
%TO.N,+3V3*%
X93000000Y-128922500D03*
%TO.P,R202,2*%
%TO.N,SPI2_NSS*%
X93000000Y-127902500D03*
%TD*%
D26*
%TO.P,C315,1*%
%TO.N,+3V3*%
X78025000Y-132900000D03*
%TO.P,C315,2*%
%TO.N,GND*%
X76475000Y-132900000D03*
%TD*%
D27*
%TO.P,C201,1*%
%TO.N,+3V3*%
X81200000Y-121220000D03*
%TO.P,C201,2*%
%TO.N,GND*%
X81200000Y-122180000D03*
%TD*%
D20*
%TO.P,R304,1*%
%TO.N,Net-(C305-Pad1)*%
X77750000Y-148440000D03*
%TO.P,R304,2*%
%TO.N,Net-(C303-Pad1)*%
X77750000Y-149460000D03*
%TD*%
D33*
%TO.P,J400,1,In*%
%TO.N,/DAC/OUT*%
X103000000Y-158560000D03*
D34*
%TO.P,J400,2,Ext*%
%TO.N,GND*%
X108080000Y-163640000D03*
D33*
X105600000Y-158560000D03*
D34*
X97920000Y-163640000D03*
%TD*%
D12*
%TO.P,C106,1*%
%TO.N,+3V3*%
X99130000Y-112850000D03*
%TO.P,C106,2*%
%TO.N,/Power/BUCK_FB*%
X98170000Y-112850000D03*
%TD*%
D13*
%TO.P,R206,1*%
%TO.N,/MCU/USB_CONN_CC2*%
X111440000Y-117260000D03*
%TO.P,R206,2*%
%TO.N,GND*%
X110420000Y-117260000D03*
%TD*%
D12*
%TO.P,C303,1*%
%TO.N,Net-(C303-Pad1)*%
X77750000Y-150450000D03*
%TO.P,C303,2*%
%TO.N,GND*%
X76790000Y-150450000D03*
%TD*%
D35*
%TO.P,U201,1,I/O1*%
%TO.N,/MCU/USB_CONN_D-*%
X104637500Y-123650000D03*
%TO.P,U201,2,GND*%
%TO.N,GND*%
X104637500Y-122700000D03*
%TO.P,U201,3,I/O2*%
%TO.N,/MCU/USB_CONN_D+*%
X104637500Y-121750000D03*
%TO.P,U201,4,I/O2*%
%TO.N,/MCU/USB_CMC_D+*%
X102362500Y-121750000D03*
%TO.P,U201,5,VBUS*%
%TO.N,VBUS*%
X102362500Y-122700000D03*
%TO.P,U201,6,I/O1*%
%TO.N,/MCU/USB_CMC_D-*%
X102362500Y-123650000D03*
%TD*%
D33*
%TO.P,J300,1,In*%
%TO.N,/ADC/IN*%
X78000000Y-158560000D03*
D34*
%TO.P,J300,2,Ext*%
%TO.N,GND*%
X83080000Y-163640000D03*
D33*
X80600000Y-158560000D03*
D34*
X72920000Y-163640000D03*
%TD*%
D32*
%TO.P,C305,1*%
%TO.N,Net-(C305-Pad1)*%
X78770000Y-148450000D03*
%TO.P,C305,2*%
%TO.N,/ADC/IN_AA_BUF_OUT*%
X79730000Y-148450000D03*
%TD*%
D36*
%TO.P,D100,1,K*%
%TO.N,/Power/LED_PWR_K*%
X105987500Y-114200000D03*
%TO.P,D100,2,A*%
%TO.N,+3V3*%
X104412500Y-114200000D03*
%TD*%
D13*
%TO.P,R201,1*%
%TO.N,/MCU/HSE_OUT*%
X75510000Y-125162500D03*
%TO.P,R201,2*%
%TO.N,/MCU/XTAL_IN*%
X74490000Y-125162500D03*
%TD*%
D11*
%TO.P,R103,1*%
%TO.N,GND*%
X104690000Y-115800000D03*
%TO.P,R103,2*%
%TO.N,/Power/LED_PWR_K*%
X105710000Y-115800000D03*
%TD*%
D16*
%TO.P,C200,1*%
%TO.N,+3V3*%
X79700000Y-120225000D03*
%TO.P,C200,2*%
%TO.N,GND*%
X79700000Y-121775000D03*
%TD*%
D17*
%TO.P,D203,1,A1*%
%TO.N,/MCU/CONN_SWCLK*%
X77000000Y-104950000D03*
%TO.P,D203,2,A2*%
%TO.N,GND*%
X77000000Y-107050000D03*
%TD*%
D13*
%TO.P,R300,1*%
%TO.N,/ADC/IN_RF*%
X76910000Y-152400000D03*
%TO.P,R300,2*%
%TO.N,/ADC/IN*%
X75890000Y-152400000D03*
%TD*%
D35*
%TO.P,U101,1,EN*%
%TO.N,+5V*%
X100037500Y-110050000D03*
%TO.P,U101,2,GND*%
%TO.N,GND*%
X100037500Y-109100000D03*
%TO.P,U101,3,SW*%
%TO.N,/Power/BUCK_SW*%
X100037500Y-108150000D03*
%TO.P,U101,4,VIN*%
%TO.N,+5V*%
X97762500Y-108150000D03*
%TO.P,U101,5,FB*%
%TO.N,/Power/BUCK_FB*%
X97762500Y-110050000D03*
%TD*%
D27*
%TO.P,C306,1*%
%TO.N,+3.3VA*%
X81250000Y-144970000D03*
%TO.P,C306,2*%
%TO.N,GND*%
X81250000Y-145930000D03*
%TD*%
D13*
%TO.P,R208,1*%
%TO.N,/MCU/TIM4_CH1*%
X71360000Y-117350000D03*
%TO.P,R208,2*%
%TO.N,/MCU/LED_G_K*%
X70340000Y-117350000D03*
%TD*%
D25*
%TO.P,C102,1*%
%TO.N,/Power/+5V_FILT*%
X92950000Y-140000000D03*
%TO.P,C102,2*%
%TO.N,GND*%
X91050000Y-140000000D03*
%TD*%
D32*
%TO.P,C212,1*%
%TO.N,/MCU/NRST*%
X86750000Y-114010000D03*
%TO.P,C212,2*%
%TO.N,GND*%
X87710000Y-114010000D03*
%TD*%
D13*
%TO.P,R213,1*%
%TO.N,/MCU/NRST*%
X85520000Y-114010000D03*
%TO.P,R213,2*%
%TO.N,/MCU/CONN_NRST*%
X84500000Y-114010000D03*
%TD*%
D32*
%TO.P,C307,1*%
%TO.N,/ADC/ADC_IN+*%
X78020000Y-142450000D03*
%TO.P,C307,2*%
%TO.N,/ADC/ADC_IN-*%
X78980000Y-142450000D03*
%TD*%
D23*
%TO.P,C206,1*%
%TO.N,VDDA*%
X79500000Y-126912500D03*
%TO.P,C206,2*%
%TO.N,GND*%
X79500000Y-125362500D03*
%TD*%
D20*
%TO.P,R306,1*%
%TO.N,/ADC/ADC_IN+*%
X77000000Y-142450000D03*
%TO.P,R306,2*%
%TO.N,/ADC/IN_AA_BUF_OUT*%
X77000000Y-143470000D03*
%TD*%
D12*
%TO.P,C401,1*%
%TO.N,+3V3*%
X101480000Y-134850000D03*
%TO.P,C401,2*%
%TO.N,GND*%
X100520000Y-134850000D03*
%TD*%
D11*
%TO.P,R401,1*%
%TO.N,/DAC/DAC_OUT_B*%
X101730000Y-143350000D03*
%TO.P,R401,2*%
%TO.N,GND*%
X102750000Y-143350000D03*
%TD*%
D10*
%TO.P,C406,1*%
%TO.N,+3.3VA*%
X99612500Y-150760000D03*
%TO.P,C406,2*%
%TO.N,GND*%
X99612500Y-149800000D03*
%TD*%
%TO.P,C210,1*%
%TO.N,VBUS*%
X103590000Y-120340000D03*
%TO.P,C210,2*%
%TO.N,GND*%
X103590000Y-119380000D03*
%TD*%
D37*
%TO.P,C103,1*%
%TO.N,+3.3VA*%
X88750000Y-145450000D03*
%TO.P,C103,2*%
%TO.N,GND*%
X88750000Y-143550000D03*
%TD*%
D24*
%TO.P,R403,1*%
%TO.N,Net-(C405-Pad1)*%
X103112500Y-147060000D03*
%TO.P,R403,2*%
%TO.N,Net-(C403-Pad1)*%
X103112500Y-146040000D03*
%TD*%
D19*
%TO.P,C104,1*%
%TO.N,+5V*%
X95650000Y-108150000D03*
%TO.P,C104,2*%
%TO.N,GND*%
X95650000Y-110050000D03*
%TD*%
D35*
%TO.P,U401,1*%
%TO.N,/DAC/OUT_AA_BUF_OUT*%
X103500000Y-150750000D03*
%TO.P,U401,2,V-*%
%TO.N,GND*%
X103500000Y-149800000D03*
%TO.P,U401,3,+*%
%TO.N,/DAC/OUT_AA_BUF_IN*%
X103500000Y-148850000D03*
%TO.P,U401,4,-*%
%TO.N,/DAC/OUT_AA_BUF_OUT*%
X101225000Y-148850000D03*
%TO.P,U401,5,V+*%
%TO.N,+3.3VA*%
X101225000Y-150750000D03*
%TD*%
D38*
%TO.P,U300,1*%
%TO.N,/ADC/IN_BUF_OUT*%
X83800000Y-149337500D03*
%TO.P,U300,2,V-*%
%TO.N,GND*%
X84750000Y-149337500D03*
%TO.P,U300,3,+*%
%TO.N,/ADC/IN_BUF*%
X85700000Y-149337500D03*
%TO.P,U300,4,-*%
%TO.N,/ADC/IN_BUF_OUT*%
X85700000Y-147062500D03*
%TO.P,U300,5,V+*%
%TO.N,+3.3VA*%
X83800000Y-147062500D03*
%TD*%
D39*
%TO.P,L201,1,1*%
%TO.N,/MCU/USB_CMC_D-*%
X100100000Y-123200000D03*
%TO.P,L201,2,2*%
%TO.N,/MCU/USB_CMC_D+*%
X100100000Y-122200000D03*
%TO.P,L201,3,3*%
%TO.N,/MCU/USB_D+*%
X97400000Y-122200000D03*
%TO.P,L201,4,4*%
%TO.N,/MCU/USB_D-*%
X97400000Y-123200000D03*
%TD*%
D40*
%TO.P,U400,1,VOUT_A*%
%TO.N,/DAC/DAC_OUT_A*%
X101000000Y-141000000D03*
%TO.P,U400,2,VOUT_B*%
%TO.N,/DAC/DAC_OUT_B*%
X101500000Y-141000000D03*
%TO.P,U400,3,GND*%
%TO.N,GND*%
X102000000Y-141000000D03*
%TO.P,U400,4,NLDAC*%
%TO.N,DAC_NLDAC*%
X102500000Y-141000000D03*
%TO.P,U400,5,NCLR*%
%TO.N,DAC_NCLR*%
X103000000Y-141000000D03*
%TO.P,U400,6,NSYNC*%
%TO.N,SPI2_NSS*%
X103000000Y-136700000D03*
%TO.P,U400,7,SCLK*%
%TO.N,/DAC/DAC_SCLK*%
X102500000Y-136700000D03*
%TO.P,U400,8,DIN*%
%TO.N,SPI2_MOSI*%
X102000000Y-136700000D03*
%TO.P,U400,9,AVDD*%
%TO.N,+3V3*%
X101500000Y-136700000D03*
%TO.P,U400,10,VREFIN/VREFOUT*%
%TO.N,/DAC/DAC_VREF*%
X101000000Y-136700000D03*
%TD*%
D41*
%TO.P,D200,1,RK*%
%TO.N,/MCU/LED_R_K*%
X68600000Y-115600000D03*
%TO.P,D200,2,GK*%
%TO.N,/MCU/LED_G_K*%
X68600000Y-118600000D03*
%TO.P,D200,3,BK*%
%TO.N,/MCU/LED_B_K*%
X67100000Y-118600000D03*
%TO.P,D200,4,A*%
%TO.N,+3V3*%
X67100000Y-115600000D03*
%TD*%
D11*
%TO.P,R104,1*%
%TO.N,/Power/VREF*%
X93480000Y-152000000D03*
%TO.P,R104,2*%
%TO.N,+3.3VA*%
X94500000Y-152000000D03*
%TD*%
D27*
%TO.P,C302,1*%
%TO.N,+3.3VA*%
X82250000Y-145970000D03*
%TO.P,C302,2*%
%TO.N,GND*%
X82250000Y-146930000D03*
%TD*%
D12*
%TO.P,C202,1*%
%TO.N,+3V3*%
X89960000Y-130912500D03*
%TO.P,C202,2*%
%TO.N,GND*%
X89000000Y-130912500D03*
%TD*%
D13*
%TO.P,R207,1*%
%TO.N,/MCU/TIM4_CH3*%
X71360000Y-115600000D03*
%TO.P,R207,2*%
%TO.N,/MCU/LED_R_K*%
X70340000Y-115600000D03*
%TD*%
D24*
%TO.P,R405,1*%
%TO.N,/DAC/OUT*%
X105250000Y-151860000D03*
%TO.P,R405,2*%
%TO.N,/DAC/OUT_AA_BUF_OUT*%
X105250000Y-150840000D03*
%TD*%
D16*
%TO.P,C100,1*%
%TO.N,VBUS*%
X102705000Y-127225000D03*
%TO.P,C100,2*%
%TO.N,GND*%
X102705000Y-128775000D03*
%TD*%
D42*
%TO.P,D202,1,A1*%
%TO.N,/MCU/CONN_SWDIO*%
X79550000Y-112260000D03*
%TO.P,D202,2,A2*%
%TO.N,GND*%
X77450000Y-112260000D03*
%TD*%
D12*
%TO.P,C208,1*%
%TO.N,/MCU/HSE_IN*%
X77500000Y-123912500D03*
%TO.P,C208,2*%
%TO.N,GND*%
X76540000Y-123912500D03*
%TD*%
D11*
%TO.P,R203,1*%
%TO.N,+3V3*%
X83540000Y-130912500D03*
%TO.P,R203,2*%
%TO.N,SPI1_NSS*%
X84560000Y-130912500D03*
%TD*%
D32*
%TO.P,C211,1*%
%TO.N,+3V3*%
X67120000Y-113600000D03*
%TO.P,C211,2*%
%TO.N,GND*%
X68080000Y-113600000D03*
%TD*%
D13*
%TO.P,R402,1*%
%TO.N,Net-(C403-Pad1)*%
X102122500Y-145050000D03*
%TO.P,R402,2*%
%TO.N,/DAC/DAC_OUT_A*%
X101102500Y-145050000D03*
%TD*%
D43*
%TO.P,J201,1,Pin_1*%
%TO.N,+3V3*%
X84540000Y-104810000D03*
%TO.P,J201,2,Pin_2*%
%TO.N,GND*%
X84540000Y-108710000D03*
%TO.P,J201,3,Pin_3*%
X83270000Y-104810000D03*
%TO.P,J201,4,Pin_4*%
%TO.N,unconnected-(J201-Pin_4-Pad4)*%
X83270000Y-108710000D03*
%TO.P,J201,5,Pin_5*%
%TO.N,GND*%
X82000000Y-104810000D03*
%TO.P,J201,6,Pin_6*%
%TO.N,/MCU/CONN_NRST*%
X82000000Y-108710000D03*
%TO.P,J201,7,Pin_7*%
%TO.N,unconnected-(J201-Pin_7-Pad7)*%
X80730000Y-104810000D03*
%TO.P,J201,8,Pin_8*%
%TO.N,/MCU/CONN_SWO*%
X80730000Y-108710000D03*
%TO.P,J201,9,Pin_9*%
%TO.N,/MCU/CONN_SWCLK*%
X79460000Y-104810000D03*
%TO.P,J201,10,Pin_10*%
%TO.N,/MCU/CONN_SWDIO*%
X79460000Y-108710000D03*
%TD*%
D20*
%TO.P,R301,1*%
%TO.N,GND*%
X81400000Y-151080000D03*
%TO.P,R301,2*%
%TO.N,/ADC/IN_RF*%
X81400000Y-152100000D03*
%TD*%
D26*
%TO.P,C402,1*%
%TO.N,/DAC/DAC_VREF*%
X99375000Y-136700000D03*
%TO.P,C402,2*%
%TO.N,GND*%
X97825000Y-136700000D03*
%TD*%
D44*
%TO.P,U302,1,IN*%
%TO.N,/ADC/ADC_VREF_VIN*%
X72437500Y-143200000D03*
%TO.P,U302,2,OUT*%
%TO.N,/ADC/ADC_VREF*%
X72437500Y-141300000D03*
%TO.P,U302,3,GND*%
%TO.N,GND*%
X70562500Y-142250000D03*
%TD*%
D11*
%TO.P,R102,1*%
%TO.N,GND*%
X95990000Y-111600000D03*
%TO.P,R102,2*%
%TO.N,/Power/BUCK_FB*%
X97010000Y-111600000D03*
%TD*%
D27*
%TO.P,C313,1*%
%TO.N,+3.3VA*%
X76250000Y-135940000D03*
%TO.P,C313,2*%
%TO.N,GND*%
X76250000Y-136900000D03*
%TD*%
D20*
%TO.P,R204,1*%
%TO.N,+3V3*%
X95840000Y-121310000D03*
%TO.P,R204,2*%
%TO.N,/MCU/USB_D+*%
X95840000Y-122330000D03*
%TD*%
D13*
%TO.P,R209,1*%
%TO.N,/MCU/TIM4_CH2*%
X71370000Y-119100000D03*
%TO.P,R209,2*%
%TO.N,/MCU/LED_B_K*%
X70350000Y-119100000D03*
%TD*%
D12*
%TO.P,C314,1*%
%TO.N,+3V3*%
X78230000Y-134400000D03*
%TO.P,C314,2*%
%TO.N,GND*%
X77270000Y-134400000D03*
%TD*%
D32*
%TO.P,C209,1*%
%TO.N,/MCU/XTAL_IN*%
X74520000Y-123912500D03*
%TO.P,C209,2*%
%TO.N,GND*%
X75480000Y-123912500D03*
%TD*%
D40*
%TO.P,U303,1,VREF*%
%TO.N,/ADC/ADC_VREF*%
X77750000Y-140300000D03*
%TO.P,U303,2,+IN*%
%TO.N,/ADC/ADC_IN+*%
X78250000Y-140300000D03*
%TO.P,U303,3,-IN*%
%TO.N,/ADC/ADC_IN-*%
X78750000Y-140300000D03*
%TO.P,U303,4,GND*%
%TO.N,GND*%
X79250000Y-140300000D03*
%TO.P,U303,5,GND*%
X79750000Y-140300000D03*
%TO.P,U303,6,NCS*%
%TO.N,SPI1_NSS*%
X79750000Y-136000000D03*
%TO.P,U303,7,DOUT*%
%TO.N,SPI1_MISO*%
X79250000Y-136000000D03*
%TO.P,U303,8,SCLK*%
%TO.N,/ADC/ADC_SCLK*%
X78750000Y-136000000D03*
%TO.P,U303,9,VIO*%
%TO.N,+3V3*%
X78250000Y-136000000D03*
%TO.P,U303,10,VA*%
%TO.N,+3.3VA*%
X77750000Y-136000000D03*
%TD*%
D10*
%TO.P,C304,1*%
%TO.N,/ADC/IN_AA_BUF_IN*%
X75750000Y-146930000D03*
%TO.P,C304,2*%
%TO.N,GND*%
X75750000Y-145970000D03*
%TD*%
D24*
%TO.P,R308,1*%
%TO.N,/ADC/ADC_VREF_VIN*%
X71250000Y-134760000D03*
%TO.P,R308,2*%
%TO.N,+5V*%
X71250000Y-133740000D03*
%TD*%
D13*
%TO.P,R205,1*%
%TO.N,/MCU/USB_CONN_CC1*%
X111610000Y-129280000D03*
%TO.P,R205,2*%
%TO.N,GND*%
X110590000Y-129280000D03*
%TD*%
D20*
%TO.P,R307,1*%
%TO.N,/ADC/ADC_IN-*%
X80000000Y-142440000D03*
%TO.P,R307,2*%
%TO.N,VCOM*%
X80000000Y-143460000D03*
%TD*%
D45*
%TO.P,U100,1,GND*%
%TO.N,GND*%
X90800000Y-142250000D03*
D46*
%TO.P,U100,2,VIN*%
%TO.N,/Power/+5V_FILT*%
X90887500Y-143750000D03*
D45*
%TO.P,U100,3,VOUT*%
%TO.N,+3.3VA*%
X90800000Y-145250000D03*
%TD*%
D47*
%TO.P,U102,1*%
%TO.N,VCOM*%
X91775000Y-148700000D03*
%TO.P,U102,2,V-*%
%TO.N,GND*%
X91775000Y-149650000D03*
%TO.P,U102,3,+*%
%TO.N,/Power/VREF*%
X91775000Y-150600000D03*
%TO.P,U102,4,-*%
%TO.N,VCOM*%
X94050000Y-150600000D03*
%TO.P,U102,5,V+*%
%TO.N,+3.3VA*%
X94050000Y-148700000D03*
%TD*%
D11*
%TO.P,R302,1*%
%TO.N,/ADC/IN_BUF*%
X85290000Y-151000000D03*
%TO.P,R302,2*%
%TO.N,VCOM*%
X86310000Y-151000000D03*
%TD*%
D47*
%TO.P,U301,1*%
%TO.N,/ADC/IN_AA_BUF_OUT*%
X77362500Y-145000000D03*
%TO.P,U301,2,V-*%
%TO.N,GND*%
X77362500Y-145950000D03*
%TO.P,U301,3,+*%
%TO.N,/ADC/IN_AA_BUF_IN*%
X77362500Y-146900000D03*
%TO.P,U301,4,-*%
%TO.N,/ADC/IN_AA_BUF_OUT*%
X79637500Y-146900000D03*
%TO.P,U301,5,V+*%
%TO.N,+3.3VA*%
X79637500Y-145000000D03*
%TD*%
D24*
%TO.P,R200,1*%
%TO.N,/MCU/BOOT0*%
X81400000Y-116510000D03*
%TO.P,R200,2*%
%TO.N,GND*%
X81400000Y-115490000D03*
%TD*%
D27*
%TO.P,C203,1*%
%TO.N,+3V3*%
X92800000Y-121520000D03*
%TO.P,C203,2*%
%TO.N,GND*%
X92800000Y-122480000D03*
%TD*%
D10*
%TO.P,C205,1*%
%TO.N,VDDA*%
X81000000Y-126392500D03*
%TO.P,C205,2*%
%TO.N,GND*%
X81000000Y-125432500D03*
%TD*%
D14*
%TO.P,D400,1,A1*%
%TO.N,/DAC/OUT*%
X102950000Y-154000000D03*
%TO.P,D400,2,A2*%
%TO.N,GND*%
X105050000Y-154000000D03*
%TD*%
D48*
%TO.P,U200,1,VBAT*%
%TO.N,+3V3*%
X82837500Y-122250000D03*
%TO.P,U200,2,PC13*%
%TO.N,unconnected-(U200-PC13-Pad2)*%
X82837500Y-122750000D03*
%TO.P,U200,3,PC14*%
%TO.N,unconnected-(U200-PC14-Pad3)*%
X82837500Y-123250000D03*
%TO.P,U200,4,PC15*%
%TO.N,unconnected-(U200-PC15-Pad4)*%
X82837500Y-123750000D03*
%TO.P,U200,5,PD0*%
%TO.N,/MCU/HSE_IN*%
X82837500Y-124250000D03*
%TO.P,U200,6,PD1*%
%TO.N,/MCU/HSE_OUT*%
X82837500Y-124750000D03*
%TO.P,U200,7,NRST*%
%TO.N,/MCU/NRST*%
X82837500Y-125250000D03*
%TO.P,U200,8,VSSA*%
%TO.N,GND*%
X82837500Y-125750000D03*
%TO.P,U200,9,VDDA*%
%TO.N,VDDA*%
X82837500Y-126250000D03*
%TO.P,U200,10,PA0*%
%TO.N,unconnected-(U200-PA0-Pad10)*%
X82837500Y-126750000D03*
%TO.P,U200,11,PA1*%
%TO.N,unconnected-(U200-PA1-Pad11)*%
X82837500Y-127250000D03*
%TO.P,U200,12,PA2*%
%TO.N,unconnected-(U200-PA2-Pad12)*%
X82837500Y-127750000D03*
D49*
%TO.P,U200,13,PA3*%
%TO.N,unconnected-(U200-PA3-Pad13)*%
X84250000Y-129162500D03*
%TO.P,U200,14,PA4*%
%TO.N,SPI1_NSS*%
X84750000Y-129162500D03*
%TO.P,U200,15,PA5*%
%TO.N,SPI1_SCK*%
X85250000Y-129162500D03*
%TO.P,U200,16,PA6*%
%TO.N,SPI1_MISO*%
X85750000Y-129162500D03*
%TO.P,U200,17,PA7*%
%TO.N,unconnected-(U200-PA7-Pad17)*%
X86250000Y-129162500D03*
%TO.P,U200,18,PB0*%
%TO.N,unconnected-(U200-PB0-Pad18)*%
X86750000Y-129162500D03*
%TO.P,U200,19,PB1*%
%TO.N,unconnected-(U200-PB1-Pad19)*%
X87250000Y-129162500D03*
%TO.P,U200,20,PB2*%
%TO.N,DAC_NCLR*%
X87750000Y-129162500D03*
%TO.P,U200,21,PB10*%
%TO.N,DAC_NLDAC*%
X88250000Y-129162500D03*
%TO.P,U200,22,PB11*%
%TO.N,unconnected-(U200-PB11-Pad22)*%
X88750000Y-129162500D03*
%TO.P,U200,23,VSS*%
%TO.N,GND*%
X89250000Y-129162500D03*
%TO.P,U200,24,VDD*%
%TO.N,+3V3*%
X89750000Y-129162500D03*
D48*
%TO.P,U200,25,PB12*%
%TO.N,SPI2_NSS*%
X91162500Y-127750000D03*
%TO.P,U200,26,PB13*%
%TO.N,SPI2_SCK*%
X91162500Y-127250000D03*
%TO.P,U200,27,PB14*%
%TO.N,unconnected-(U200-PB14-Pad27)*%
X91162500Y-126750000D03*
%TO.P,U200,28,PB15*%
%TO.N,SPI2_MOSI*%
X91162500Y-126250000D03*
%TO.P,U200,29,PA8*%
%TO.N,unconnected-(U200-PA8-Pad29)*%
X91162500Y-125750000D03*
%TO.P,U200,30,PA9*%
%TO.N,unconnected-(U200-PA9-Pad30)*%
X91162500Y-125250000D03*
%TO.P,U200,31,PA10*%
%TO.N,unconnected-(U200-PA10-Pad31)*%
X91162500Y-124750000D03*
%TO.P,U200,32,PA11*%
%TO.N,/MCU/USB_D-*%
X91162500Y-124250000D03*
%TO.P,U200,33,PA12*%
%TO.N,/MCU/USB_D+*%
X91162500Y-123750000D03*
%TO.P,U200,34,PA13*%
%TO.N,/MCU/SWDIO*%
X91162500Y-123250000D03*
%TO.P,U200,35,VSS*%
%TO.N,GND*%
X91162500Y-122750000D03*
%TO.P,U200,36,VDD*%
%TO.N,+3V3*%
X91162500Y-122250000D03*
D49*
%TO.P,U200,37,PA14*%
%TO.N,/MCU/SWCLK*%
X89750000Y-120837500D03*
%TO.P,U200,38,PA15*%
%TO.N,unconnected-(U200-PA15-Pad38)*%
X89250000Y-120837500D03*
%TO.P,U200,39,PB3*%
%TO.N,/MCU/SWO*%
X88750000Y-120837500D03*
%TO.P,U200,40,PB4*%
%TO.N,unconnected-(U200-PB4-Pad40)*%
X88250000Y-120837500D03*
%TO.P,U200,41,PB5*%
%TO.N,unconnected-(U200-PB5-Pad41)*%
X87750000Y-120837500D03*
%TO.P,U200,42,PB6*%
%TO.N,/MCU/TIM4_CH1*%
X87250000Y-120837500D03*
%TO.P,U200,43,PB7*%
%TO.N,/MCU/TIM4_CH2*%
X86750000Y-120837500D03*
%TO.P,U200,44,BOOT0*%
%TO.N,/MCU/BOOT0*%
X86250000Y-120837500D03*
%TO.P,U200,45,PB8*%
%TO.N,/MCU/TIM4_CH3*%
X85750000Y-120837500D03*
%TO.P,U200,46,PB9*%
%TO.N,unconnected-(U200-PB9-Pad46)*%
X85250000Y-120837500D03*
%TO.P,U200,47,VSS*%
%TO.N,GND*%
X84750000Y-120837500D03*
%TO.P,U200,48,VDD*%
%TO.N,+3V3*%
X84250000Y-120837500D03*
%TD*%
D14*
%TO.P,D204,1,A1*%
%TO.N,/MCU/CONN_SWO*%
X80950000Y-112260000D03*
%TO.P,D204,2,A2*%
%TO.N,GND*%
X83050000Y-112260000D03*
%TD*%
D26*
%TO.P,C308,1*%
%TO.N,+5V*%
X71275000Y-132500000D03*
%TO.P,C308,2*%
%TO.N,GND*%
X69725000Y-132500000D03*
%TD*%
D50*
%TO.P,L101,1,1*%
%TO.N,/Power/BUCK_SW*%
X97375000Y-104600000D03*
%TO.P,L101,2,2*%
%TO.N,+3V3*%
X100425000Y-104600000D03*
%TD*%
D21*
%TO.P,FID1,*%
%TO.N,*%
X70000000Y-111000000D03*
%TD*%
D10*
%TO.P,C311,1*%
%TO.N,/ADC/ADC_VREF*%
X76250000Y-140400000D03*
%TO.P,C311,2*%
%TO.N,GND*%
X76250000Y-139440000D03*
%TD*%
D11*
%TO.P,R105,1*%
%TO.N,GND*%
X91230000Y-152000000D03*
%TO.P,R105,2*%
%TO.N,/Power/VREF*%
X92250000Y-152000000D03*
%TD*%
D51*
%TO.N,*%
X37500000Y-107500000D03*
X117500000Y-115000000D03*
D52*
%TO.N,GND*%
X89300000Y-140100000D03*
X84800000Y-122200000D03*
D51*
X97500000Y-167500000D03*
X80000000Y-167500000D03*
X72500000Y-110000000D03*
X105000000Y-102500000D03*
D52*
X82000000Y-112400000D03*
X89400000Y-110900000D03*
D51*
X80000000Y-102500000D03*
X70000000Y-130000000D03*
D52*
X76800000Y-151400000D03*
D51*
X95000000Y-125000000D03*
X67500000Y-135000000D03*
D52*
X81800000Y-132400000D03*
D51*
X87500000Y-157500000D03*
X107500000Y-137500000D03*
D52*
X109760000Y-129325000D03*
X96550000Y-136700000D03*
X105608440Y-122688934D03*
D51*
X95000000Y-162500000D03*
X92500000Y-107500000D03*
D52*
X85600000Y-143300000D03*
D51*
X112500000Y-140000000D03*
X70000000Y-167500000D03*
X67500000Y-167500000D03*
X105000000Y-167500000D03*
D52*
X90500000Y-152500000D03*
D51*
X67500000Y-157500000D03*
X112500000Y-145000000D03*
D52*
X78400000Y-112300000D03*
X87600000Y-115400000D03*
X75900000Y-144900000D03*
D51*
X110000000Y-140000000D03*
D52*
X106770000Y-118890000D03*
D51*
X97500000Y-145000000D03*
D52*
X82000000Y-102800000D03*
X104400000Y-138900000D03*
X88000000Y-142000000D03*
D51*
X105000000Y-130000000D03*
X75000000Y-110000000D03*
X105000000Y-105000000D03*
D52*
X75300000Y-138200000D03*
X81000000Y-140400000D03*
D51*
X105000000Y-142500000D03*
X105000000Y-135000000D03*
X102500000Y-165000000D03*
X77500000Y-165000000D03*
X82500000Y-155000000D03*
D52*
X89600000Y-122800000D03*
D51*
X72500000Y-130000000D03*
D52*
X104900000Y-150000000D03*
D51*
X90000000Y-102500000D03*
X85000000Y-155000000D03*
X97500000Y-155000000D03*
X97500000Y-127500000D03*
X92500000Y-157500000D03*
D52*
X81900000Y-130200000D03*
D51*
X107500000Y-142500000D03*
X102500000Y-167500000D03*
D52*
X82300000Y-144300000D03*
X80400000Y-115500000D03*
D51*
X107500000Y-110000000D03*
D52*
X98800000Y-109200000D03*
D51*
X87500000Y-102500000D03*
X102500000Y-162500000D03*
D52*
X102200000Y-111000000D03*
X82200000Y-147800000D03*
D51*
X112500000Y-167500000D03*
X110000000Y-160000000D03*
X70000000Y-125000000D03*
X97500000Y-160000000D03*
D52*
X77200000Y-154000000D03*
D51*
X97500000Y-117500000D03*
X112500000Y-157500000D03*
X112500000Y-135000000D03*
X75000000Y-167500000D03*
X95000000Y-165000000D03*
D52*
X85600000Y-112200000D03*
X76118323Y-123420286D03*
X90300000Y-136400000D03*
D51*
X67500000Y-145000000D03*
X107500000Y-167500000D03*
X77500000Y-102500000D03*
D52*
X76760000Y-125530000D03*
D51*
X112500000Y-132500000D03*
X70000000Y-137500000D03*
X82500000Y-160000000D03*
D52*
X74600000Y-146000000D03*
X92763262Y-135095588D03*
X87200000Y-141500000D03*
X80900000Y-122900000D03*
D51*
X70000000Y-127500000D03*
D52*
X100900000Y-130170000D03*
X106440000Y-126830000D03*
D51*
X110000000Y-115000000D03*
D52*
X71700000Y-136600000D03*
D51*
X110000000Y-137500000D03*
X112500000Y-137500000D03*
X77500000Y-162500000D03*
D52*
X106700000Y-119720000D03*
X75990000Y-127870000D03*
D51*
X107500000Y-155000000D03*
X105000000Y-127500000D03*
X72500000Y-167500000D03*
D52*
X85257722Y-115142278D03*
X83700000Y-133800000D03*
D51*
X105000000Y-137500000D03*
D52*
X70000000Y-143200000D03*
D51*
X75000000Y-102500000D03*
D52*
X76600000Y-109600000D03*
D51*
X70000000Y-140000000D03*
X100000000Y-155000000D03*
D52*
X68300000Y-132500000D03*
D51*
X95000000Y-160000000D03*
D52*
X95000000Y-111400497D03*
D51*
X72500000Y-122500000D03*
X75000000Y-157500000D03*
X70000000Y-157500000D03*
D52*
X82000000Y-150200000D03*
D51*
X75000000Y-155000000D03*
D52*
X84200000Y-150600000D03*
D51*
X112500000Y-130000000D03*
X87500000Y-162500000D03*
X80000000Y-162500000D03*
X100000000Y-145000000D03*
X70000000Y-155000000D03*
X107500000Y-112500000D03*
X72500000Y-127500000D03*
D52*
X96800000Y-109000000D03*
D51*
X105000000Y-165000000D03*
D52*
X84600000Y-110600000D03*
D51*
X100000000Y-142500000D03*
X110000000Y-167500000D03*
D52*
X103610000Y-118570000D03*
D51*
X67500000Y-165000000D03*
X97500000Y-142500000D03*
X100000000Y-152500000D03*
D52*
X88300000Y-114800000D03*
X92800000Y-132700000D03*
X68940000Y-113600000D03*
X81500000Y-118539555D03*
D51*
X70000000Y-122500000D03*
X85000000Y-142500000D03*
X110000000Y-132500000D03*
D52*
X89000000Y-141800000D03*
D51*
X82500000Y-140000000D03*
X95000000Y-167500000D03*
X97500000Y-115000000D03*
D52*
X102300000Y-142400000D03*
D51*
X72500000Y-125000000D03*
X107500000Y-140000000D03*
X97500000Y-152500000D03*
X102500000Y-152500000D03*
D52*
X103600000Y-143400000D03*
D51*
X105000000Y-162500000D03*
D52*
X70000000Y-144000000D03*
D51*
X87500000Y-127500000D03*
X77500000Y-167500000D03*
D52*
X73400000Y-120600000D03*
X75400000Y-132800000D03*
D51*
X67500000Y-110000000D03*
X107500000Y-157500000D03*
X72500000Y-155000000D03*
D52*
X99500000Y-119700000D03*
X79700000Y-122900000D03*
X88600000Y-114000000D03*
D51*
X112500000Y-112500000D03*
X102500000Y-117500000D03*
D52*
X76200000Y-134400000D03*
X89200000Y-127800000D03*
D51*
X107500000Y-145000000D03*
D52*
X83200000Y-102800000D03*
X105200000Y-145000000D03*
X97400000Y-125300000D03*
D51*
X107500000Y-117500000D03*
X110000000Y-135000000D03*
X87500000Y-165000000D03*
D52*
X76100000Y-138200000D03*
D51*
X100000000Y-167500000D03*
D52*
X87600000Y-140300000D03*
D51*
X112500000Y-160000000D03*
X110000000Y-157500000D03*
X95000000Y-157500000D03*
D52*
X103500000Y-115800000D03*
D51*
X107500000Y-130000000D03*
X80000000Y-155000000D03*
D52*
X96700000Y-135300000D03*
D51*
X85000000Y-157500000D03*
D52*
X81200000Y-147100000D03*
D51*
X87500000Y-167500000D03*
D52*
X87000000Y-106000000D03*
D51*
X112500000Y-115000000D03*
D52*
X83400000Y-116600000D03*
D51*
X85000000Y-102500000D03*
X107500000Y-160000000D03*
X67500000Y-162500000D03*
X112500000Y-165000000D03*
X112500000Y-110000000D03*
D52*
X109300000Y-117300000D03*
D51*
X67500000Y-160000000D03*
D52*
X77000000Y-106100000D03*
D51*
X87500000Y-160000000D03*
X95000000Y-105000000D03*
D52*
X90400000Y-149700000D03*
D51*
X67500000Y-127500000D03*
X92500000Y-110000000D03*
D52*
X106200000Y-148900000D03*
D51*
X67500000Y-122500000D03*
X92500000Y-112500000D03*
X67500000Y-155000000D03*
X100000000Y-160000000D03*
X92500000Y-167500000D03*
D52*
X88500000Y-117500000D03*
X101810000Y-130160000D03*
X73900000Y-133500000D03*
X75960000Y-127010000D03*
D51*
X87500000Y-125000000D03*
X87500000Y-155000000D03*
X112500000Y-155000000D03*
X85000000Y-167500000D03*
X67500000Y-130000000D03*
X92500000Y-117500000D03*
X85000000Y-160000000D03*
X90000000Y-157500000D03*
X110000000Y-155000000D03*
D52*
X89800000Y-141100000D03*
D51*
X80000000Y-165000000D03*
X97500000Y-157500000D03*
D52*
X95000000Y-112200000D03*
D51*
X100000000Y-157500000D03*
X75000000Y-160000000D03*
D52*
X79300000Y-138900000D03*
D51*
X107500000Y-132500000D03*
D52*
X100500000Y-112000000D03*
D51*
X112500000Y-162500000D03*
X70000000Y-160000000D03*
D52*
X104600000Y-107300000D03*
D51*
X112500000Y-142500000D03*
D52*
X96600000Y-149793116D03*
D51*
X87500000Y-152500000D03*
X97500000Y-140000000D03*
D52*
X100600000Y-149800000D03*
D51*
X82500000Y-157500000D03*
X100000000Y-147500000D03*
D52*
X99400000Y-134600000D03*
D51*
X95000000Y-155000000D03*
X92500000Y-105000000D03*
X107500000Y-115000000D03*
D52*
X76160000Y-126150000D03*
D51*
X72500000Y-157500000D03*
X90000000Y-167500000D03*
X107500000Y-135000000D03*
X82500000Y-167500000D03*
X85000000Y-140000000D03*
D52*
X104200000Y-154000000D03*
D51*
X72500000Y-160000000D03*
X67500000Y-125000000D03*
D52*
X106490000Y-128440000D03*
%TO.N,+5V*%
X73300000Y-134200000D03*
X98500000Y-124800000D03*
X91400000Y-136300000D03*
D51*
X82500000Y-137500000D03*
X87500000Y-137500000D03*
D52*
X95800000Y-135300000D03*
X98500000Y-120300000D03*
%TO.N,+3.3VA*%
X85600000Y-144200000D03*
X72600000Y-136600000D03*
X83200000Y-144300000D03*
%TO.N,+3V3*%
X78000000Y-131900000D03*
X82400000Y-131000000D03*
X100000000Y-112800000D03*
X101500000Y-132100000D03*
X100400000Y-101900000D03*
X78600000Y-119400000D03*
X104200000Y-108200000D03*
X77900000Y-129400000D03*
X95800000Y-120200000D03*
X91500000Y-120500000D03*
X92300000Y-130700000D03*
X91250000Y-132350000D03*
X67400000Y-112700000D03*
X89200000Y-104900000D03*
X83000000Y-119900000D03*
%TO.N,/MCU/NRST*%
X84800000Y-125250338D03*
X86700000Y-115488360D03*
%TO.N,/MCU/BOOT0*%
X82500000Y-116500000D03*
X82500000Y-118600000D03*
%TO.N,SPI1_NSS*%
X82780000Y-134290000D03*
X82800000Y-132400000D03*
%TO.N,/MCU/TIM4_CH3*%
X74900000Y-115800000D03*
X74900000Y-118700000D03*
%TO.N,/MCU/SWDIO*%
X85915455Y-116184545D03*
X82980899Y-115219101D03*
%TO.N,/MCU/SWCLK*%
X89400000Y-112100000D03*
X77500000Y-109100000D03*
X89200000Y-118200000D03*
X89200000Y-115300000D03*
%TO.N,SPI2_SCK*%
X92900000Y-127000000D03*
X103900000Y-131500000D03*
%TO.N,DAC_NCLR*%
X93397025Y-134399403D03*
X103500000Y-139300000D03*
%TO.N,DAC_NLDAC*%
X103500000Y-138400000D03*
X93410445Y-133500000D03*
%TD*%
D53*
%TO.N,VBUS*%
X103520000Y-122500000D02*
X103520000Y-124180000D01*
D54*
X103510000Y-125750000D02*
X103510000Y-124190000D01*
X103590000Y-120340000D02*
X104050000Y-120800000D01*
D53*
X103510000Y-122700000D02*
X103510000Y-121200000D01*
D54*
X107905000Y-125750000D02*
X107955000Y-125700000D01*
D53*
X103510000Y-121200000D02*
X103590000Y-121120000D01*
X102362500Y-122700000D02*
X103510000Y-122700000D01*
D54*
X103510000Y-124190000D02*
X103520000Y-124180000D01*
X102190000Y-125750000D02*
X103510000Y-125750000D01*
D53*
X103510000Y-121200000D02*
X103520000Y-121190000D01*
D54*
X103510000Y-125750000D02*
X107905000Y-125750000D01*
X104050000Y-120800000D02*
X107955000Y-120800000D01*
X103590000Y-120340000D02*
X103590000Y-121120000D01*
D53*
X103520000Y-121190000D02*
X103520000Y-122500000D01*
D55*
%TO.N,GND*%
X89250000Y-129162500D02*
X89250000Y-130662500D01*
D54*
X85660000Y-112260000D02*
X85600000Y-112200000D01*
D53*
X76118323Y-123420286D02*
X75626109Y-123912500D01*
D54*
X82000000Y-104810000D02*
X82000000Y-102800000D01*
D55*
X70975000Y-144975000D02*
X70000000Y-144000000D01*
X99612500Y-149800000D02*
X100600000Y-149800000D01*
X78050000Y-154000000D02*
X77200000Y-154000000D01*
D53*
X81390000Y-115500000D02*
X81400000Y-115490000D01*
D55*
X95783116Y-149793116D02*
X95740000Y-149750000D01*
X91162500Y-122750000D02*
X89650000Y-122750000D01*
X70975000Y-145000000D02*
X70975000Y-144975000D01*
D54*
X76790000Y-151390000D02*
X76800000Y-151400000D01*
X110590000Y-129280000D02*
X109805000Y-129280000D01*
D55*
X91725000Y-149700000D02*
X91775000Y-149650000D01*
D54*
X81200000Y-122600000D02*
X80900000Y-122900000D01*
X75900000Y-145048528D02*
X76801472Y-145950000D01*
X76801472Y-145950000D02*
X77362500Y-145950000D01*
X75900000Y-144900000D02*
X75900000Y-145048528D01*
D55*
X81317500Y-125750000D02*
X81000000Y-125432500D01*
X102750000Y-143350000D02*
X103550000Y-143350000D01*
D54*
X79700000Y-121775000D02*
X79700000Y-122900000D01*
D55*
X104700000Y-149800000D02*
X104900000Y-150000000D01*
D53*
X78360000Y-112260000D02*
X78400000Y-112300000D01*
D55*
X74815000Y-139440000D02*
X74500000Y-139125000D01*
D53*
X105920000Y-149180000D02*
X106200000Y-148900000D01*
X84750000Y-150050000D02*
X84200000Y-150600000D01*
D54*
X87000000Y-107050000D02*
X87000000Y-106000000D01*
D53*
X77000000Y-107050000D02*
X77000000Y-106100000D01*
D55*
X104690000Y-115800000D02*
X103500000Y-115800000D01*
D54*
X109805000Y-129280000D02*
X109760000Y-129325000D01*
D53*
X75750000Y-123788609D02*
X75750000Y-123912500D01*
D54*
X75050000Y-120712500D02*
X73512500Y-120712500D01*
D53*
X79250000Y-140300000D02*
X79250000Y-138950000D01*
D54*
X83270000Y-102870000D02*
X83200000Y-102800000D01*
D55*
X75500000Y-132900000D02*
X75400000Y-132800000D01*
X90400000Y-149700000D02*
X91725000Y-149700000D01*
X77270000Y-134400000D02*
X76200000Y-134400000D01*
X70000000Y-142812500D02*
X70000000Y-143200000D01*
D54*
X97825000Y-136700000D02*
X96550000Y-136700000D01*
D55*
X89250000Y-129162500D02*
X89250000Y-127850000D01*
X84750000Y-122150000D02*
X84800000Y-122200000D01*
D53*
X81200000Y-147100000D02*
X81250000Y-147050000D01*
D54*
X69725000Y-132500000D02*
X68300000Y-132500000D01*
D55*
X81357500Y-122250000D02*
X81250000Y-122142500D01*
D54*
X86550000Y-112260000D02*
X85660000Y-112260000D01*
X84540000Y-108710000D02*
X84540000Y-110540000D01*
D55*
X79750000Y-140300000D02*
X80900000Y-140300000D01*
X82000000Y-151110000D02*
X81430000Y-151110000D01*
D53*
X110420000Y-117260000D02*
X109340000Y-117260000D01*
D56*
X107955000Y-120000000D02*
X106980000Y-120000000D01*
D55*
X82400000Y-151110000D02*
X82000000Y-151110000D01*
D53*
X80400000Y-115500000D02*
X81390000Y-115500000D01*
X75612500Y-123912500D02*
X75600000Y-123900000D01*
D54*
X75750000Y-145970000D02*
X74630000Y-145970000D01*
X83050000Y-112260000D02*
X82140000Y-112260000D01*
D55*
X89650000Y-122750000D02*
X89600000Y-122800000D01*
X70562500Y-142250000D02*
X70562500Y-144587500D01*
X82250000Y-147750000D02*
X82200000Y-147800000D01*
X92530000Y-122750000D02*
X92800000Y-122480000D01*
D53*
X84750000Y-149337500D02*
X84750000Y-150050000D01*
X76118323Y-123420286D02*
X75750000Y-123788609D01*
D55*
X103590000Y-119380000D02*
X103590000Y-118590000D01*
X82250000Y-146930000D02*
X82250000Y-147750000D01*
D53*
X75600000Y-123900000D02*
X75587500Y-123912500D01*
D55*
X89250000Y-130662500D02*
X89000000Y-130912500D01*
X82837500Y-125750000D02*
X81317500Y-125750000D01*
X84750000Y-120837500D02*
X84750000Y-122150000D01*
X82000000Y-151110000D02*
X82000000Y-150200000D01*
D53*
X109340000Y-117260000D02*
X109300000Y-117300000D01*
D54*
X76790000Y-150450000D02*
X76790000Y-151390000D01*
D55*
X105050000Y-154000000D02*
X104200000Y-154000000D01*
X102000000Y-141000000D02*
X102000000Y-142100000D01*
D54*
X83270000Y-104810000D02*
X83270000Y-102870000D01*
X81200000Y-122180000D02*
X81200000Y-122600000D01*
X82140000Y-112260000D02*
X82000000Y-112400000D01*
D53*
X77450000Y-112260000D02*
X78360000Y-112260000D01*
D55*
X70562500Y-142250000D02*
X70000000Y-142812500D01*
X89250000Y-127850000D02*
X89200000Y-127800000D01*
D53*
X81250000Y-147050000D02*
X81250000Y-145930000D01*
D55*
X105597374Y-122700000D02*
X105608440Y-122688934D01*
X84750000Y-120837500D02*
X84750000Y-119372500D01*
X103590000Y-118590000D02*
X103610000Y-118570000D01*
X80900000Y-140300000D02*
X81000000Y-140400000D01*
X84750000Y-119372500D02*
X84960000Y-119162500D01*
D56*
X106980000Y-120000000D02*
X106700000Y-119720000D01*
D55*
X70562500Y-144587500D02*
X70975000Y-145000000D01*
D53*
X79250000Y-138950000D02*
X79300000Y-138900000D01*
D54*
X87710000Y-114010000D02*
X88590000Y-114010000D01*
X74630000Y-145970000D02*
X74600000Y-146000000D01*
D55*
X104092500Y-145050000D02*
X105150000Y-145050000D01*
D53*
X75587500Y-123912500D02*
X75480000Y-123912500D01*
D54*
X84540000Y-110540000D02*
X84600000Y-110600000D01*
X88590000Y-114010000D02*
X88600000Y-114000000D01*
D53*
X105100000Y-149180000D02*
X105920000Y-149180000D01*
D55*
X102000000Y-142100000D02*
X102300000Y-142400000D01*
D54*
X73512500Y-120712500D02*
X73400000Y-120600000D01*
D55*
X105150000Y-145050000D02*
X105200000Y-145000000D01*
D53*
X75626109Y-123912500D02*
X75612500Y-123912500D01*
D55*
X104637500Y-122700000D02*
X105597374Y-122700000D01*
X91162500Y-122750000D02*
X92530000Y-122750000D01*
X96600000Y-149793116D02*
X95783116Y-149793116D01*
X103550000Y-143350000D02*
X103600000Y-143400000D01*
D54*
X68080000Y-113600000D02*
X68940000Y-113600000D01*
D55*
X103500000Y-149800000D02*
X104700000Y-149800000D01*
X81430000Y-151110000D02*
X81400000Y-151080000D01*
X76475000Y-132900000D02*
X75500000Y-132900000D01*
D53*
%TO.N,+5V*%
X101196685Y-116503315D02*
X97950000Y-119750000D01*
D54*
X97950000Y-119750000D02*
X98500000Y-120300000D01*
X71250000Y-132525000D02*
X71275000Y-132500000D01*
X101220000Y-125750000D02*
X99450000Y-125750000D01*
X100705000Y-127225000D02*
X95800000Y-132130000D01*
X71275000Y-132500000D02*
X71600000Y-132500000D01*
X93650000Y-108150000D02*
X93500000Y-108300000D01*
D53*
X100037500Y-110050000D02*
X101196685Y-111209185D01*
D54*
X93500000Y-108300000D02*
X93500000Y-115300000D01*
X95650000Y-108150000D02*
X93650000Y-108150000D01*
D53*
X101196685Y-111209185D02*
X101196685Y-116503315D01*
D54*
X99450000Y-125750000D02*
X98500000Y-124800000D01*
X71600000Y-132500000D02*
X73300000Y-134200000D01*
X71250000Y-133740000D02*
X71250000Y-132525000D01*
X92712500Y-136300000D02*
X92750000Y-136337500D01*
X95800000Y-132130000D02*
X95800000Y-135300000D01*
X91400000Y-136300000D02*
X92712500Y-136300000D01*
X93500000Y-115300000D02*
X97950000Y-119750000D01*
%TO.N,+3.3VA*%
X99302500Y-150760000D02*
X99612500Y-150760000D01*
X75935000Y-135625000D02*
X76250000Y-135940000D01*
X74500000Y-135625000D02*
X75935000Y-135625000D01*
X79667500Y-144970000D02*
X79637500Y-145000000D01*
X94050000Y-148700000D02*
X95650000Y-148700000D01*
X81560000Y-144970000D02*
X82250000Y-145660000D01*
X88750000Y-145450000D02*
X88750000Y-146610000D01*
X72600000Y-136600000D02*
X73575000Y-135625000D01*
X82707500Y-145970000D02*
X82250000Y-145970000D01*
X83800000Y-147062500D02*
X82707500Y-145970000D01*
X81250000Y-144970000D02*
X79667500Y-144970000D01*
D53*
X101225000Y-150750000D02*
X99622500Y-150750000D01*
X99622500Y-150750000D02*
X99612500Y-150760000D01*
D54*
X98020000Y-149504487D02*
X95524487Y-152000000D01*
X94210000Y-146990000D02*
X96750000Y-146990000D01*
X83200000Y-144300000D02*
X83200000Y-145020000D01*
X98020000Y-149477500D02*
X98020000Y-149504487D01*
X94210000Y-146990000D02*
X95740000Y-148520000D01*
X96750000Y-146990000D02*
X98020000Y-148260000D01*
X98020000Y-149477500D02*
X99302500Y-150760000D01*
X82250000Y-145660000D02*
X82250000Y-145970000D01*
X73575000Y-135625000D02*
X74500000Y-135625000D01*
X88750000Y-145450000D02*
X86850000Y-145450000D01*
X83200000Y-145020000D02*
X82250000Y-145970000D01*
X95740000Y-148520000D02*
X95740000Y-148790000D01*
X89130000Y-146990000D02*
X94210000Y-146990000D01*
X86850000Y-145450000D02*
X85600000Y-144200000D01*
X88750000Y-146610000D02*
X89130000Y-146990000D01*
X95650000Y-148700000D02*
X95740000Y-148790000D01*
X95524487Y-152000000D02*
X94500000Y-152000000D01*
X81250000Y-144970000D02*
X81560000Y-144970000D01*
X98020000Y-148260000D02*
X98020000Y-149477500D01*
X76250000Y-135940000D02*
X77600000Y-135940000D01*
%TO.N,+3V3*%
X77750000Y-126937500D02*
X77750000Y-128132500D01*
D53*
X91892500Y-121520000D02*
X92800000Y-121520000D01*
X86860000Y-104810000D02*
X87000000Y-104950000D01*
D54*
X89200000Y-104900000D02*
X87050000Y-104900000D01*
X83452500Y-131000000D02*
X83540000Y-130912500D01*
X83000000Y-119900000D02*
X83262500Y-119900000D01*
X78875000Y-119400000D02*
X79700000Y-120225000D01*
D55*
X89750000Y-130702500D02*
X89960000Y-130912500D01*
D54*
X78000000Y-132875000D02*
X78025000Y-132900000D01*
X77900000Y-128542500D02*
X78030000Y-128412500D01*
X93000000Y-128922500D02*
X93000000Y-130000000D01*
X91500000Y-120500000D02*
X91780000Y-120500000D01*
X81200000Y-121220000D02*
X81907500Y-121220000D01*
X78025000Y-134195000D02*
X78230000Y-134400000D01*
X95800000Y-121270000D02*
X95840000Y-121310000D01*
X77750000Y-128132500D02*
X78030000Y-128412500D01*
D55*
X84250000Y-119412500D02*
X84000000Y-119162500D01*
D54*
X80205000Y-120225000D02*
X81200000Y-121220000D01*
D53*
X99130000Y-112850000D02*
X99130000Y-111680000D01*
D54*
X95800000Y-120200000D02*
X95800000Y-121270000D01*
X79700000Y-120225000D02*
X80205000Y-120225000D01*
X78000000Y-131900000D02*
X78000000Y-132875000D01*
X81907500Y-121220000D02*
X82837500Y-122150000D01*
X78025000Y-132900000D02*
X78025000Y-134195000D01*
D53*
X104412500Y-108412500D02*
X104412500Y-114200000D01*
D54*
X83262500Y-119900000D02*
X84000000Y-119162500D01*
D53*
X102200000Y-108200000D02*
X102150000Y-108150000D01*
X99130000Y-111680000D02*
X99210000Y-111600000D01*
D54*
X100425000Y-101925000D02*
X100400000Y-101900000D01*
X101500000Y-132100000D02*
X101500000Y-133350000D01*
X100425000Y-104600000D02*
X100425000Y-101925000D01*
D53*
X104200000Y-108200000D02*
X102200000Y-108200000D01*
D54*
X93000000Y-130000000D02*
X92300000Y-130700000D01*
X87050000Y-104900000D02*
X87000000Y-104950000D01*
D53*
X99130000Y-112850000D02*
X99950000Y-112850000D01*
D54*
X67400000Y-112700000D02*
X67120000Y-112980000D01*
X82400000Y-131000000D02*
X83452500Y-131000000D01*
X91780000Y-120500000D02*
X92800000Y-121520000D01*
X67120000Y-112980000D02*
X67120000Y-113600000D01*
D53*
X84540000Y-104810000D02*
X86860000Y-104810000D01*
D55*
X84250000Y-120837500D02*
X84250000Y-119412500D01*
X89750000Y-129162500D02*
X89750000Y-130702500D01*
D54*
X77900000Y-129400000D02*
X77900000Y-128542500D01*
X67120000Y-115580000D02*
X67100000Y-115600000D01*
D53*
X91162500Y-122250000D02*
X91892500Y-121520000D01*
D54*
X78600000Y-119400000D02*
X78875000Y-119400000D01*
X67120000Y-113600000D02*
X67120000Y-115580000D01*
D53*
X99950000Y-112850000D02*
X100000000Y-112800000D01*
X104200000Y-108200000D02*
X104412500Y-108412500D01*
X78250000Y-136000000D02*
X78250000Y-134420000D01*
X78250000Y-134420000D02*
X78230000Y-134400000D01*
D55*
X89960000Y-131060000D02*
X91250000Y-132350000D01*
X89960000Y-130912500D02*
X89960000Y-131060000D01*
D53*
%TO.N,/Power/BUCK_FB*%
X98190000Y-111600000D02*
X98190000Y-112830000D01*
X97762500Y-111537500D02*
X97700000Y-111600000D01*
X97010000Y-111600000D02*
X97700000Y-111600000D01*
X98190000Y-112830000D02*
X98170000Y-112850000D01*
X97762500Y-110050000D02*
X97762500Y-111537500D01*
X97700000Y-111600000D02*
X98190000Y-111600000D01*
D55*
%TO.N,VDDA*%
X81142500Y-126250000D02*
X81000000Y-126392500D01*
X82837500Y-126250000D02*
X81142500Y-126250000D01*
D53*
%TO.N,/MCU/HSE_IN*%
X78053315Y-123359185D02*
X78093603Y-123359185D01*
X78400000Y-123052788D02*
X78400000Y-121000000D01*
X78400000Y-121000000D02*
X78112500Y-120712500D01*
X78400000Y-123600000D02*
X78087500Y-123912500D01*
X82837500Y-124250000D02*
X81947730Y-124250000D01*
X81947730Y-124250000D02*
X81297730Y-123600000D01*
X77500000Y-123912500D02*
X78053315Y-123359185D01*
X81297730Y-123600000D02*
X78400000Y-123600000D01*
X78112500Y-120712500D02*
X77250000Y-120712500D01*
X78087500Y-123912500D02*
X77500000Y-123912500D01*
X78093603Y-123359185D02*
X78400000Y-123052788D01*
%TO.N,/MCU/XTAL_IN*%
X74490000Y-123942500D02*
X74520000Y-123912500D01*
X74520000Y-122942500D02*
X75050000Y-122412500D01*
X74490000Y-125162500D02*
X74490000Y-123942500D01*
X74520000Y-123912500D02*
X74520000Y-122942500D01*
%TO.N,/MCU/NRST*%
X86750000Y-114010000D02*
X85520000Y-114010000D01*
X82837838Y-125250338D02*
X82837500Y-125250000D01*
X84800000Y-125250338D02*
X82837838Y-125250338D01*
X86700000Y-115600000D02*
X86700000Y-115488360D01*
X85520000Y-114010000D02*
X85520000Y-114420000D01*
X85520000Y-114420000D02*
X86700000Y-115600000D01*
%TO.N,/ADC/IN_RF*%
X81100000Y-152400000D02*
X81400000Y-152100000D01*
X82400000Y-152070000D02*
X83400000Y-152070000D01*
X81400000Y-152100000D02*
X82370000Y-152100000D01*
X83400000Y-152070000D02*
X83420000Y-152090000D01*
X76910000Y-152400000D02*
X81100000Y-152400000D01*
X82370000Y-152100000D02*
X82400000Y-152070000D01*
%TO.N,/ADC/IN_BUF*%
X85700000Y-150590000D02*
X85290000Y-151000000D01*
X84380000Y-152090000D02*
X84380000Y-151910000D01*
X85700000Y-149337500D02*
X85700000Y-150590000D01*
X84380000Y-151910000D02*
X85290000Y-151000000D01*
%TO.N,Net-(C303-Pad1)*%
X77750000Y-149460000D02*
X77750000Y-150450000D01*
X78740000Y-150450000D02*
X77750000Y-150450000D01*
%TO.N,/ADC/IN_AA_BUF_IN*%
X75780000Y-146900000D02*
X75750000Y-146930000D01*
X75740000Y-148450000D02*
X75740000Y-146940000D01*
X77362500Y-146900000D02*
X75780000Y-146900000D01*
X75740000Y-146940000D02*
X75750000Y-146930000D01*
%TO.N,Net-(C305-Pad1)*%
X78770000Y-148450000D02*
X76760000Y-148450000D01*
%TO.N,/ADC/IN_AA_BUF_OUT*%
X79730000Y-146992500D02*
X79637500Y-146900000D01*
X77362500Y-143832500D02*
X77000000Y-143470000D01*
X79730000Y-148450000D02*
X79730000Y-146992500D01*
X79637500Y-146589408D02*
X78048092Y-145000000D01*
X77362500Y-145000000D02*
X77362500Y-143832500D01*
X79637500Y-146900000D02*
X79637500Y-146589408D01*
X78048092Y-145000000D02*
X77362500Y-145000000D01*
%TO.N,/ADC/ADC_IN+*%
X78250000Y-140300000D02*
X78250000Y-142220000D01*
X77000000Y-142450000D02*
X78020000Y-142450000D01*
X78250000Y-142220000D02*
X78020000Y-142450000D01*
%TO.N,/ADC/ADC_IN-*%
X78980000Y-142450000D02*
X79990000Y-142450000D01*
X78980000Y-142450000D02*
X78750000Y-142220000D01*
X78750000Y-142220000D02*
X78750000Y-140300000D01*
X79990000Y-142450000D02*
X80000000Y-142440000D01*
D54*
%TO.N,/ADC/ADC_VREF_VIN*%
X67700000Y-138310000D02*
X67700000Y-143800000D01*
X71250000Y-134760000D02*
X67700000Y-138310000D01*
X70000000Y-146100000D02*
X71425000Y-146100000D01*
X67700000Y-143800000D02*
X70000000Y-146100000D01*
X71425000Y-146100000D02*
X72525000Y-145000000D01*
D55*
%TO.N,/ADC/ADC_VREF*%
X74775000Y-140400000D02*
X74500000Y-140675000D01*
X76250000Y-140400000D02*
X74775000Y-140400000D01*
X73875000Y-141300000D02*
X74500000Y-140675000D01*
X72437500Y-141300000D02*
X73875000Y-141300000D01*
D53*
%TO.N,/DAC/DAC_VREF*%
X99375000Y-136700000D02*
X101000000Y-136700000D01*
%TO.N,Net-(C403-Pad1)*%
X102122500Y-145050000D02*
X103132500Y-145050000D01*
X103112500Y-146040000D02*
X103112500Y-145070000D01*
X103112500Y-145070000D02*
X103132500Y-145050000D01*
%TO.N,/DAC/OUT_AA_BUF_IN*%
X103500000Y-148850000D02*
X104130000Y-148220000D01*
X105100000Y-148220000D02*
X105100000Y-147072500D01*
X104130000Y-148220000D02*
X105100000Y-148220000D01*
X105100000Y-147072500D02*
X105122500Y-147050000D01*
%TO.N,Net-(C405-Pad1)*%
X102072500Y-147050000D02*
X104102500Y-147050000D01*
%TO.N,/DAC/OUT_AA_BUF_OUT*%
X101225000Y-148850000D02*
X101225000Y-149325000D01*
X101112500Y-147050000D02*
X101112500Y-148737500D01*
X105250000Y-150840000D02*
X103590000Y-150840000D01*
X102650000Y-150750000D02*
X103500000Y-150750000D01*
X101112500Y-148737500D02*
X101225000Y-148850000D01*
X101225000Y-149325000D02*
X102650000Y-150750000D01*
X103590000Y-150840000D02*
X103500000Y-150750000D01*
D55*
%TO.N,/Power/LED_PWR_K*%
X105987500Y-114200000D02*
X105987500Y-115522500D01*
X105987500Y-115522500D02*
X105710000Y-115800000D01*
D53*
%TO.N,/MCU/LED_R_K*%
X68600000Y-115600000D02*
X70340000Y-115600000D01*
%TO.N,/MCU/LED_G_K*%
X69090000Y-118600000D02*
X70340000Y-117350000D01*
X68600000Y-118600000D02*
X69090000Y-118600000D01*
%TO.N,/MCU/LED_B_K*%
X67446685Y-119696685D02*
X69753315Y-119696685D01*
X67100000Y-118600000D02*
X67100000Y-119350000D01*
X67100000Y-119350000D02*
X67446685Y-119696685D01*
X69753315Y-119696685D02*
X70350000Y-119100000D01*
%TO.N,/MCU/CONN_SWDIO*%
X79550000Y-112260000D02*
X79550000Y-108800000D01*
X79550000Y-108800000D02*
X79460000Y-108710000D01*
X79550000Y-113970000D02*
X79510000Y-114010000D01*
X79550000Y-112260000D02*
X79550000Y-113970000D01*
%TO.N,/MCU/CONN_SWCLK*%
X77000000Y-104950000D02*
X75540000Y-104950000D01*
X75540000Y-104950000D02*
X75000000Y-105490000D01*
X79320000Y-104950000D02*
X79460000Y-104810000D01*
X77000000Y-104950000D02*
X79320000Y-104950000D01*
%TO.N,/MCU/CONN_SWO*%
X80990000Y-112300000D02*
X80950000Y-112260000D01*
X80730000Y-112040000D02*
X80950000Y-112260000D01*
X80990000Y-114010000D02*
X80990000Y-112300000D01*
X80730000Y-108710000D02*
X80730000Y-112040000D01*
%TO.N,/MCU/CONN_NRST*%
X84450000Y-112260000D02*
X84450000Y-113960000D01*
X82000000Y-108710000D02*
X82000000Y-109810000D01*
X84450000Y-113960000D02*
X84500000Y-114010000D01*
X82000000Y-109810000D02*
X84450000Y-112260000D01*
%TO.N,/ADC/IN*%
X78000000Y-156050000D02*
X75950000Y-154000000D01*
X75890000Y-153940000D02*
X75950000Y-154000000D01*
X75890000Y-152400000D02*
X75890000Y-153940000D01*
X78000000Y-158560000D02*
X78000000Y-156050000D01*
%TO.N,/DAC/OUT*%
X105090000Y-151860000D02*
X105250000Y-151860000D01*
X103000000Y-158560000D02*
X103000000Y-154050000D01*
X103000000Y-154050000D02*
X102950000Y-154000000D01*
X102950000Y-154000000D02*
X105090000Y-151860000D01*
D56*
%TO.N,/MCU/USB_CONN_CC1*%
X107955000Y-124500000D02*
X109560000Y-124500000D01*
X109560000Y-124500000D02*
X111610000Y-126550000D01*
X111610000Y-126550000D02*
X111610000Y-129280000D01*
%TO.N,/MCU/USB_CONN_D+*%
X109000000Y-122500000D02*
X107955000Y-122500000D01*
D57*
X106349095Y-122467844D02*
X107080366Y-122467844D01*
D56*
X107955000Y-123500000D02*
X109000000Y-123500000D01*
X109200000Y-122700000D02*
X109000000Y-122500000D01*
D57*
X104637500Y-121750000D02*
X105631251Y-121750000D01*
X105631251Y-121750000D02*
X106349095Y-122467844D01*
X107112522Y-122500000D02*
X107955000Y-122500000D01*
D56*
X109200000Y-123300000D02*
X109200000Y-122700000D01*
X109000000Y-123500000D02*
X109200000Y-123300000D01*
D57*
X107080366Y-122467844D02*
X107112522Y-122500000D01*
D56*
%TO.N,/MCU/USB_CONN_D-*%
X106800000Y-123025742D02*
X106893586Y-122932156D01*
X107955000Y-123000000D02*
X107935560Y-123019440D01*
X107100000Y-124000000D02*
X106800000Y-123700000D01*
D57*
X105631251Y-123650000D02*
X106349095Y-122932156D01*
D56*
X107935560Y-123019440D02*
X106980870Y-123019440D01*
X106980870Y-123019440D02*
X106893586Y-122932156D01*
X106800000Y-123700000D02*
X106800000Y-123025742D01*
D57*
X106349095Y-122932156D02*
X106893586Y-122932156D01*
X104637500Y-123650000D02*
X105631251Y-123650000D01*
D56*
X107955000Y-124000000D02*
X107100000Y-124000000D01*
%TO.N,/MCU/USB_CONN_CC2*%
X111440000Y-119810000D02*
X111440000Y-117260000D01*
X109750000Y-121500000D02*
X111440000Y-119810000D01*
X107955000Y-121500000D02*
X109750000Y-121500000D01*
D57*
%TO.N,/MCU/USB_CMC_D-*%
X101680556Y-123330556D02*
X101650946Y-123330556D01*
X101369444Y-123049054D02*
X101369444Y-123019444D01*
X100925001Y-123200000D02*
X100100000Y-123200000D01*
X102362500Y-123650000D02*
X102000000Y-123650000D01*
X101369444Y-123019444D02*
X101282156Y-122932156D01*
X102000000Y-123650000D02*
X101680556Y-123330556D01*
X101282156Y-122932156D02*
X101192845Y-122932156D01*
X101192845Y-122932156D02*
X100925001Y-123200000D01*
X101650946Y-123330556D02*
X101369444Y-123049054D01*
%TO.N,/MCU/USB_CMC_D+*%
X101282156Y-122467844D02*
X101192845Y-122467844D01*
X101192845Y-122467844D02*
X100925001Y-122200000D01*
X102362500Y-121750000D02*
X102000000Y-121750000D01*
X101369444Y-122350946D02*
X101369444Y-122380556D01*
X101369444Y-122380556D02*
X101282156Y-122467844D01*
X100925001Y-122200000D02*
X100100000Y-122200000D01*
X101650946Y-122069444D02*
X101369444Y-122350946D01*
X102000000Y-121750000D02*
X101680556Y-122069444D01*
X101680556Y-122069444D02*
X101650946Y-122069444D01*
%TO.N,/MCU/USB_D+*%
X95273836Y-122467844D02*
X93973836Y-123767844D01*
X93973836Y-123767844D02*
X92286595Y-123767844D01*
X92268751Y-123750000D02*
X91162500Y-123750000D01*
X96574999Y-122200000D02*
X96307155Y-122467844D01*
X97400000Y-122200000D02*
X96574999Y-122200000D01*
X96307155Y-122467844D02*
X95273836Y-122467844D01*
X92286595Y-123767844D02*
X92268751Y-123750000D01*
%TO.N,/MCU/USB_D-*%
X94166164Y-124232156D02*
X92286595Y-124232156D01*
X96574999Y-123200000D02*
X96307155Y-122932156D01*
X95466164Y-122932156D02*
X94166164Y-124232156D01*
X92268751Y-124250000D02*
X91162500Y-124250000D01*
X97400000Y-123200000D02*
X96574999Y-123200000D01*
X92286595Y-124232156D02*
X92268751Y-124250000D01*
X96307155Y-122932156D02*
X95466164Y-122932156D01*
D53*
%TO.N,/MCU/BOOT0*%
X85905815Y-118505815D02*
X86250000Y-118850000D01*
X82500000Y-118600000D02*
X82594185Y-118505815D01*
X86250000Y-118850000D02*
X86250000Y-120837500D01*
X81400000Y-116510000D02*
X82490000Y-116510000D01*
X82490000Y-116510000D02*
X82500000Y-116500000D01*
X82594185Y-118505815D02*
X85905815Y-118505815D01*
%TO.N,/MCU/HSE_OUT*%
X82837500Y-124750000D02*
X81750000Y-124750000D01*
X79179014Y-124400000D02*
X78988199Y-124590815D01*
X78988199Y-124590815D02*
X76081685Y-124590815D01*
X81400000Y-124400000D02*
X79179014Y-124400000D01*
X81750000Y-124750000D02*
X81400000Y-124400000D01*
X76081685Y-124590815D02*
X75510000Y-125162500D01*
%TO.N,SPI2_NSS*%
X96377325Y-138275055D02*
X94106630Y-136004361D01*
X91315000Y-127902500D02*
X91162500Y-127750000D01*
X103000000Y-136700000D02*
X103000000Y-137558726D01*
X103000000Y-137558726D02*
X102283671Y-138275055D01*
X93815760Y-127902500D02*
X93000000Y-127902500D01*
X102283671Y-138275055D02*
X96377325Y-138275055D01*
X94106630Y-136004361D02*
X94106630Y-128193370D01*
X93000000Y-127902500D02*
X91315000Y-127902500D01*
X94106630Y-128193370D02*
X93815760Y-127902500D01*
%TO.N,SPI1_NSS*%
X79750000Y-136000000D02*
X81460000Y-134290000D01*
X81460000Y-134290000D02*
X82780000Y-134290000D01*
X84750000Y-129162500D02*
X84750000Y-130722500D01*
X83072500Y-132400000D02*
X84560000Y-130912500D01*
X84750000Y-130722500D02*
X84560000Y-130912500D01*
X82800000Y-132400000D02*
X83072500Y-132400000D01*
%TO.N,/MCU/TIM4_CH3*%
X74900000Y-115800000D02*
X74700000Y-115600000D01*
X84000331Y-122385593D02*
X84000331Y-122078977D01*
X85750000Y-120837500D02*
X85750000Y-122235262D01*
X84511423Y-122896685D02*
X84000331Y-122385593D01*
X84000331Y-122078977D02*
X80621354Y-118700000D01*
X80621354Y-118700000D02*
X74900000Y-118700000D01*
X74700000Y-115600000D02*
X71360000Y-115600000D01*
X85088577Y-122896685D02*
X84511423Y-122896685D01*
X85750000Y-122235262D02*
X85088577Y-122896685D01*
%TO.N,/MCU/TIM4_CH1*%
X85397917Y-117350000D02*
X71360000Y-117350000D01*
X87250000Y-118247730D02*
X86376870Y-117374600D01*
X85422517Y-117374600D02*
X85397917Y-117350000D01*
X87250000Y-120837500D02*
X87250000Y-118247730D01*
X86376870Y-117374600D02*
X85422517Y-117374600D01*
%TO.N,/MCU/TIM4_CH2*%
X86750000Y-120837500D02*
X86750000Y-118445460D01*
X85218156Y-117867970D02*
X85193556Y-117843370D01*
X85193556Y-117843370D02*
X72626630Y-117843370D01*
X86750000Y-118445460D02*
X86172510Y-117867970D01*
X72626630Y-117843370D02*
X71370000Y-119100000D01*
X86172510Y-117867970D02*
X85218156Y-117867970D01*
%TO.N,/MCU/SWDIO*%
X93456685Y-121156685D02*
X88484545Y-116184545D01*
X88484545Y-116184545D02*
X85915455Y-116184545D01*
X91162500Y-123250000D02*
X93028278Y-123250000D01*
X93456685Y-122821593D02*
X93456685Y-121156685D01*
X93028278Y-123250000D02*
X93456685Y-122821593D01*
X78490000Y-114010000D02*
X79156685Y-114676685D01*
X79156685Y-114676685D02*
X82438483Y-114676685D01*
X82438483Y-114676685D02*
X82980899Y-115219101D01*
%TO.N,/MCU/SWCLK*%
X89400000Y-115100000D02*
X89200000Y-115300000D01*
X75000000Y-106600000D02*
X77500000Y-109100000D01*
X89400000Y-112100000D02*
X89400000Y-115100000D01*
X89200000Y-118200000D02*
X89750000Y-118750000D01*
X75000000Y-106510000D02*
X75000000Y-106600000D01*
X89750000Y-118750000D02*
X89750000Y-120837500D01*
%TO.N,/MCU/SWO*%
X85218770Y-116218770D02*
X85218770Y-116473122D01*
X88750000Y-119050000D02*
X88750000Y-120837500D01*
X85626878Y-116881230D02*
X86581230Y-116881230D01*
X85218770Y-116473122D02*
X85626878Y-116881230D01*
X83010000Y-114010000D02*
X85218770Y-116218770D01*
X86581230Y-116881230D02*
X88750000Y-119050000D01*
X82010000Y-114010000D02*
X83010000Y-114010000D01*
%TO.N,VCOM*%
X83462420Y-143460000D02*
X86346685Y-146344265D01*
X86346685Y-146344265D02*
X86346685Y-148600000D01*
X91775000Y-148700000D02*
X86446685Y-148700000D01*
X86446685Y-150863315D02*
X86446685Y-148700000D01*
X80000000Y-143460000D02*
X83462420Y-143460000D01*
X94050000Y-150289385D02*
X94050000Y-150600000D01*
X86310000Y-151000000D02*
X86446685Y-150863315D01*
X93000000Y-149262500D02*
X93023115Y-149262500D01*
X92437500Y-148700000D02*
X93000000Y-149262500D01*
X93023115Y-149262500D02*
X94050000Y-150289385D01*
X91775000Y-148700000D02*
X92437500Y-148700000D01*
X86446685Y-148700000D02*
X86346685Y-148600000D01*
%TO.N,/ADC/IN_BUF_OUT*%
X85389440Y-147062500D02*
X83800000Y-148651940D01*
X80872500Y-149337500D02*
X83800000Y-149337500D01*
X79760000Y-150450000D02*
X80872500Y-149337500D01*
X85700000Y-147062500D02*
X85389440Y-147062500D01*
X83800000Y-148651940D02*
X83800000Y-149337500D01*
%TO.N,SPI1_SCK*%
X85250000Y-131223704D02*
X83083704Y-133390000D01*
X85250000Y-129162500D02*
X85250000Y-131223704D01*
X83083704Y-133390000D02*
X79500000Y-133390000D01*
%TO.N,/ADC/ADC_SCLK*%
X79500000Y-134410000D02*
X79481274Y-134410000D01*
X78750000Y-135141274D02*
X78750000Y-136000000D01*
X79481274Y-134410000D02*
X78750000Y-135141274D01*
%TO.N,SPI2_SCK*%
X91162500Y-127250000D02*
X92650000Y-127250000D01*
X103900000Y-131500000D02*
X104710000Y-131500000D01*
X92650000Y-127250000D02*
X92900000Y-127000000D01*
X104710000Y-131500000D02*
X104800000Y-131590000D01*
%TO.N,/DAC/DAC_SCLK*%
X104800000Y-133541274D02*
X104800000Y-132610000D01*
X102500000Y-136700000D02*
X102500000Y-135841274D01*
X102500000Y-135841274D02*
X104800000Y-133541274D01*
%TO.N,/DAC/DAC_OUT_B*%
X101500000Y-143120000D02*
X101730000Y-143350000D01*
X101500000Y-141000000D02*
X101500000Y-143120000D01*
%TO.N,/DAC/DAC_OUT_A*%
X101102500Y-145050000D02*
X101000000Y-144947500D01*
X101000000Y-144947500D02*
X101000000Y-141000000D01*
%TO.N,SPI1_MISO*%
X86233646Y-130480000D02*
X85750000Y-129996354D01*
X86590000Y-130480000D02*
X86233646Y-130480000D01*
X85750000Y-129996354D02*
X85750000Y-129162500D01*
X79472959Y-137081685D02*
X81818315Y-137081685D01*
X79250000Y-136858726D02*
X79472959Y-137081685D01*
X86590000Y-132310000D02*
X86590000Y-130480000D01*
X81818315Y-137081685D02*
X86590000Y-132310000D01*
X79250000Y-136000000D02*
X79250000Y-136858726D01*
%TO.N,DAC_NCLR*%
X103000000Y-141000000D02*
X103000000Y-139800000D01*
X90790895Y-134399403D02*
X87750000Y-131358508D01*
X87750000Y-131358508D02*
X87750000Y-129162500D01*
X103000000Y-139800000D02*
X103500000Y-139300000D01*
X93397025Y-134399403D02*
X90790895Y-134399403D01*
%TO.N,DAC_NLDAC*%
X102500000Y-139300000D02*
X103400000Y-138400000D01*
X103400000Y-138400000D02*
X103500000Y-138400000D01*
X90589222Y-133500000D02*
X93410445Y-133500000D01*
X102500000Y-141000000D02*
X102500000Y-139300000D01*
X88250000Y-131160778D02*
X90589222Y-133500000D01*
X88250000Y-129162500D02*
X88250000Y-131160778D01*
%TO.N,SPI2_MOSI*%
X93250000Y-126250000D02*
X91162500Y-126250000D01*
X96581685Y-137781685D02*
X94600000Y-135800000D01*
X102000000Y-137558726D02*
X101777041Y-137781685D01*
X94600000Y-127600000D02*
X93250000Y-126250000D01*
X94600000Y-135800000D02*
X94600000Y-127600000D01*
X101777041Y-137781685D02*
X96581685Y-137781685D01*
X102000000Y-136700000D02*
X102000000Y-137558726D01*
%TD*%
%TA.AperFunction,Conductor*%
%TO.N,GND*%
G36*
X91430804Y-151515483D02*
G01*
X91434599Y-151517299D01*
X91711288Y-151655644D01*
X91762445Y-151703231D01*
X91779755Y-151770922D01*
X91779567Y-151774650D01*
X91779500Y-151775673D01*
X91779500Y-152224316D01*
X91785931Y-152273172D01*
X91785931Y-152273173D01*
X91812694Y-152330565D01*
X91824233Y-152378543D01*
X91851547Y-153143348D01*
X91851316Y-153151352D01*
X91849500Y-153170730D01*
X91849500Y-154229269D01*
X91852353Y-154259698D01*
X91889649Y-154366285D01*
X91896528Y-154402812D01*
X91898073Y-154446058D01*
X91880794Y-154513757D01*
X91861833Y-154538166D01*
X91536319Y-154863681D01*
X91474996Y-154897166D01*
X91448638Y-154900000D01*
X90371960Y-154900000D01*
X90304921Y-154880315D01*
X90264298Y-154837521D01*
X89921911Y-154238344D01*
X89905741Y-154170371D01*
X89907260Y-154156438D01*
X90074775Y-153151352D01*
X90289619Y-151862282D01*
X90320057Y-151799392D01*
X90356474Y-151771762D01*
X90682003Y-151608998D01*
X90719916Y-151597154D01*
X91361657Y-151505477D01*
X91430804Y-151515483D01*
G37*
%TD.AperFunction*%
%TD*%
%TA.AperFunction,Conductor*%
%TO.N,/ADC/ADC_VREF*%
G36*
X77743039Y-140019685D02*
G01*
X77788794Y-140072489D01*
X77800000Y-140124000D01*
X77800000Y-141089014D01*
X77780315Y-141156053D01*
X77727511Y-141201808D01*
X77689694Y-141212256D01*
X72422148Y-141797539D01*
X72378380Y-141794595D01*
X72036152Y-141709038D01*
X71693925Y-141623481D01*
X71633662Y-141588124D01*
X71602080Y-141525800D01*
X71600000Y-141503183D01*
X71600000Y-140886852D01*
X71619685Y-140819813D01*
X71672489Y-140774058D01*
X71681612Y-140770322D01*
X73779468Y-140007465D01*
X73821844Y-140000000D01*
X77676000Y-140000000D01*
X77743039Y-140019685D01*
G37*
%TD.AperFunction*%
%TD*%
%TA.AperFunction,Conductor*%
%TO.N,+3V3*%
G36*
X102143039Y-132619685D02*
G01*
X102188794Y-132672489D01*
X102200000Y-132724000D01*
X102200000Y-134673140D01*
X102188885Y-134724452D01*
X101700000Y-135799997D01*
X101699998Y-135800005D01*
X101697038Y-135829605D01*
X101676761Y-135886148D01*
X101671782Y-135893599D01*
X101671782Y-135893600D01*
X101659500Y-135955346D01*
X101659500Y-136201902D01*
X101659192Y-136208075D01*
X101619304Y-136606959D01*
X101593046Y-136671707D01*
X101535951Y-136711980D01*
X101466147Y-136714993D01*
X101405794Y-136679788D01*
X101374056Y-136617543D01*
X101373165Y-136612156D01*
X101341745Y-136392215D01*
X101340499Y-136374679D01*
X101340499Y-135955353D01*
X101340498Y-135955346D01*
X101328217Y-135893599D01*
X101281427Y-135823573D01*
X101281425Y-135823571D01*
X101274642Y-135813420D01*
X101277155Y-135811740D01*
X101252766Y-135767074D01*
X101251182Y-135758275D01*
X101200000Y-135400000D01*
X100810490Y-133062941D01*
X100818886Y-132993580D01*
X100845119Y-132954880D01*
X101163681Y-132636319D01*
X101225004Y-132602834D01*
X101251362Y-132600000D01*
X102076000Y-132600000D01*
X102143039Y-132619685D01*
G37*
%TD.AperFunction*%
%TD*%
%TA.AperFunction,Conductor*%
%TO.N,+5V*%
G36*
X97784981Y-107499443D02*
G01*
X97814449Y-107504128D01*
X98410065Y-107674304D01*
X98469118Y-107711648D01*
X98498606Y-107774991D01*
X98500000Y-107793533D01*
X98500000Y-108248638D01*
X98480315Y-108315677D01*
X98463681Y-108336319D01*
X98234724Y-108565275D01*
X98173401Y-108598760D01*
X98150916Y-108601533D01*
X97267044Y-108629154D01*
X97199423Y-108611574D01*
X97187685Y-108603591D01*
X97077625Y-108519139D01*
X97077623Y-108519138D01*
X96943712Y-108463671D01*
X96943710Y-108463670D01*
X96943709Y-108463670D01*
X96871854Y-108454210D01*
X96800001Y-108444750D01*
X96799999Y-108444750D01*
X96656291Y-108463670D01*
X96656287Y-108463671D01*
X96522377Y-108519137D01*
X96502652Y-108534273D01*
X96407379Y-108607379D01*
X96407378Y-108607380D01*
X96407377Y-108607381D01*
X96404905Y-108610603D01*
X96402126Y-108612631D01*
X96401633Y-108613125D01*
X96401556Y-108613048D01*
X96348474Y-108651802D01*
X96310407Y-108659049D01*
X95031310Y-108699021D01*
X94971983Y-108685991D01*
X94668546Y-108534273D01*
X94617387Y-108486686D01*
X94600000Y-108423364D01*
X94600000Y-107859597D01*
X94619685Y-107792558D01*
X94646536Y-107762771D01*
X95064012Y-107428790D01*
X95128654Y-107402284D01*
X95146046Y-107401705D01*
X97784981Y-107499443D01*
G37*
%TD.AperFunction*%
%TD*%
%TA.AperFunction,Conductor*%
%TO.N,/Power/+5V_FILT*%
G36*
X94346945Y-137597207D02*
G01*
X94412856Y-137620388D01*
X94434575Y-137640338D01*
X94970148Y-138265173D01*
X94998831Y-138328882D01*
X95000000Y-138345870D01*
X95000000Y-144129792D01*
X94980315Y-144196831D01*
X94939797Y-144236121D01*
X94529450Y-144482329D01*
X94465655Y-144500000D01*
X90462000Y-144500000D01*
X90394961Y-144480315D01*
X90362800Y-144450400D01*
X90124800Y-144133066D01*
X90100324Y-144067624D01*
X90100000Y-144058666D01*
X90100000Y-143837544D01*
X90119685Y-143770505D01*
X90120826Y-143768761D01*
X90263189Y-143555217D01*
X90316754Y-143510356D01*
X90366363Y-143500000D01*
X91299999Y-143500000D01*
X91300000Y-143500000D01*
X91900000Y-142600000D01*
X91998917Y-138049775D01*
X92020054Y-137983182D01*
X92035202Y-137964797D01*
X92460951Y-137539048D01*
X92522272Y-137505565D01*
X92555143Y-137502902D01*
X94346945Y-137597207D01*
G37*
%TD.AperFunction*%
%TD*%
%TA.AperFunction,Conductor*%
%TO.N,GND*%
G36*
X80862778Y-124798542D02*
G01*
X80961352Y-124835507D01*
X81240833Y-124940312D01*
X81296692Y-124982282D01*
X81320994Y-125047790D01*
X81321280Y-125054538D01*
X81329117Y-125571785D01*
X81310450Y-125639115D01*
X81285770Y-125667862D01*
X81035395Y-125882198D01*
X80971667Y-125910841D01*
X80954757Y-125912000D01*
X80790103Y-125912000D01*
X80732711Y-125919554D01*
X80726329Y-125920061D01*
X77109999Y-126020000D01*
X76740000Y-126410000D01*
X76720677Y-127994416D01*
X76700176Y-128061211D01*
X76678052Y-128086475D01*
X76293539Y-128420835D01*
X76230034Y-128449971D01*
X76215569Y-128451217D01*
X75598538Y-128468122D01*
X75530985Y-128450281D01*
X75491968Y-128412952D01*
X75230826Y-128021239D01*
X75210018Y-127954540D01*
X75210000Y-127952456D01*
X75210000Y-126460136D01*
X75229685Y-126393097D01*
X75244845Y-126373953D01*
X75683608Y-125920061D01*
X76596377Y-124975817D01*
X76657124Y-124941298D01*
X76685532Y-124938000D01*
X78970338Y-124938000D01*
X78975739Y-124938235D01*
X79006661Y-124940941D01*
X79018924Y-124942014D01*
X79018924Y-124942013D01*
X79018925Y-124942014D01*
X79060822Y-124930787D01*
X79066050Y-124929628D01*
X79108775Y-124922095D01*
X79108777Y-124922094D01*
X79111093Y-124921251D01*
X79134939Y-124911373D01*
X79137183Y-124910326D01*
X79137189Y-124910325D01*
X79172709Y-124885452D01*
X79177236Y-124882568D01*
X79214808Y-124860877D01*
X79214808Y-124860876D01*
X79224207Y-124855451D01*
X79225394Y-124857508D01*
X79275661Y-124835507D01*
X79287793Y-124834560D01*
X80815681Y-124790698D01*
X80862778Y-124798542D01*
G37*
%TD.AperFunction*%
%TD*%
%TA.AperFunction,Conductor*%
%TO.N,+3V3*%
G36*
X102715677Y-102719685D02*
G01*
X102736319Y-102736319D01*
X103063681Y-103063681D01*
X103097166Y-103125004D01*
X103100000Y-103151362D01*
X103100000Y-108248638D01*
X103080315Y-108315677D01*
X103063681Y-108336319D01*
X102736319Y-108663681D01*
X102674996Y-108697166D01*
X102648638Y-108700000D01*
X101751362Y-108700000D01*
X101684323Y-108680315D01*
X101663681Y-108663681D01*
X101336319Y-108336319D01*
X101302834Y-108274996D01*
X101300000Y-108248638D01*
X101300000Y-106800000D01*
X101000000Y-106500000D01*
X100044894Y-106500000D01*
X99977855Y-106480315D01*
X99965511Y-106471259D01*
X99444617Y-106037180D01*
X99405718Y-105979141D01*
X99400000Y-105941921D01*
X99400000Y-103151362D01*
X99419685Y-103084323D01*
X99436319Y-103063681D01*
X99763681Y-102736319D01*
X99825004Y-102702834D01*
X99851362Y-102700000D01*
X102648638Y-102700000D01*
X102715677Y-102719685D01*
G37*
%TD.AperFunction*%
%TD*%
%TA.AperFunction,Conductor*%
%TO.N,/Power/VREF*%
G36*
X92915677Y-150219685D02*
G01*
X92936319Y-150236319D01*
X93070772Y-150370772D01*
X93104257Y-150432095D01*
X93105845Y-150440917D01*
X93199999Y-151099998D01*
X93200000Y-151100000D01*
X93734260Y-151367130D01*
X93785418Y-151414716D01*
X93802720Y-151473449D01*
X93897998Y-154045965D01*
X93880808Y-154113687D01*
X93861764Y-154138235D01*
X93536319Y-154463681D01*
X93474996Y-154497166D01*
X93448638Y-154500000D01*
X92376636Y-154500000D01*
X92309597Y-154480315D01*
X92265727Y-154431454D01*
X92119118Y-154138235D01*
X92072983Y-154045965D01*
X92068091Y-154036182D01*
X92055000Y-153980728D01*
X92055000Y-153183237D01*
X92055271Y-153177447D01*
X92056230Y-153167219D01*
X92056635Y-153160600D01*
X92057057Y-153145963D01*
X92057034Y-153139329D01*
X92057034Y-153139328D01*
X92029602Y-152371209D01*
X92024036Y-152330489D01*
X92012497Y-152282511D01*
X92009234Y-152273173D01*
X92006942Y-152266613D01*
X92000000Y-152225706D01*
X92000000Y-151399999D01*
X91800000Y-151100000D01*
X91429272Y-151100000D01*
X91373818Y-151086909D01*
X91068546Y-150934273D01*
X91017387Y-150886686D01*
X91000000Y-150823364D01*
X91000000Y-150562000D01*
X91019685Y-150494961D01*
X91049600Y-150462800D01*
X91172304Y-150370772D01*
X91366933Y-150224799D01*
X91432375Y-150200324D01*
X91441333Y-150200000D01*
X92848638Y-150200000D01*
X92915677Y-150219685D01*
G37*
%TD.AperFunction*%
%TD*%
%TA.AperFunction,Conductor*%
%TO.N,GND*%
G36*
X103700031Y-128179472D02*
G01*
X103728078Y-128202991D01*
X103969514Y-128475580D01*
X103999228Y-128538816D01*
X104000676Y-128555973D01*
X104019253Y-129819225D01*
X104000556Y-129886546D01*
X103984917Y-129906714D01*
X103626630Y-130281666D01*
X103566083Y-130316536D01*
X103536979Y-130320000D01*
X102610000Y-130320000D01*
X102127507Y-130913837D01*
X102069955Y-130953454D01*
X102030522Y-130959641D01*
X100483627Y-130950323D01*
X100416707Y-130930235D01*
X100393511Y-130910705D01*
X100072639Y-130565150D01*
X100041448Y-130502630D01*
X100039513Y-130482034D01*
X100032784Y-129819225D01*
X100020619Y-128621041D01*
X100039622Y-128553808D01*
X100067995Y-128522289D01*
X100407452Y-128255573D01*
X100472324Y-128229635D01*
X100481372Y-128229108D01*
X103632585Y-128161236D01*
X103700031Y-128179472D01*
G37*
%TD.AperFunction*%
%TD*%
%TA.AperFunction,Conductor*%
%TO.N,/Power/BUCK_SW*%
G36*
X98215677Y-102619685D02*
G01*
X98236319Y-102636319D01*
X98463681Y-102863681D01*
X98497166Y-102925004D01*
X98500000Y-102951362D01*
X98500000Y-106000000D01*
X100749705Y-107662825D01*
X100791916Y-107718502D01*
X100800000Y-107762542D01*
X100800000Y-108233637D01*
X100780315Y-108300676D01*
X100744783Y-108336811D01*
X100531239Y-108479174D01*
X100464540Y-108499982D01*
X100462456Y-108500000D01*
X99529272Y-108500000D01*
X99473818Y-108486909D01*
X99168546Y-108334273D01*
X99117387Y-108286686D01*
X99100000Y-108223364D01*
X99100000Y-107399999D01*
X98871428Y-107228571D01*
X98700000Y-107100000D01*
X98699999Y-107100000D01*
X96551362Y-107100000D01*
X96484323Y-107080315D01*
X96463681Y-107063681D01*
X96236319Y-106836319D01*
X96202834Y-106774996D01*
X96200000Y-106748638D01*
X96200000Y-102951362D01*
X96219685Y-102884323D01*
X96236319Y-102863681D01*
X96463681Y-102636319D01*
X96525004Y-102602834D01*
X96551362Y-102600000D01*
X98148638Y-102600000D01*
X98215677Y-102619685D01*
G37*
%TD.AperFunction*%
%TD*%
%TA.AperFunction,Conductor*%
%TO.N,GND*%
G36*
X101213586Y-108802860D02*
G01*
X103001546Y-109179273D01*
X103063092Y-109212345D01*
X103096987Y-109273442D01*
X103100000Y-109300612D01*
X103100000Y-110740402D01*
X103080315Y-110807441D01*
X103053462Y-110837230D01*
X102633965Y-111172828D01*
X102569319Y-111199336D01*
X102556503Y-111200000D01*
X101841333Y-111200000D01*
X101774294Y-111180315D01*
X101766933Y-111175200D01*
X101763770Y-111172828D01*
X101449600Y-110937200D01*
X101407779Y-110881229D01*
X101400000Y-110838000D01*
X101400000Y-109599999D01*
X100900000Y-109400000D01*
X97100000Y-109400000D01*
X96600000Y-109500000D01*
X96599999Y-109500001D01*
X96403194Y-112353680D01*
X96378944Y-112419207D01*
X96367169Y-112432830D01*
X95936319Y-112863681D01*
X95874996Y-112897166D01*
X95848638Y-112900000D01*
X95051362Y-112900000D01*
X94984323Y-112880315D01*
X94963681Y-112863681D01*
X94534618Y-112434618D01*
X94501133Y-112373295D01*
X94498369Y-112351078D01*
X94401526Y-109445802D01*
X94418966Y-109378147D01*
X94428619Y-109364225D01*
X94763513Y-108945608D01*
X94820762Y-108905558D01*
X94858397Y-108899087D01*
X94961479Y-108897476D01*
X94983354Y-108899683D01*
X94983438Y-108899148D01*
X94987224Y-108899737D01*
X95006692Y-108901542D01*
X95037729Y-108904421D01*
X95558405Y-108888149D01*
X101186120Y-108800216D01*
X101213586Y-108802860D01*
G37*
%TD.AperFunction*%
%TD*%
%TA.AperFunction,Conductor*%
%TO.N,VBUS*%
G36*
X103390872Y-125339666D02*
G01*
X103428736Y-125374518D01*
X103637082Y-125667745D01*
X103659866Y-125733796D01*
X103660000Y-125739567D01*
X103660000Y-127559076D01*
X103640315Y-127626115D01*
X103635641Y-127632884D01*
X103496576Y-127820622D01*
X103440855Y-127862775D01*
X103398556Y-127870803D01*
X101996746Y-127889127D01*
X101929455Y-127870321D01*
X101892518Y-127834764D01*
X101765800Y-127648021D01*
X101744446Y-127581495D01*
X101749624Y-127542807D01*
X101767155Y-127484302D01*
X101775799Y-127426452D01*
X101785290Y-125708450D01*
X101785083Y-125698886D01*
X101777010Y-125654062D01*
X101784499Y-125584596D01*
X101827279Y-125530962D01*
X102026233Y-125389769D01*
X102092296Y-125367024D01*
X102093431Y-125366977D01*
X103323166Y-125322421D01*
X103390872Y-125339666D01*
G37*
%TD.AperFunction*%
%TD*%
%TA.AperFunction,Conductor*%
%TO.N,GND*%
G36*
X77931085Y-121595080D02*
G01*
X77997751Y-121615987D01*
X78042533Y-121669619D01*
X78052815Y-121719059D01*
X78052815Y-122857616D01*
X78033130Y-122924655D01*
X78016496Y-122945297D01*
X77952126Y-123009667D01*
X77912872Y-123032331D01*
X77914158Y-123035089D01*
X77904324Y-123039674D01*
X77868810Y-123064540D01*
X77864249Y-123067446D01*
X77826708Y-123089121D01*
X77826705Y-123089123D01*
X77798839Y-123122332D01*
X77795184Y-123126320D01*
X77748141Y-123173364D01*
X77557823Y-123363682D01*
X77496503Y-123397166D01*
X77470144Y-123400000D01*
X77000000Y-123400000D01*
X77000000Y-124119630D01*
X76980315Y-124186669D01*
X76927511Y-124232424D01*
X76876000Y-124243630D01*
X76099555Y-124243630D01*
X76094151Y-124243394D01*
X76088024Y-124242858D01*
X76050958Y-124239614D01*
X76050957Y-124239614D01*
X76009084Y-124250834D01*
X76003805Y-124252005D01*
X75961108Y-124259534D01*
X75958845Y-124260358D01*
X75934866Y-124270290D01*
X75932696Y-124271303D01*
X75897181Y-124296169D01*
X75892620Y-124299075D01*
X75855075Y-124320753D01*
X75827207Y-124353964D01*
X75823558Y-124357947D01*
X75820649Y-124360856D01*
X75817834Y-124363671D01*
X75756518Y-124397163D01*
X75730144Y-124400000D01*
X75124000Y-124400000D01*
X75056961Y-124380315D01*
X75011206Y-124327511D01*
X75000000Y-124276000D01*
X75000000Y-124132061D01*
X75000133Y-124128005D01*
X75000497Y-124122418D01*
X75000500Y-124122401D01*
X75000499Y-123702600D01*
X75000499Y-123702599D01*
X75000133Y-123697020D01*
X75000000Y-123692962D01*
X75000000Y-123524000D01*
X75019685Y-123456961D01*
X75072489Y-123411206D01*
X75124000Y-123400000D01*
X76000000Y-123400000D01*
X76140529Y-121678518D01*
X76165603Y-121613303D01*
X76221954Y-121571996D01*
X76266380Y-121564628D01*
X77931085Y-121595080D01*
G37*
%TD.AperFunction*%
%TD*%
%TA.AperFunction,Conductor*%
%TO.N,+5V*%
G36*
X101383226Y-125409685D02*
G01*
X101417090Y-125441926D01*
X101556683Y-125637356D01*
X101579631Y-125703350D01*
X101579778Y-125710115D01*
X101570302Y-127425317D01*
X101550247Y-127492247D01*
X101529420Y-127516652D01*
X101295404Y-127728021D01*
X101232461Y-127758348D01*
X101212290Y-127760000D01*
X99991575Y-127760000D01*
X99924536Y-127740315D01*
X99892785Y-127710944D01*
X99735814Y-127504027D01*
X99710980Y-127438723D01*
X99710618Y-127427310D01*
X99719189Y-126835940D01*
X99739843Y-126769194D01*
X99762478Y-126743590D01*
X99967431Y-126567916D01*
X100031142Y-126539233D01*
X100042850Y-126538176D01*
X100470000Y-126520000D01*
X100660000Y-126290000D01*
X100650808Y-125655763D01*
X100669519Y-125588446D01*
X100691186Y-125562395D01*
X100844484Y-125422428D01*
X100907264Y-125391762D01*
X100928093Y-125390000D01*
X101316187Y-125390000D01*
X101383226Y-125409685D01*
G37*
%TD.AperFunction*%
%TD*%
%TA.AperFunction,Conductor*%
%TO.N,GND*%
G36*
X106487569Y-126270403D02*
G01*
X108094603Y-126287683D01*
X108161425Y-126308087D01*
X108206610Y-126361380D01*
X108215809Y-126430642D01*
X108199820Y-126475100D01*
X108071907Y-126689995D01*
X108041649Y-126724322D01*
X107650000Y-127030000D01*
X107650000Y-127346142D01*
X107646397Y-127375817D01*
X107619500Y-127484944D01*
X107619500Y-127655055D01*
X107646397Y-127764181D01*
X107650000Y-127793856D01*
X107650000Y-128544301D01*
X107630315Y-128611340D01*
X107620347Y-128624765D01*
X107524865Y-128736710D01*
X107397561Y-128885962D01*
X107339079Y-128924193D01*
X107302121Y-128929487D01*
X106292145Y-128920549D01*
X106225282Y-128900272D01*
X106193248Y-128869883D01*
X106033610Y-128652196D01*
X106009839Y-128586495D01*
X106009610Y-128580096D01*
X105990662Y-126637948D01*
X106009691Y-126570723D01*
X106046916Y-126532880D01*
X106418516Y-126290532D01*
X106485421Y-126270400D01*
X106487569Y-126270403D01*
G37*
%TD.AperFunction*%
%TD*%
%TA.AperFunction,Conductor*%
%TO.N,VDDA*%
G36*
X81180993Y-126075063D02*
G01*
X81195255Y-126079309D01*
X81210546Y-126083862D01*
X81259007Y-126100499D01*
X81259011Y-126100499D01*
X81259012Y-126100500D01*
X81259013Y-126100500D01*
X81266268Y-126101710D01*
X81283742Y-126103888D01*
X81283530Y-126105587D01*
X81284116Y-126105766D01*
X81284041Y-126106010D01*
X81338660Y-126119618D01*
X81386564Y-126170481D01*
X81400000Y-126226621D01*
X81400000Y-126755736D01*
X81380315Y-126822775D01*
X81371971Y-126834257D01*
X79637210Y-128954521D01*
X79579523Y-128993942D01*
X79541239Y-129000000D01*
X78724000Y-129000000D01*
X78656961Y-128980315D01*
X78611206Y-128927511D01*
X78600000Y-128876000D01*
X78600000Y-128213610D01*
X78602953Y-128186711D01*
X78903498Y-126834257D01*
X78981853Y-126481657D01*
X79015610Y-126420488D01*
X79077083Y-126387277D01*
X79082476Y-126386253D01*
X80626024Y-126128995D01*
X80634491Y-126128177D01*
X80734658Y-126125409D01*
X80739958Y-126125126D01*
X80751628Y-126124199D01*
X80756900Y-126123643D01*
X80767255Y-126122279D01*
X80799543Y-126118031D01*
X80807641Y-126117500D01*
X80958275Y-126117500D01*
X80965303Y-126117259D01*
X80978913Y-126116326D01*
X80985719Y-126115860D01*
X80985727Y-126115858D01*
X81055907Y-126098281D01*
X81055910Y-126098279D01*
X81055912Y-126098279D01*
X81094782Y-126080808D01*
X81163996Y-126071279D01*
X81180993Y-126075063D01*
G37*
%TD.AperFunction*%
%TD*%
%TA.AperFunction,Conductor*%
%TO.N,GND*%
G36*
X100215677Y-132619685D02*
G01*
X100236319Y-132636319D01*
X100570576Y-132970576D01*
X100604061Y-133031899D01*
X100606864Y-133055485D01*
X100607785Y-133096721D01*
X100607786Y-133096728D01*
X100953793Y-135172771D01*
X100945397Y-135242134D01*
X100919162Y-135280837D01*
X100777741Y-135422259D01*
X100636317Y-135563682D01*
X100574997Y-135597166D01*
X100548638Y-135600000D01*
X99466363Y-135600000D01*
X99399324Y-135580315D01*
X99363189Y-135544783D01*
X99020826Y-135031239D01*
X99000018Y-134964540D01*
X99000000Y-134962456D01*
X99000000Y-133051362D01*
X99019685Y-132984323D01*
X99036319Y-132963681D01*
X99363681Y-132636319D01*
X99425004Y-132602834D01*
X99451362Y-132600000D01*
X100148638Y-132600000D01*
X100215677Y-132619685D01*
G37*
%TD.AperFunction*%
%TD*%
%TA.AperFunction,Conductor*%
%TO.N,/ADC/ADC_VREF_VIN*%
G36*
X73143039Y-142819685D02*
G01*
X73188794Y-142872489D01*
X73200000Y-142924000D01*
X73200000Y-145476000D01*
X73180315Y-145543039D01*
X73127511Y-145588794D01*
X73076000Y-145600000D01*
X71924000Y-145600000D01*
X71856961Y-145580315D01*
X71811206Y-145527511D01*
X71800000Y-145476000D01*
X71800000Y-142924000D01*
X71819685Y-142856961D01*
X71872489Y-142811206D01*
X71924000Y-142800000D01*
X73076000Y-142800000D01*
X73143039Y-142819685D01*
G37*
%TD.AperFunction*%
%TD*%
%TA.AperFunction,Conductor*%
%TO.N,GND*%
G36*
X76680988Y-136619647D02*
G01*
X76707181Y-136642032D01*
X76868875Y-136824816D01*
X76898550Y-136888070D01*
X76900000Y-136906975D01*
X76900000Y-139307261D01*
X76880315Y-139374300D01*
X76862011Y-139396581D01*
X76671024Y-139580496D01*
X76666014Y-139585320D01*
X76604070Y-139617642D01*
X76580002Y-139620000D01*
X73693975Y-139620000D01*
X73626936Y-139600315D01*
X73603220Y-139580496D01*
X73403245Y-139365707D01*
X73371970Y-139303227D01*
X73370000Y-139281211D01*
X73370000Y-136978869D01*
X73389685Y-136911830D01*
X73415612Y-136882789D01*
X73715967Y-136637763D01*
X73780354Y-136610640D01*
X73793912Y-136609849D01*
X76613881Y-136600192D01*
X76680988Y-136619647D01*
G37*
%TD.AperFunction*%
%TD*%
%TA.AperFunction,Conductor*%
%TO.N,GND*%
G36*
X107283997Y-118548143D02*
G01*
X107350710Y-118568897D01*
X107395614Y-118622427D01*
X107405852Y-118665872D01*
X107450000Y-119540000D01*
X108373828Y-119768670D01*
X108434174Y-119803885D01*
X108465901Y-119866136D01*
X108467581Y-119878447D01*
X108478570Y-120006654D01*
X108464683Y-120075130D01*
X108415979Y-120125227D01*
X108356171Y-120141239D01*
X106423675Y-120159132D01*
X106356456Y-120140069D01*
X106310214Y-120087691D01*
X106303566Y-120070126D01*
X105948433Y-118862672D01*
X105948401Y-118792802D01*
X105971262Y-118749359D01*
X106112016Y-118576616D01*
X106169621Y-118537081D01*
X106210126Y-118530962D01*
X107283997Y-118548143D01*
G37*
%TD.AperFunction*%
%TD*%
%TA.AperFunction,Conductor*%
%TO.N,+3.3VA*%
G36*
X91425706Y-144819685D02*
G01*
X91433062Y-144824796D01*
X91750400Y-145062800D01*
X91792221Y-145118771D01*
X91800000Y-145162000D01*
X91800000Y-145938000D01*
X91780315Y-146005039D01*
X91750400Y-146037200D01*
X91433067Y-146275200D01*
X91367625Y-146299676D01*
X91358667Y-146300000D01*
X88629272Y-146300000D01*
X88573818Y-146286909D01*
X87868546Y-145934273D01*
X87817387Y-145886686D01*
X87800000Y-145823364D01*
X87800000Y-145259597D01*
X87819685Y-145192558D01*
X87846536Y-145162771D01*
X88266035Y-144827172D01*
X88330681Y-144800664D01*
X88343497Y-144800000D01*
X91358667Y-144800000D01*
X91425706Y-144819685D01*
G37*
%TD.AperFunction*%
%TD*%
%TA.AperFunction,Conductor*%
%TO.N,GND*%
G36*
X91219501Y-139018710D02*
G01*
X91237271Y-139031059D01*
X91716636Y-139430530D01*
X91755533Y-139488567D01*
X91761222Y-139528482D01*
X91697443Y-142462358D01*
X91676306Y-142528954D01*
X91670300Y-142537125D01*
X91553437Y-142683203D01*
X91525503Y-142708841D01*
X91480450Y-142738945D01*
X91480446Y-142738950D01*
X91436134Y-142805265D01*
X91436130Y-142805275D01*
X91435526Y-142808314D01*
X91410740Y-142861572D01*
X91337231Y-142953461D01*
X91279981Y-142993514D01*
X91240402Y-143000000D01*
X90199998Y-143000000D01*
X90157253Y-143059844D01*
X90102269Y-143102955D01*
X90080548Y-143109386D01*
X90071769Y-143111132D01*
X90005447Y-143155447D01*
X89961132Y-143221769D01*
X89961131Y-143221770D01*
X89945572Y-143299995D01*
X89945572Y-143316460D01*
X89925887Y-143383499D01*
X89922475Y-143388533D01*
X89735212Y-143650702D01*
X89680228Y-143693813D01*
X89639471Y-143702522D01*
X87361204Y-143797449D01*
X87293403Y-143780572D01*
X87260783Y-143752939D01*
X86828741Y-143234489D01*
X86800945Y-143170386D01*
X86800000Y-143155106D01*
X86800000Y-139844893D01*
X86819685Y-139777854D01*
X86828736Y-139765516D01*
X87265271Y-139241673D01*
X87323309Y-139202776D01*
X87354173Y-139197221D01*
X91151541Y-139002485D01*
X91219501Y-139018710D01*
G37*
%TD.AperFunction*%
%TD*%
M02*
