M48
; DRILL file {KiCad 7.0.8} date 2023 November 11, Saturday 20:01:00
; FORMAT={-:-/ absolute / inch / decimal}
; #@! TF.CreationDate,2023-11-11T20:01:00-08:00
; #@! TF.GenerationSoftware,Kicad,Pcbnew,7.0.8
; #@! TF.FileFunction,Plated,1,4,PTH
FMAT,2
INCH
; #@! TA.AperFunction,Plated,PTH,ViaDrill
T1C0.0118
; #@! TA.AperFunction,Plated,PTH,ViaDrill
T2C0.0157
; #@! TA.AperFunction,Plated,PTH,ComponentDrill
T3C0.0236
; #@! TA.AperFunction,Plated,PTH,ComponentDrill
T4C0.0354
; #@! TA.AperFunction,Plated,PTH,ComponentDrill
T5C0.0787
%
G90
G05
T1
X2.6535Y-4.437
X2.689Y-5.2165
X2.7142Y-4.4724
X2.7559Y-5.6378
X2.7559Y-5.6693
X2.8228Y-5.378
X2.8583Y-5.378
X2.8858Y-5.2835
X2.8898Y-4.748
X2.9094Y-5.2559
X2.937Y-5.748
X2.9488Y-4.5591
X2.9488Y-4.6732
X2.9646Y-5.4409
X2.9685Y-5.2283
X2.9882Y-5.7047
X2.9906Y-5.0004
X2.9917Y-5.0343
X2.9961Y-5.4409
X2.9968Y-4.8591
X2.9984Y-4.9665
X3.0Y-5.2913
X3.0157Y-4.315
X3.022Y-4.9421
X3.0236Y-5.9606
X3.0315Y-4.1772
X3.0394Y-6.063
X3.0512Y-4.2953
X3.0669Y-5.0945
X3.0709Y-5.1929
X3.0866Y-4.4213
X3.0945Y-4.7008
X3.122Y-5.4685
X3.1378Y-4.8386
X3.1654Y-4.5472
X3.185Y-4.8386
X3.189Y-5.5276
X3.1969Y-5.7913
X3.2087Y-4.6669
X3.2205Y-5.2126
X3.2244Y-5.126
X3.2283Y-4.0472
X3.2283Y-4.4252
X3.2283Y-5.9134
X3.2362Y-5.8189
X3.2402Y-5.6811
X3.2441Y-5.1575
X3.248Y-4.5866
X3.248Y-4.6693
X3.2591Y-5.287
X3.2598Y-5.2126
X3.267Y-4.5362
X3.2677Y-4.7205
X3.2756Y-4.0472
X3.2756Y-5.6811
X3.2835Y-4.5906
X3.2953Y-5.2677
X3.315Y-5.9291
X3.3307Y-4.3543
X3.3386Y-4.811
X3.3386Y-4.9311
X3.3566Y-4.5332
X3.3701Y-4.4173
X3.3701Y-5.6417
X3.3701Y-5.6772
X3.3825Y-4.5742
X3.4134Y-4.5468
X3.4252Y-4.1732
X3.4331Y-5.5709
X3.4488Y-4.5433
X3.4488Y-5.5236
X3.4646Y-5.5906
X3.4764Y-4.5197
X3.4843Y-4.626
X3.4882Y-4.4882
X3.5039Y-5.5827
X3.5118Y-4.1299
X3.5118Y-4.5394
X3.5118Y-4.6535
X3.5118Y-5.0315
X3.5157Y-5.5157
X3.5197Y-4.3661
X3.5197Y-4.4134
X3.5276Y-4.8346
X3.5354Y-5.5551
X3.5551Y-5.3701
X3.5591Y-5.8937
X3.563Y-6.0039
X3.5925Y-5.2106
X3.5984Y-5.3661
X3.6024Y-4.7441
X3.6339Y-5.1457
X3.6521Y-5.3187
X3.6535Y-5.2244
X3.6575Y-5.0
X3.677Y-5.2913
X3.6776Y-5.2559
X3.7402Y-4.3858
X3.7402Y-4.4173
X3.7717Y-4.7323
X3.7717Y-5.3268
X3.8012Y-5.3819
X3.8031Y-5.8974
X3.8071Y-5.3268
X3.811Y-4.2913
X3.8346Y-4.9331
X3.878Y-4.7362
X3.878Y-4.9134
X3.8898Y-4.2992
X3.9134Y-5.2992
X3.9173Y-4.7126
X3.937Y-4.4409
X3.9528Y-4.0118
X3.9567Y-4.4094
X3.9606Y-5.8976
X3.9724Y-5.1248
X3.9961Y-5.2008
X4.0083Y-5.1244
X4.0236Y-4.3701
X4.0276Y-5.6063
X4.0748Y-4.5591
X4.0748Y-5.4488
X4.0748Y-5.4843
X4.0787Y-5.6457
X4.0791Y-4.6681
X4.0906Y-5.1772
X4.1024Y-4.2598
X4.1024Y-6.063
X4.1102Y-5.4685
X4.1181Y-4.2244
X4.1299Y-5.9055
X4.1417Y-5.7087
X4.1578Y-4.8303
X4.1811Y-5.8622
X4.1906Y-4.9933
X4.1925Y-5.0567
X4.2008Y-4.7134
X4.2035Y-4.6807
X4.3031Y-4.6181
X4.3213Y-5.0915
T2
X1.4764Y-4.2323
X2.6575Y-4.3307
X2.6575Y-4.8228
X2.6575Y-4.9213
X2.6575Y-5.0197
X2.6575Y-5.1181
X2.6575Y-5.315
X2.6575Y-5.7087
X2.6575Y-6.1024
X2.6575Y-6.2008
X2.6575Y-6.2992
X2.6575Y-6.3976
X2.6575Y-6.4961
X2.6575Y-6.5945
X2.7559Y-4.8228
X2.7559Y-4.9213
X2.7559Y-5.0197
X2.7559Y-5.1181
X2.7559Y-5.4134
X2.7559Y-5.5118
X2.7559Y-6.1024
X2.7559Y-6.2008
X2.7559Y-6.2992
X2.7559Y-6.5945
X2.8543Y-4.3307
X2.8543Y-4.8228
X2.8543Y-4.9213
X2.8543Y-5.0197
X2.8543Y-5.1181
X2.8543Y-6.1024
X2.8543Y-6.2008
X2.8543Y-6.2992
X2.8543Y-6.5945
X2.9528Y-4.0354
X2.9528Y-4.3307
X2.9528Y-6.1024
X2.9528Y-6.2008
X2.9528Y-6.2992
X2.9528Y-6.5945
X3.0512Y-4.0354
X3.0512Y-6.3976
X3.0512Y-6.4961
X3.0512Y-6.5945
X3.1496Y-4.0354
X3.1496Y-6.1024
X3.1496Y-6.3976
X3.1496Y-6.4961
X3.1496Y-6.5945
X3.248Y-5.4134
X3.248Y-5.5118
X3.248Y-6.1024
X3.248Y-6.2008
X3.248Y-6.2992
X3.248Y-6.5945
X3.3465Y-4.0354
X3.3465Y-5.5118
X3.3465Y-5.6102
X3.3465Y-6.1024
X3.3465Y-6.2008
X3.3465Y-6.2992
X3.3465Y-6.5945
X3.4449Y-4.0354
X3.4449Y-4.9213
X3.4449Y-5.0197
X3.4449Y-5.4134
X3.4449Y-6.0039
X3.4449Y-6.1024
X3.4449Y-6.2008
X3.4449Y-6.2992
X3.4449Y-6.3976
X3.4449Y-6.4961
X3.4449Y-6.5945
X3.5433Y-4.0354
X3.5433Y-6.2008
X3.5433Y-6.5945
X3.6417Y-4.1339
X3.6417Y-4.2323
X3.6417Y-4.3307
X3.6417Y-4.4291
X3.6417Y-4.626
X3.6417Y-6.2008
X3.6417Y-6.5945
X3.7402Y-4.1339
X3.7402Y-4.9213
X3.7402Y-6.1024
X3.7402Y-6.2008
X3.7402Y-6.2992
X3.7402Y-6.3976
X3.7402Y-6.4961
X3.7402Y-6.5945
X3.8386Y-4.5276
X3.8386Y-4.626
X3.8386Y-5.0197
X3.8386Y-5.5118
X3.8386Y-5.6102
X3.8386Y-5.7087
X3.8386Y-6.0039
X3.8386Y-6.1024
X3.8386Y-6.2008
X3.8386Y-6.2992
X3.8386Y-6.5945
X3.937Y-5.6102
X3.937Y-5.7087
X3.937Y-5.8071
X3.937Y-6.0039
X3.937Y-6.1024
X3.937Y-6.2008
X3.937Y-6.2992
X3.937Y-6.5945
X4.0354Y-4.626
X4.0354Y-6.0039
X4.0354Y-6.3976
X4.0354Y-6.4961
X4.0354Y-6.5945
X4.1339Y-4.0354
X4.1339Y-4.1339
X4.1339Y-5.0197
X4.1339Y-5.1181
X4.1339Y-5.315
X4.1339Y-5.4134
X4.1339Y-5.6102
X4.1339Y-6.3976
X4.1339Y-6.4961
X4.1339Y-6.5945
X4.2323Y-4.3307
X4.2323Y-4.4291
X4.2323Y-4.5276
X4.2323Y-4.626
X4.2323Y-5.1181
X4.2323Y-5.2165
X4.2323Y-5.315
X4.2323Y-5.4134
X4.2323Y-5.5118
X4.2323Y-5.6102
X4.2323Y-5.7087
X4.2323Y-6.1024
X4.2323Y-6.2008
X4.2323Y-6.2992
X4.2323Y-6.5945
X4.3307Y-4.5276
X4.3307Y-5.2165
X4.3307Y-5.315
X4.3307Y-5.4134
X4.3307Y-5.5118
X4.3307Y-6.1024
X4.3307Y-6.2008
X4.3307Y-6.2992
X4.3307Y-6.5945
X4.4291Y-4.3307
X4.4291Y-4.4291
X4.4291Y-4.5276
X4.4291Y-5.1181
X4.4291Y-5.2165
X4.4291Y-5.315
X4.4291Y-5.4134
X4.4291Y-5.5118
X4.4291Y-5.6102
X4.4291Y-5.7087
X4.4291Y-6.1024
X4.4291Y-6.2008
X4.4291Y-6.2992
X4.4291Y-6.3976
X4.4291Y-6.4961
X4.4291Y-6.5945
X4.626Y-4.5276
T4
X3.0709Y-6.2425
X3.1732Y-6.2425
X4.0551Y-6.2425
X4.1575Y-6.2425
T5
X2.8709Y-6.4425
X3.2709Y-6.4425
X3.8551Y-6.4425
X4.2551Y-6.4425
T3
G00X4.2646Y-4.6823
M15
G01X4.3079Y-4.6823
M16
G05
G00X4.2646Y-5.0224
M15
G01X4.3079Y-5.0224
M16
G05
G00X4.439Y-4.6823
M15
G01X4.4626Y-4.6823
M16
G05
G00X4.439Y-5.0224
M15
G01X4.4626Y-5.0224
M16
G05
T0
M30
